<svg viewBox="64 64 896 896" width="1em" height="1em"><path d="M864 0c-88.384 0-160 71.648-160 160l0 480 128 0 0 384 192 0L1024 160C1024 71.648 952.352 0 864 0zM416 0c-17.664 0-32 14.336-32 32l0 224c0 8.832-14.336 16-32 16-17.664 0-32-7.168-32-16L320 32c0-17.664-14.336-32-32-32-17.664 0-32 14.336-32 32l0 224c0 8.832-14.336 16-32 16-17.664 0-32-7.168-32-16L192 32c0-17.664-14.336-32-32-32-17.664 0-32 14.336-32 32l0 224c0 8.832-14.336 16-32 16s-32-7.168-32-16L64 32c0-17.664-14.336-32-32-32S0 14.336 0 32l0 224 0 64c0 28.32 25.056 44.096 52.992 64C88.224 409.056 128 440.64 128 512l0 512 192 0L320 512c0-71.36 39.776-102.944 75.008-128C422.944 364.096 448 348.32 448 320l0-64L448 32C448 14.336 433.664 0 416 0z" p-id="5471"></path></svg>