<?xml version="1.0" standalone="no"?><!DOCTYPE svg PUBLIC "-//W3C//DTD SVG 1.1//EN" "http://www.w3.org/Graphics/SVG/1.1/DTD/svg11.dtd"><svg t="1598419615619" class="icon" viewBox="0 0 1024 1024" version="1.1" xmlns="http://www.w3.org/2000/svg" p-id="6017" xmlns:xlink="http://www.w3.org/1999/xlink" width="200" height="200"><defs><style type="text/css"></style></defs><path d="M878.554433 367.195754C878.554433 164.403247 714.398713 0 512.011251 0 309.623789 0 145.423065 164.403247 145.423065 367.195754c0 80.063886 36.116508 147.841408 69.060165 214.493806 57.381369 116.067882 163.120604 298.833166 218.791783 397.754145 14.244081 25.31531 46.985215 44.734965 83.43926 44.532442s68.74513-19.127123 82.696678-44.464935c54.478546-98.853471 147.526373-257.631094 210.983417-399.05929 30.243357-67.349975 68.160065-133.70984 68.160065-213.256168z m-366.565684-120.163337a120.163336 120.163336 0 1 1 0 240.326673 120.163336 120.163336 0 0 1 0-240.326673z" p-id="6018"></path></svg>