<svg id="Layer_1" data-name="Layer 1" xmlns="http://www.w3.org/2000/svg" viewBox="0 0 261 325"><title>Article Save Icon White</title><path d="M235.45,28.42c4.48,0,8.13,3,8.13,6.77V294.63c0,4.25-4.2,6.8-8.26,6.8a8.43,8.43,0,0,1-6.24-2.62l-80.79-85a22,22,0,0,0-31.28-.08L34.89,299.15a8.45,8.45,0,0,1-6.21,2.58c-4.06,0-8.26-2.54-8.26-6.8V35.19c0-3.73,3.65-6.77,8.13-6.77h206.9m0-6.42H28.55C20.51,22,14,27.91,14,35.19V294.93c0,8,7.22,13.22,14.68,13.22a14.83,14.83,0,0,0,10.84-4.55l82.12-85.47a15.57,15.57,0,0,1,22,.06l80.78,85.05a14.89,14.89,0,0,0,10.9,4.61c7.46,0,14.68-5.2,14.68-13.22V35.19C250,27.91,243.49,22,235.45,22Z"/></svg>