<svg xmlns="http://www.w3.org/2000/svg" xmlns:xlink="http://www.w3.org/1999/xlink" viewBox="0 0 785 736"><defs><style>.cls-1{isolation:isolate;}.cls-2{opacity:0.45;}.cls-3{fill:url(#linear-gradient);}.cls-4{fill:url(#linear-gradient-2);}.cls-5{fill:url(#linear-gradient-3);}.cls-6{fill:url(#linear-gradient-4);}.cls-7,.cls-9{opacity:0.2;mix-blend-mode:screen;}.cls-7{fill:url(#White_Black);}.cls-8{fill:url(#linear-gradient-5);}.cls-9{fill:url(#White_Black-2);}.cls-10{mix-blend-mode:multiply;fill:url(#White_Black-3);}</style><linearGradient id="linear-gradient" x1="202.62" y1="520.25" x2="752.18" y2="593.96" gradientUnits="userSpaceOnUse"><stop offset="0" stop-color="#4263da"/><stop offset="0.23" stop-color="#435fd8"/><stop offset="0.43" stop-color="#4654d2"/><stop offset="0.63" stop-color="#4c42c9"/><stop offset="0.82" stop-color="#5328bb"/><stop offset="1" stop-color="#5c09ab"/></linearGradient><linearGradient id="linear-gradient-2" x1="215" y1="427.91" x2="764.56" y2="501.61" xlink:href="#linear-gradient"/><linearGradient id="linear-gradient-3" x1="214.12" y1="434.49" x2="763.68" y2="508.19" xlink:href="#linear-gradient"/><linearGradient id="linear-gradient-4" x1="212.97" y1="443.08" x2="762.53" y2="516.78" xlink:href="#linear-gradient"/><linearGradient id="White_Black" x1="55" y1="492.58" x2="677.04" y2="597.41" gradientUnits="userSpaceOnUse"><stop offset="0" stop-color="#fff"/><stop offset="1"/></linearGradient><linearGradient id="linear-gradient-5" x1="74.04" y1="299.16" x2="686.09" y2="120.78" xlink:href="#linear-gradient"/><linearGradient id="White_Black-2" x1="75.61" y1="198.12" x2="702.07" y2="180.5" xlink:href="#White_Black"/><linearGradient id="White_Black-3" x1="269.5" y1="483.5" x2="269.5" y2="157.52" xlink:href="#White_Black"/></defs><title>Only Logo Icon</title><g class="cls-1"><g id="Layer_1" data-name="Layer 1"><g class="cls-2"><path class="cls-3" d="M752.82,500.89c-135.17,237.77-407.66,326.2-521,57.94,0-.08-.07-.18-.11-.26-21.59-55-29.7-123.54-25-193.24,38.42.1,78.49-.33,118.28-1.62-6,53.35-3.88,107.77,8.68,154.11,36.05,133.38,158.09,200.07,418.6-17.47Z"/><polygon class="cls-4" points="728.02 492.72 722.93 498.86 739.19 503.55 747.17 493.94 728.02 492.72"/><path class="cls-5" d="M765.87,483.81c-1.17-1-3-.9-5.36.19a13,13,0,0,0-4,2.82l-19.9,24L728.28,512l-3.64,4.38,6.84,2.56,2.83-3.4,3.66-.27L734.11,520h0l-2.31,2.78,2,1.69,2.31-2.78v0L740,517l.35,3.72-2.77,3.33,3.76,6.25,3.64-4.38-.29-8.41,19.9-24a12.84,12.84,0,0,0,2-4.47C767.3,486.61,767,484.77,765.87,483.81Z"/><polygon class="cls-6" points="759.44 504.01 751.47 513.6 759.04 528.67 764.14 522.53 759.44 504.01"/><path class="cls-7" d="M442.57,694.36c-79.7,0-143.3-50.78-183.91-146.85-16.63-42.58-25-96.11-24.05-153,20.1-.09,39.69-.33,58.6-.74-2.46,47.7,1.69,92.71,12.26,131.72,25.28,93.52,84.8,145,167.59,145q53.25,0,118-29.07C542.89,675.32,491.5,694.36,442.57,694.36Z"/><path class="cls-8" d="M491.59,16.6C343.87-3.2,250,131.58,217.85,284.43c38.63-6.63,76.55-12.37,118.56-18l9.5-1.29c25.76-79.78,70-140.69,122.8-141.52h.21a75.18,75.18,0,0,1,27.19,4.92A90.21,90.21,0,0,1,554.19,219c-.07,1.22-.21,2.37-.36,3.52v.07a42.1,42.1,0,0,1-4.23,14C537.51,260,501.24,267,430.14,276.15c-19.8,2.54-42.33,5.27-67.76,8.53-3.8.51-7.64,1-11.59,1.51l-11.6,1.56h0c-36.35,4.88-78,11-125.66,19.26-57.07,9.93-122.64,23-197.66,40.84-7.92,1.89-6.74,13.52,1.4,13.75,47.3,1.31,115.22,3.49,189.39,3.71,38.41.12,78.49-.29,118.27-1.61h0c3.62-.11,7.24-.25,10.87-.39l10.9-.43c67.59-2.87,133.2-8.61,187-19.12C599.54,330.85,650,275.9,654.35,208.92c.14-2.12.22-4.23.29-6.35C657.44,108.08,585.33,29.16,491.59,16.6Z"/><path class="cls-9" d="M216,336.18l2.52-.45c40.67-7.08,80.25-13.14,124.55-19.09l11.57-1.55,11.55-1.51c13.16-1.68,25.64-3.24,37.34-4.7q16.13-2,30.33-3.82c75.19-9.67,122.25-17.51,141.65-55.17a70.49,70.49,0,0,0,7.21-23.38l.27-2v-.35c.12-1.13.23-2.27.3-3.45,3.74-52-27.91-101.24-77-119.53a104.83,104.83,0,0,0-36.54-6.75h-1.17c-59.14.92-111.08,53.19-144.38,144.2-23.45,3.19-45.53,6.41-67.18,9.8,31.5-105.32,98.69-204.64,206-204.64a185.59,185.59,0,0,1,24.66,1.68c80.87,10.83,140.1,78,137.77,156.2,0,1.71-.1,3.48-.22,5.26-3.45,53.19-43.42,97.66-97.21,108.2-47,9.2-108.48,15.45-182.59,18.6l-10.82.43c-3.53.14-7.06.28-10.59.38-32.45,1.07-67.68,1.61-104.83,1.61Z"/><path class="cls-10" d="M333.61,517.82c-36.23,14.5-74.72,30-101.81,41,0-.08-.07-.18-.11-.26-21.59-55-29.7-123.54-25-193.24,38.42.1,78.49-.33,118.28-1.62C318.9,417.06,321.05,471.48,333.61,517.82Z"/></g></g></g></svg>