<svg xmlns="http://www.w3.org/2000/svg" xmlns:xlink="http://www.w3.org/1999/xlink" viewBox="0 0 2120 406"><defs><style>.cls-1{isolation:isolate;}.cls-2{fill:url(#linear-gradient);}.cls-3{fill:url(#linear-gradient-2);}.cls-4{fill:url(#linear-gradient-3);}.cls-5{fill:url(#linear-gradient-4);}.cls-6,.cls-8{opacity:0.2;mix-blend-mode:screen;}.cls-6{fill:url(#White_Black);}.cls-7{fill:url(#linear-gradient-5);}.cls-8{fill:url(#White_Black-2);}.cls-9{mix-blend-mode:multiply;fill:url(#White_Black-3);}.cls-10{fill:#4263da;}.cls-11{fill:none;stroke:#000;stroke-miterlimit:10;stroke-width:0.25px;}</style><linearGradient id="linear-gradient" x1="137.38" y1="288.12" x2="387.35" y2="321.64" gradientUnits="userSpaceOnUse"><stop offset="0" stop-color="#4263da"/><stop offset="0.23" stop-color="#435fd8"/><stop offset="0.43" stop-color="#4654d2"/><stop offset="0.63" stop-color="#4c42c9"/><stop offset="0.82" stop-color="#5328bb"/><stop offset="1" stop-color="#5c09ab"/></linearGradient><linearGradient id="linear-gradient-2" x1="143.01" y1="246.12" x2="392.98" y2="279.64" xlink:href="#linear-gradient"/><linearGradient id="linear-gradient-3" x1="142.61" y1="249.11" x2="392.58" y2="282.63" xlink:href="#linear-gradient"/><linearGradient id="linear-gradient-4" x1="142.09" y1="253.01" x2="392.05" y2="286.54" xlink:href="#linear-gradient"/><linearGradient id="White_Black" x1="70.24" y1="275.53" x2="353.17" y2="323.21" gradientUnits="userSpaceOnUse"><stop offset="0" stop-color="#fff"/><stop offset="1"/></linearGradient><linearGradient id="linear-gradient-5" x1="78.9" y1="187.55" x2="357.28" y2="106.42" xlink:href="#linear-gradient"/><linearGradient id="White_Black-2" x1="79.61" y1="141.6" x2="364.55" y2="133.58" xlink:href="#White_Black"/><linearGradient id="White_Black-3" x1="167.8" y1="271.4" x2="167.8" y2="123.13" xlink:href="#White_Black"/></defs><title>One Line Logo</title><g class="cls-1"><g id="Layer_1" data-name="Layer 1"><path class="cls-2" d="M387.64,279.31c-61.48,108.15-185.43,148.37-237,26.35l0-.11c-9.83-25-13.51-56.2-11.39-87.9,17.47,0,35.7-.15,53.79-.73-2.74,24.26-1.76,49,4,70.09,16.4,60.67,71.91,91,190.4-7.94Z"/><polygon class="cls-3" points="376.36 275.6 374.04 278.39 381.44 280.52 385.07 276.15 376.36 275.6"/><path class="cls-4" d="M393.57,271.54c-.53-.44-1.37-.41-2.43.09a5.8,5.8,0,0,0-1.83,1.28l-9.05,10.9-3.79.57-1.65,2,3.11,1.16,1.29-1.55,1.66-.12L379.12,288h0l-1.05,1.26.93.77,1-1.26h0l1.76-2.12.16,1.69-1.26,1.52,1.71,2.84,1.65-2-.13-3.82L393,276a5.91,5.91,0,0,0,.92-2C394.22,272.81,394.1,272,393.57,271.54Z"/><polygon class="cls-5" points="390.65 280.73 387.02 285.09 390.47 291.94 392.78 289.15 390.65 280.73"/><path class="cls-6" d="M246.52,367.31c-36.25,0-65.18-23.1-83.65-66.8-7.56-19.36-11.36-43.71-10.94-69.61q13.73-.06,26.66-.33c-1.12,21.69.77,42.16,5.57,59.91,11.5,42.53,38.57,66,76.23,66q24.23,0,53.66-13.22C292.15,358.65,268.78,367.31,246.52,367.31Z"/><path class="cls-7" d="M268.82,59c-67.19-9-109.91,52.29-124.51,121.82,17.57-3,34.82-5.63,53.92-8.19l4.33-.59c11.71-36.29,31.83-64,55.85-64.37h.1a34.34,34.34,0,0,1,12.37,2.23,41.05,41.05,0,0,1,26.41,41.14c0,.55-.1,1.08-.16,1.6v0a19.24,19.24,0,0,1-1.93,6.36c-5.5,10.68-22,13.86-54.33,18-9,1.16-19.25,2.4-30.82,3.88l-5.27.69c-1.72.22-3.5.46-5.28.71h0c-16.53,2.22-35.49,5-57.16,8.76-25.95,4.51-55.78,10.45-89.9,18.57a3.17,3.17,0,0,0,.63,6.26c21.52.59,52.41,1.58,86.15,1.68,17.47.06,35.7-.13,53.79-.73h0c1.65,0,3.3-.12,5-.18l5-.2c30.74-1.3,60.58-3.91,85-8.7,30-5.87,52.91-30.87,54.89-61.33.06-1,.1-1.92.13-2.89C344.25,100.64,311.46,64.75,268.82,59Z"/><path class="cls-8" d="M143.47,204.39l1.14-.2c18.5-3.22,36.51-6,56.65-8.68l5.27-.71,5.25-.68q9-1.16,17-2.14l13.79-1.74c34.2-4.4,55.61-8,64.43-25.09a32.32,32.32,0,0,0,3.28-10.64l.12-.89v-.16c.06-.52.1-1,.14-1.57a54.27,54.27,0,0,0-35-54.37,47.7,47.7,0,0,0-16.62-3.07h-.53c-26.9.42-50.52,24.19-65.67,65.59C182,161.49,172,163,162.13,164.49c14.32-47.9,44.88-93.08,93.71-93.08a84.42,84.42,0,0,1,11.22.77c36.78,4.92,63.72,35.47,62.66,71,0,.77-.05,1.58-.1,2.39-1.57,24.19-19.75,44.42-44.21,49.21-21.4,4.19-49.35,7-83.05,8.46l-4.92.2c-1.61.06-3.22.13-4.82.17-14.76.49-30.79.73-47.68.73Z"/><path class="cls-9" d="M197,287c-16.48,6.6-34,13.63-46.31,18.65l0-.11c-9.83-25-13.51-56.2-11.39-87.9,17.47,0,35.7-.15,53.79-.73C190.27,241.18,191.25,265.93,197,287Z"/><path class="cls-10" d="M538.62,231.56q1.75-76.73,81.42-76.73h5.85v41.59H612.42Q579,196.42,579,231v82.59H538.62Z"/><path class="cls-10" d="M708.11,313.27Q685.47,315,669.63,307q-23.76-11.88-23.76-41.87.57-23.21,15.84-35.08t50.36-15.28Q737,212,737,199.53q-1.14-13-24.9-13-20.37,0-23.2,10.75H650.4q6.78-42.44,60-42.44,63.38,0,64.51,42.44v52.06q0,39-28.29,54.32Q731.31,311.57,708.11,313.27ZM707,242.54q-23.21,4.52-23.2,21.5,1.13,18.1,19.24,18.11,15.84,0,25.46-9.06,9.06-9,9-25.46V233.48A162,162,0,0,1,707,242.54Z"/><path class="cls-10" d="M850.49,313.57,794.85,154.83h43.93L871,266.12l27.52-97.23q4.69-14.05,19.33-14.06h31L892.67,313.57Z"/><path class="cls-10" d="M1105,263.29q-6.78,26-22.6,37.85-18.65,12.42-44.06,12.43-69.48-2.26-69.48-80.22t70-78.52q72.88,0,68.36,89.82h-98.86q2.26,35,30.5,35,13.56,0,24.86-10.73a16.69,16.69,0,0,1,13-5.65ZM1066.59,217q-3.39-30.51-28.24-30.5T1009,217Z"/><path class="cls-10" d="M1550.93,282.08v31.49h-33.82V293.74q0-11.67,12.82-11.66Z"/><path class="cls-10" d="M1672.1,232.74l50.61-77.91h-46.83l-28.38,48-27.53-48h-45.69l48.62,77.31-51.55,81.43H1620l28.7-50.37,28.12,50.37h48Z"/><path class="cls-10" d="M1766.65,340.86h11.09q32.65,0,23.32-31.49l-53.65-154.54h44.9l31.49,109.64,27.41-95.64q3.49-14,18.66-14h28l-62.39,184.86q-7.59,20.42-17.5,27.41-11.65,7.57-34.4,7.58-15.16,0-16.92-1.17Z"/><path class="cls-10" d="M1964.27,279l84.35-90.2v-34h-130v12.89a20,20,0,0,0,20.5,20.5h59.74l-84.93,93.72v31.63h107.6a35,35,0,0,0,29.46-33V279Z"/><line class="cls-11" x1="1736.11" y1="172.62" x2="1736.11" y2="172.81"/><path class="cls-10" d="M1475.47,109.83a19.66,19.66,0,0,0-19.68,19.68V179q-14.76-23.85-43.72-23.85-61.33,2.28-61.32,80.62,0,76.65,71.54,77.8,72.11.56,72.1-68.72v-135Zm-52.61,170.8q-32.94,0-32.37-46.56,1.71-44.28,32.94-44.28t32.36,44.28Q1455.79,280.63,1422.86,280.63Z"/><path class="cls-10" d="M1269.46,155.15q-29,0-43.72,23.85V129.51a19.69,19.69,0,0,0-19.69-19.68h-18.92v135q0,69.27,72.11,68.7,71.54-1.14,71.54-77.79Q1330.78,157.42,1269.46,155.15ZM1258.1,280.63q-32.92,0-32.36-46.56,1.69-44.28,32.93-44.29T1291,234.07Q1291,280.63,1258.1,280.63Z"/><path class="cls-10" d="M1147.47,109.83h-20V313.57h39.66V129.51A19.69,19.69,0,0,0,1147.47,109.83Z"/><path class="cls-10" d="M498.57,183.44a19.83,19.83,0,0,0,14.17-5.61,19,19,0,0,0,5.91-14.46v-8.86H494.44v-25a19.68,19.68,0,0,0-19.69-19.68H454.28v24.88h0v149.1q-.59,26.58,22.15,28.64a233.53,233.53,0,0,0,42.21.3V282h-12.4q-11.82,0-11.81-10V183.44Z"/></g></g></svg>