<svg id="Layer_1" data-name="Layer 1" xmlns="http://www.w3.org/2000/svg" viewBox="0 0 605 605"><defs><style>.cls-1{fill:#fff;}.cls-2{fill:#5b5a5a;}</style></defs><title>Lalbag 03</title><rect x="27.95" y="240.15" width="557.93" height="164.76"/><rect x="170.71" y="222.98" width="274.48" height="21.97"/><rect class="cls-1" x="31.51" y="271.55" width="11.6" height="29.89"/><rect class="cls-1" x="65.98" y="271.88" width="11.6" height="29.89"/><rect class="cls-1" x="46.19" y="271.21" width="17.06" height="30.57"/><rect class="cls-1" x="31.51" y="316.38" width="11.6" height="29.89"/><rect class="cls-1" x="65.98" y="316.72" width="11.6" height="29.89"/><rect class="cls-1" x="46.19" y="316.04" width="17.06" height="30.57"/><rect class="cls-1" x="31.51" y="359.86" width="11.6" height="29.89"/><rect class="cls-1" x="65.98" y="360.2" width="11.6" height="29.89"/><rect class="cls-1" x="46.19" y="359.52" width="17.06" height="30.57"/><rect class="cls-1" x="85.77" y="271.21" width="72.34" height="25.81"/><rect class="cls-1" x="166.3" y="275.28" width="23.2" height="25.81"/><rect class="cls-1" x="218.17" y="247.43" width="23.2" height="25.81"/><rect class="cls-1" x="218.17" y="287.51" width="23.2" height="25.81"/><rect class="cls-1" x="218.17" y="328.95" width="23.2" height="25.81"/><rect class="cls-1" x="218.17" y="366.31" width="23.2" height="25.81"/><rect class="cls-1" x="166.3" y="317.4" width="23.2" height="25.81"/><rect class="cls-1" x="165.62" y="356.8" width="23.2" height="25.81"/><rect class="cls-1" x="197.69" y="245.39" width="12.28" height="25.81"/><rect class="cls-1" x="399.7" y="245.39" width="12.28" height="25.81"/><rect class="cls-1" x="528.01" y="271.21" width="10.92" height="29.89"/><rect class="cls-1" x="542.34" y="271.21" width="17.06" height="29.89"/><rect class="cls-1" x="562.81" y="271.21" width="10.92" height="29.89"/><rect class="cls-1" x="528.01" y="315.36" width="10.92" height="29.89"/><rect class="cls-1" x="542.34" y="315.36" width="17.06" height="29.89"/><rect class="cls-1" x="562.81" y="315.36" width="10.92" height="29.89"/><rect class="cls-1" x="528.01" y="360.88" width="10.92" height="29.89"/><rect class="cls-1" x="542.34" y="360.88" width="17.06" height="29.89"/><rect class="cls-1" x="562.81" y="360.88" width="10.92" height="29.89"/><rect class="cls-1" x="399.7" y="285.47" width="12.28" height="25.81"/><rect class="cls-1" x="399.02" y="325.55" width="12.28" height="25.81"/><rect class="cls-1" x="399.02" y="366.99" width="12.28" height="25.81"/><rect class="cls-1" x="197.69" y="285.47" width="12.28" height="25.81"/><rect class="cls-1" x="198.38" y="325.55" width="12.28" height="25.81"/><rect class="cls-1" x="198.38" y="367.67" width="12.28" height="25.81"/><polyline class="cls-1" points="19.91 256.6 26.74 263.39 185.75 263.39 185.75 254.56 19.91 256.6"/><polygon class="cls-1" points="422.23 255.58 422.23 262.37 584.65 262.37 578.51 255.58 422.23 255.58"/><rect class="cls-1" x="422.23" y="241.31" width="4.09" height="21.06"/><rect class="cls-1" x="182.68" y="239.28" width="3.41" height="23.78"/><rect class="cls-1" x="182.68" y="239.28" width="243.64" height="3.4"/><rect class="cls-1" x="366.26" y="247.43" width="23.2" height="25.81"/><rect class="cls-1" x="366.26" y="285.47" width="23.2" height="25.81"/><rect class="cls-1" x="416.77" y="275.28" width="23.2" height="25.81"/><rect class="cls-1" x="448.16" y="271.21" width="73.02" height="25.81"/><rect class="cls-1" x="416.77" y="316.04" width="23.2" height="25.81"/><rect class="cls-1" x="416.77" y="356.8" width="23.2" height="25.81"/><rect class="cls-1" x="366.26" y="326.23" width="23.2" height="25.81"/><rect class="cls-1" x="366.26" y="366.99" width="23.2" height="25.81"/><path class="cls-1" d="M95.32,329h.25a28.76,28.76,0,0,0-.25,3.74Z"/><path class="cls-1" d="M150.6,329v3.74a28.77,28.77,0,0,0-.24-3.74Z"/><path class="cls-1" d="M150.6,332.69v64.19H95.32V332.69a28.76,28.76,0,0,1,.25-3.74,27.57,27.57,0,0,1,54.79,0A28.77,28.77,0,0,1,150.6,332.69Z"/><path class="cls-1" d="M452.94,329h.24a28.77,28.77,0,0,0-.24,3.74Z"/><path class="cls-1" d="M508.22,329v3.74A28.76,28.76,0,0,0,508,329Z"/><path class="cls-1" d="M508.22,332.69v64.19H452.94V332.69a28.77,28.77,0,0,1,.24-3.74A27.57,27.57,0,0,1,508,329,28.76,28.76,0,0,1,508.22,332.69Z"/><rect class="cls-1" x="248.88" y="263.05" width="8.87" height="143.34"/><rect class="cls-1" x="349.88" y="263.05" width="8.87" height="143.34"/><rect class="cls-1" x="299.4" y="211.77" width="8.83" height="109.88" transform="translate(567.59 -39.67) rotate(89.45)"/><path class="cls-1" d="M259.8,396.88V320.12a13.41,13.41,0,0,1,0-2.72c.48-4.69,3.36-8,4.78-9.51a189.91,189.91,0,0,1,23.88-21.74c4-3,9.06-6.66,15-10.87,6.41,4.52,11.71,8.49,15.69,11.55,12.35,9.49,7.57,6.79,15.7,12.91,4.9,3.68,8.78,6.28,10.92,11.55a19.38,19.38,0,0,1,1.36,6.11q-.33,39.74-.68,79.48Z"/><rect class="cls-1" x="27.76" y="396.2" width="552.8" height="10.19"/><rect x="110.34" y="351.37" width="25.25" height="44.84"/><path class="cls-1" d="M110.68,320.8a6.09,6.09,0,0,0-.34,2v-2Z"/><path class="cls-1" d="M135.59,320.8v2a6.36,6.36,0,0,0-.34-2Z"/><path d="M135.59,322.83V340.5H110.34V322.83a6.09,6.09,0,0,1,.34-2C112,316.9,117,314,123,314s11,2.9,12.29,6.8A6.36,6.36,0,0,1,135.59,322.83Z"/><rect x="467.95" y="350.69" width="25.25" height="44.84"/><path d="M493.2,322.16v17.66H468V322.16a6.37,6.37,0,0,1,.34-2c1.31-3.9,6.31-6.8,12.29-6.8s11,2.9,12.28,6.8A6.11,6.11,0,0,1,493.2,322.16Z"/><path d="M371,191v8.84H369v25.81H238V199.88h-2.05V191h3.52a33.52,33.52,0,0,1-1.47-9.85c0-24.74,27.2-45,61.52-46.44a35.77,35.77,0,0,0,2.54-4.17c5-9.63,3.72-18.34,4-18.34s-1,8,3,17a36.88,36.88,0,0,0,3.34,5.87h0c32,3.07,56.62,22.54,56.62,46.1a33.52,33.52,0,0,1-1.47,9.85Z"/><path d="M324.63,350.69V396.2H284.37V350.69c0-10.5,9-19,20.13-19S324.63,340.19,324.63,350.69Z"/><path d="M409.26,205.31v2h-1.37v19.7H399.7v-19.7h-1.36v-2H399a9.72,9.72,0,0,1,.07-2,11.15,11.15,0,0,1,2.05-4.75,14.3,14.3,0,0,0,2.05-4.08,13.86,13.86,0,0,0,2,4.08c.87,1.23,2.3,2.46,2.73,4.75a7.31,7.31,0,0,1,.1,2Z"/><path d="M209.3,204.63v2h-1.37v19.7h-8.19v-19.7h-1.36v-2h.6a9.79,9.79,0,0,1,.08-2,11,11,0,0,1,2.05-4.75,14.05,14.05,0,0,0,2-4.08,13.85,13.85,0,0,0,2,4.08c.87,1.23,2.29,2.46,2.73,4.75a8.16,8.16,0,0,1,.1,2Z"/><polygon class="cls-1" points="255.02 406.39 179.27 482.48 426.32 481.12 347.15 406.39 255.02 406.39"/><rect x="-55.5" y="405.71" width="720" height="17.66"/><polygon points="239.49 406.43 255.22 406.11 179.27 482.48 158.11 482.48 239.49 406.43"/><polygon points="347.15 406.39 426.32 481.12 442.7 481.12 363.13 405.79 347.15 406.39"/><path d="M89.86,193.76v4.08H77.58v47.55H31.17V195.8H19.57V191l8.19-2h3.47c.79-20.24,9.33-36.55,20.21-39.07L54,133.6a.41.41,0,0,1,.81,0l3.11,16.51c10.59,3,18.82,19.05,19.59,38.91h2.11Z"/><path d="M588.75,195.12v4.08H576.46v47.55H530.05V197.16h-11.6V192.4l8.19-2h3.48c.78-20.23,9.32-36.54,20.2-39.06L552.89,135a.41.41,0,0,1,.81,0l3.11,16.51c10.59,3,18.82,19,19.59,38.9h2.11Z"/><path d="M322.7,225.69a91.61,91.61,0,0,1-38.45,0Z"/><rect class="cls-1" x="37.32" y="203.27" width="5.46" height="27.85"/><rect class="cls-1" x="65.98" y="203.27" width="5.46" height="27.85"/><rect class="cls-1" x="48.23" y="203.27" width="12.28" height="27.85"/><rect class="cls-1" x="536.88" y="203.27" width="5.46" height="27.85"/><rect class="cls-1" x="565.54" y="203.27" width="5.46" height="27.85"/><rect class="cls-1" x="547.8" y="203.27" width="12.28" height="27.85"/><rect class="cls-2" x="235.79" y="191.2" width="135.31" height="9.34"/></svg>