<?xml version="1.0" encoding="utf-8"?>
<!-- Generator: Adobe Illustrator 23.0.2, SVG Export Plug-In . SVG Version: 6.00 Build 0)  -->
<svg version="1.1" id="Layer_1" xmlns="http://www.w3.org/2000/svg" xmlns:xlink="http://www.w3.org/1999/xlink" x="0px" y="0px"
	 viewBox="0 0 1200 1200" style="enable-background:new 0 0 1200 1200;" xml:space="preserve">
<style type="text/css">
	.st0{fill:#292B2C;}
</style>
<g>
	<polygon class="st0" points="605.8,121.9 636.8,110.4 632.9,144.8 663.9,156.3 644.5,175.3 648.4,194.3 675.5,213.3 710.3,201.9 
		733.5,228.6 737.4,281.9 710.3,293.4 694.8,300.9 690.9,327.6 729.6,327.6 737.4,335.3 737.4,377.1 752.8,415.3 741.2,434.4 
		756.7,483.9 725.8,468.5 702.5,457.1 694.8,464.8 737.3,495.3 737.3,506.7 725.7,506.7 706.4,529.5 706.4,579 683.2,617.1 
		675.5,640 671.6,685.7 694.8,720 702.5,761.9 671.6,803.8 683.2,830.5 679.4,880 694.8,922 694.8,944.8 679.3,944.8 679.3,967.7 
		625.2,1002 605.8,986.7 559.4,982.9 532.3,990.5 582.6,1028.7 571,1051.5 528.4,1051.5 497.5,1043.8 516.8,1082 489.7,1089.6 
		458.8,1078.3 470.4,1051.6 447.2,1017.2 447.2,986.7 443.3,956.2 451.1,895.2 443.3,861 462.7,807.6 466.5,742.9 451.1,685.7 
		497.5,647.6 524.6,628.6 532.3,567.6 501.4,506.7 489.7,495.3 489.7,468.5 470.4,430.5 462.6,380.9 497.5,323.9 513,278.1 
		536.2,278.1 563.3,247.6 563.3,221 547.8,209.5 547.8,186.6 590.3,190.4 602,160 605.9,121.9 	"/>
</g>
</svg>
