<?xml version="1.0" encoding="utf-8"?>
<!-- Generator: Adobe Illustrator 23.0.2, SVG Export Plug-In . SVG Version: 6.00 Build 0)  -->
<svg version="1.1" id="Layer_1" xmlns="http://www.w3.org/2000/svg" xmlns:xlink="http://www.w3.org/1999/xlink" x="0px" y="0px"
	 viewBox="0 0 1200 1200" style="enable-background:new 0 0 1200 1200;" xml:space="preserve">
<style type="text/css">
	.st0{fill:#292B2C;}
</style>
<title>Bandarban</title>
<g id="path7308">
	<g>
		<polygon class="st0" points="512,518.2 489.4,546.1 449.7,529.3 438.3,507 404.3,456.7 421.3,434.4 449.7,434.4 461,456.7 
			500.7,462.3 500.7,440 517.7,395.3 500.7,367.4 489.4,311.6 483.7,283.6 472.4,227.8 461,188.7 472.4,132.9 506.4,144.1 
			540.4,127.3 597.1,127.3 631.1,149.7 682.1,177.6 710.5,239 738.8,317.2 727.5,339.5 761.5,412.1 795.5,507 801.2,534.9 
			795.5,596.3 795.5,635.4 789.9,680 795.5,735.9 812.5,797.3 818.2,858.7 823.9,909 852.2,959.2 823.9,970.4 795.5,1003.9 
			778.5,992.7 772.9,964.8 755.9,925.7 761.5,903.4 744.5,897.8 727.5,908.9 699.2,914.5 665.2,903.3 659.5,881 636.8,825.2 
			619.8,814 597.1,841.9 585.8,864.3 563.1,858.7 534.7,909 517.7,914.5 500.7,936.9 506.4,981.5 489.4,1020.6 483.7,964.8 
			466.7,920.1 461,897.8 495,858.7 517.7,881 534.7,847.5 512,802.8 489.3,763.8 500.7,741.4 472.3,713.5 461,680 444,635.3 
			472.4,607.5 517.7,607.5 517.7,574 546.1,574 546.1,557.2 512.1,518.2 		"/>
	</g>
</g>
</svg>
