<?xml version="1.0" encoding="utf-8"?>
<!-- Generator: Adobe Illustrator 23.0.2, SVG Export Plug-In . SVG Version: 6.00 Build 0)  -->
<svg version="1.1" id="Layer_1" xmlns="http://www.w3.org/2000/svg" xmlns:xlink="http://www.w3.org/1999/xlink" x="0px" y="0px"
	 viewBox="0 0 1200 1200" style="enable-background:new 0 0 1200 1200;" xml:space="preserve">
<style type="text/css">
	.st0{fill:#292B2C;}
</style>
<title>Borguna</title>
<g id="path2245">
	<g>
		<path class="st0" d="M602.6,222.3l52.5,5.2l-5.2,25.8l52.5-15.5v-10.3l31.5-20.6l36.7,15.5l-10.5,41.3l-36.7,5.2l-36.7,51.6
			l15.7,41.3l-10.5,31L639.3,403l-20.9,36.2l-5.2,41.3l15.8,20.7l47.2-46.5l26.2-10.3l21,10.3l89.1,5.2l5.2,36.1l-52.5,51.7
			l-15.8,31l36.7,20.7v31l-36.7,62L718,728.3v77.5l-52.5,62.1l5.2,56.8l-47.2,15.6l-42,25.8l-47.2-10.3l-36.7-31l-68.2-15.5
			l15.8-25.8l-20.9-25.8c0,0-21-56.8,5.2-56.8s62.9-20.7,62.9-20.7l-36.7-15.5l-36.7-5.2l5.3-51.6l26.2-31L434.7,651L419,687
			l-26.2,5.2l-5.2,36.1l15.8,15.5L377,774.9l-42-67.1l-10.5-51.6v-72.4l0,0L377,558l26.2-31l21,10.3l36.7-77.5l15.7-41.3L466.2,372
			l52.5,5.2l36.7-46.5l31.5-20.7l5.2-41.3L602.6,222.3L602.6,222.3z"/>
	</g>
</g>
</svg>
