<?xml version="1.0" encoding="utf-8"?>
<!-- Generator: Adobe Illustrator 23.0.2, SVG Export Plug-In . SVG Version: 6.00 Build 0)  -->
<svg version="1.1" id="Layer_1" xmlns="http://www.w3.org/2000/svg" xmlns:xlink="http://www.w3.org/1999/xlink" x="0px" y="0px"
	 viewBox="0 0 1200 1200" style="enable-background:new 0 0 1200 1200;" xml:space="preserve">
<style type="text/css">
	.st0{fill:#292B2C;}
</style>
<title>Barisal</title>
<g id="path4189">
	<g>
		<polygon class="st0" points="380,971.5 442.9,938.1 505.6,909.5 525,857.1 554,857.1 563.8,842.9 621.8,857.1 631.5,823.8 
			665.3,823.8 660.5,795.2 602.5,785.7 617,757.1 641.2,761.9 636.3,738.1 559,728.5 539.5,704.7 500.9,700 505.6,671.4 525,657.1 
			481.5,604.7 447.6,604.7 428.4,580.9 365.5,619 288,604.7 283.1,585.7 263.9,585.7 234.9,538 200.9,538 205.9,490.4 176.8,452.3 
			176.8,395.2 220.4,347.6 225.1,323.7 268.8,299.9 278.5,276.1 321.9,271.4 321.9,214.1 380,218.9 399.3,190.4 423.5,199.9 
			418.6,314.2 486.4,342.7 525,333.2 549.2,318.9 578.3,338 592.8,304.6 650.8,276.1 718.5,290.4 786.3,328.5 834.7,371.3 
			892.7,395.2 950.8,419 994.3,457.1 1023.3,523.7 994.3,557.1 946,580.9 863.8,638 820.3,680.9 815.3,714.2 757.3,723.8 791,776.2 
			776.5,814.3 781.5,857.1 800.8,885.7 742.8,890.5 689.5,919 689.5,952.4 679.8,985.7 646,976.2 617,971.5 554,942.9 520.3,961.9 
			515.3,985.7 457.4,1009.6 452.5,966.7 		"/>
	</g>
</g>
</svg>
