<?xml version="1.0" encoding="utf-8"?>
<!-- Generator: Adobe Illustrator 23.0.2, SVG Export Plug-In . SVG Version: 6.00 Build 0)  -->
<svg version="1.1" id="Layer_1" xmlns="http://www.w3.org/2000/svg" xmlns:xlink="http://www.w3.org/1999/xlink" x="0px" y="0px"
	 viewBox="0 0 1200 1200" style="enable-background:new 0 0 1200 1200;" xml:space="preserve">
<style type="text/css">
	.st0{fill:#292B2C;}
</style>
<title>Bogra</title>
<g id="g3158">
	<g>
		<g>
			<path id="path2184_12_" class="st0" d="M240,686.9l-3.7-76L221.6,600l29.4-25.3h22l11,25.3l3.7-25.3h11v21.7l25.7-32.6l18.4,18.1
				l44.1-36.2l-36.8-36.2l18.4,7.2l3.7-54.3l22,10.9L398,495l40.4,3.6v14.5h29.4l-3.7-21.7l-18.4-10.9v-21.7l18.4,3.6l22-57.9
				l25.7,14.5l-11-21.7h25.7L508,372l36.7-21.7l3.7-25.3l-14.7-3.6l14.7-14.5l40.4,7.2l25.7,14.5l7.4,32.6l33.1,7.2l7.3-18.1
				l33.1,18.1l11.1-21.7l29.4,28.9l44.1,7.2l18.4,18.1H813l11-25.3l62.5-7.2l11,18.1l11,3.6l-11,28.9h14.7l7.4,25.3L905,466
				l14.7,10.9l-7.4,18.1l14.7,21.7l3.7,25.3l-18.4,3.6v32.6l29.4,32.6h25.7l11,18.1l-7.4,10.9h-51.4l-7.4,10.8v21.7h-7.3v25.3
				l-36.7,50.6l-25.7-25.3L824,733.8l-14.7-14.5v18.3l-14.7,14.5l-3.7,28.9l14.7,7.2l-7.4,18.1l3.7,7.2l22.1-3.6l22,18.1l-14.7,18.1
				l25.7,14.5l-14.7,18h-22.1l-3.7,14.5l-22-7.2L780,864.2l-3.7,18.1h-22l-11-14.5l-29.4,14.5l-25.7,3.6l-29.4-18.1l-73.5,3.6v-18.1
				L566.9,828h-11l-22-21.7l-29.4-3.6l-14.7,10.9l7.4,28.9l-3.7,10.9L453,820.8v-14.5l14.7-10.9l-7.3-18.1l-22,18.1l-11-10.9
				L409,824.4l-25.7-50.6l18.4-21.7l-3.7-54.3l-18.4,18l-36.7-3.6l3.7-18.1l-33.1-54.3l-25.7,29l-11-14.5L240,686.9z"/>
		</g>
	</g>
</g>
</svg>
