<?xml version="1.0" encoding="utf-8"?>
<!-- Generator: Adobe Illustrator 23.0.2, SVG Export Plug-In . SVG Version: 6.00 Build 0)  -->
<svg version="1.1" id="Layer_1" xmlns="http://www.w3.org/2000/svg" xmlns:xlink="http://www.w3.org/1999/xlink" x="0px" y="0px"
	 viewBox="0 0 1200 1200" style="enable-background:new 0 0 1200 1200;" xml:space="preserve">
<style type="text/css">
	.st0{fill:#292B2C;}
</style>
<title>Brahmanbaria</title>
<g id="path4177">
	<g>
		<polygon class="st0" points="303.2,897.3 247.3,874.4 247.3,860.7 200.7,823.9 214.6,787.2 256.6,736.7 261.3,672.5 294,654 
			307.9,672.5 349.8,672.5 363.8,658.8 443,667.9 443,635.7 471,626.5 489.6,548.6 526.9,539.4 503.7,498.1 545.5,438.4 
			596.8,415.5 592.1,397.1 620.1,369.6 610.7,323.7 582.8,319.1 554.8,268.7 592.1,222.7 657.3,231.9 680.7,195.2 759.9,167.7 
			839.2,190.6 881,218.1 932.2,144.8 969.5,153.9 969.5,181.5 909,222.7 946.3,245.8 946.3,268.7 899.7,255 895,310 922.9,328.3 
			890.4,337.5 913.6,410.9 936.9,443 936.9,456.7 918.3,466 918.3,516.5 867.1,539.4 885.8,585.2 848.4,594.4 820.4,649.5 
			848.4,681.7 853.1,704.6 829.7,722.9 820.4,759.6 839.1,796.3 811.1,833 792.5,819.3 759.9,819.3 736.6,837.6 741.2,892.8 
			764.5,901.9 778.6,883.6 792.5,892.7 792.5,952.4 773.8,952.4 741.3,924.8 732,938.6 694.6,902 694.6,865.1 676,865.1 
			671.4,846.8 634.1,837.6 657.4,819.2 606.1,778 531.5,773.4 498.9,800.9 443,800.9 419.7,805.5 429,842.2 387,851.4 335.9,814.7 
			307.8,833 312.5,846.7 326.5,860.5 303.2,897.2 		"/>
	</g>
</g>
</svg>
