<?xml version="1.0" encoding="utf-8"?>
<!-- Generator: Adobe Illustrator 23.0.2, SVG Export Plug-In . SVG Version: 6.00 Build 0)  -->
<svg version="1.1" id="Layer_1" xmlns="http://www.w3.org/2000/svg" xmlns:xlink="http://www.w3.org/1999/xlink" x="0px" y="0px"
	 viewBox="0 0 1200 1200" style="enable-background:new 0 0 1200 1200;" xml:space="preserve">
<style type="text/css">
	.st0{fill:#292B2C;}
</style>
<title>Chadpur</title>
<g id="path5150">
	<g>
		<polygon class="st0" points="339.9,948.4 287.9,861.3 267,810.1 293,738.3 329.5,676.9 376.3,625.6 391.9,574.4 371.1,533.4 
			371.1,497.6 334.6,477.1 298.3,466.9 298.3,431 267,415.6 293,364.4 303.5,313.1 308.6,272.2 360.8,256.7 397.1,241.4 
			428.3,236.3 485.5,287.6 490.8,323.4 548,349 574,313.1 594.8,333.6 646.8,267 735.3,292.7 745.7,359.2 792.5,390 797.7,436.1 
			849.8,482.2 896.5,543.7 891.3,579.5 933,615.4 901.8,646.1 907,712.7 891.3,748.6 854.8,748.6 834,758.8 802.8,738.3 
			745.7,743.5 719.7,702.5 693.7,702.5 662.5,717.8 646.8,769.1 636.5,804.9 563.5,830.5 537.5,830.5 485.5,861.3 475.1,861.3 
			459.5,830.5 444,830.5 428.3,851 423,902.3 423,927.9 392,963.7 		"/>
	</g>
</g>
</svg>
