<?xml version="1.0" encoding="utf-8"?>
<!-- Generator: Adobe Illustrator 23.0.2, SVG Export Plug-In . SVG Version: 6.00 Build 0)  -->
<svg version="1.1" id="Layer_1" xmlns="http://www.w3.org/2000/svg" xmlns:xlink="http://www.w3.org/1999/xlink" x="0px" y="0px"
	 viewBox="0 0 1200 1200" style="enable-background:new 0 0 1200 1200;" xml:space="preserve">
<style type="text/css">
	.st0{fill:#292B2C;}
</style>
<title>Nawabganj</title>
<g id="g3153">
	<g>
		<g>
			<path id="path2180_12_" class="st0" d="M887.3,573L860,550.6l-31.9-9l4.6-18l63.8,13.5l-13.7-26.9h-41l-41-18l22.8-26.9l-41-9
				l-18.2,18l-36.5-18l9.1-31.5l36.5,13.5l9.1-18l50.2,4.5l13.7-18l36.5-58.4l-45.6-44.9l-13.8,40.3l-27.3,4.5l9.1-44.9L778,272
				l-27.5-4.2l-13.7,31.4l-54.7-4.5l-9.1,35.9h-13.7l-4.6,18h31.9v22.5L668.4,398l-9.1-26.9l0,0l-22.8,22.4l-9.1-22.4l-27.3-18
				L586.4,380l13.7-44.9l-45.6-31.4l4.6-26.9l-31.9-4.5l-4.6,13.5h-36.5l-36.5,22.5l-4.6,22.4l22.8,22.5l9.1,62.9L395,469.8
				l9.1,35.9l-27.4-4.5L363,514.7l-4.6,35.9l-4.6,31.4l-4.6,22.5l-22.8-4.5l-22.8,13.5l13.7,13.5l22.8,18l-4.6,18l50.1,31.4
				l-4.6,26.9l27.4,26.9L395,788.5l18.2,35.9l22.8,26.9h31.9l27.4,26.9l18.2,22.5l31.9-4.5l114,35.9H705v-22.4h-4.6l-22.8-35.9
				v-62.9L654.8,784v-40.4l54.7-26.9l36.5-4.5l0,0l50.2-31.4l-4.6-36h95.7l9.1-9l-18.2-13.4l-18.2,9l-31.9-18L887.3,573z"/>
		</g>
	</g>
</g>
</svg>
