<?xml version="1.0" encoding="utf-8"?>
<!-- Generator: Adobe Illustrator 23.0.2, SVG Export Plug-In . SVG Version: 6.00 Build 0)  -->
<svg version="1.1" id="Layer_1" xmlns="http://www.w3.org/2000/svg" xmlns:xlink="http://www.w3.org/1999/xlink" x="0px" y="0px"
	 viewBox="0 0 1200 1200" style="enable-background:new 0 0 1200 1200;" xml:space="preserve">
<style type="text/css">
	.st0{fill:#292B2C;}
</style>
<title>Chittagong</title>
<g>
	<g id="path2436">
		<g>
			<polygon class="st0" points="295.4,353.3 331.5,360.3 338.7,385.1 324.2,392.3 			"/>
		</g>
	</g>
	<g id="path2438">
		<g>
			<polygon class="st0" points="320.6,420.6 342.2,459.6 356.7,480.9 356.7,495.1 349.5,498.8 342.2,534.3 353.1,573.3 385.5,608.8 
				407.1,619.5 407.1,640.8 410.7,647.8 439.6,647.8 457.6,626.5 464.8,605.3 464.8,584 457.6,562.6 399.9,466.8 396.3,445.4 			"/>
		</g>
	</g>
	<g id="path2440">
		<g>
			<polygon class="st0" points="627.1,740.3 605.3,726 598.2,683.5 594.6,644.3 594.6,630.1 569.3,591.1 551.3,541.5 522.5,516.7 
				500.9,484.6 486.5,456.3 486.5,445.5 472,427.8 454,413.6 399.9,374.5 410.8,356.8 385.5,331.9 389.1,310.6 399.9,268 436,253.8 
				450.4,253.8 454,218.3 482.9,218.3 508.1,225.4 522.5,207.6 565.8,197 587.3,207.6 594.6,229 580.2,253.8 598.2,278.8 
				616.2,314.3 634.2,346.1 648.7,371 648.7,342.6 677.6,342.6 692,353.3 692,385.3 717.3,388.8 724.5,424.3 728.1,463.3 
				738.8,491.8 735.3,516.7 760.5,534.3 767.7,516.7 771.3,498.8 760.5,484.6 764.1,452.6 792.8,442 821.8,474 847,534.3 854.2,577 
				829,623 868.7,651.5 861.3,679.8 857.8,697.6 868.7,740.3 872.3,758 872.3,775.8 883.1,793.5 875.8,814.8 883.1,850.3 
				904.7,892.8 893.8,914.1 883.1,928.3 893.8,953.3 868.7,960.3 847,953.3 854.2,932 821.8,932 800.2,953.3 760.5,960.3 
				738.8,981.6 702.8,1003 695.6,974.5 713.6,949.8 684.8,924.8 684.8,892.8 663.1,864.5 655.8,814.8 637.8,797 			"/>
		</g>
	</g>
</g>
</svg>
