<?xml version="1.0" encoding="utf-8"?>
<!-- Generator: Adobe Illustrator 23.0.2, SVG Export Plug-In . SVG Version: 6.00 Build 0)  -->
<svg version="1.1" id="Layer_1" xmlns="http://www.w3.org/2000/svg" xmlns:xlink="http://www.w3.org/1999/xlink" x="0px" y="0px"
	 viewBox="0 0 1200 1200" style="enable-background:new 0 0 1200 1200;" xml:space="preserve">
<style type="text/css">
	.st0{fill:#292B2C;}
</style>
<g id="path6105">
	<g>
		<polygon class="st0" points="302.7,539.7 395,470.1 422.1,475.4 443.9,448.7 489.3,439 527.1,394.6 530.9,293.7 574,287.6 
			563.4,240.1 596.1,213.4 623.2,234.8 634.3,186.3 661.2,213.4 723.9,218.7 688.4,250.9 731.8,267 743.4,291.8 775.3,331.1 
			786.2,304.4 813.3,277.7 835.1,304.4 841.1,425.8 840.5,496.9 824.1,555.8 810.1,574.3 775.3,582.5 775.3,598.5 797,614.6 
			791.6,641.3 731.8,630.6 699.2,641.3 724.6,647.4 742.6,684.1 737.2,758.9 710.1,769.6 741.8,787.5 753.6,812.5 695.1,857.5 
			644.9,859.4 639.5,908.8 601.5,908.8 570.4,884.5 536.3,898.1 487.4,898.1 471.1,882 471.1,817.8 487.4,769.6 520,780.3 
			515.8,744.8 528.7,713 514.6,698.8 487.4,694.7 511.1,717.7 471.1,748.2 449.4,726.8 454.8,705.4 435.9,688.1 394.8,667.8 
			324.4,614.6 340.8,577.1 		"/>
	</g>
</g>
</svg>
