<?xml version="1.0" encoding="utf-8"?>
<!-- Generator: Adobe Illustrator 23.0.2, SVG Export Plug-In . SVG Version: 6.00 Build 0)  -->
<svg version="1.1" id="Layer_1" xmlns="http://www.w3.org/2000/svg" xmlns:xlink="http://www.w3.org/1999/xlink" x="0px" y="0px"
	 viewBox="0 0 1200 1200" style="enable-background:new 0 0 1200 1200;" xml:space="preserve">
<style type="text/css">
	.st0{fill:#292B2C;}
</style>
<title>cox&amp;apos;s bazar</title>
<g>
	<polygon class="st0" points="442.1,326.2 472.3,276.9 487.3,232.3 477.3,183.1 427.1,192.9 452.3,222.6 447.3,291.7 	"/>
	<path class="st0" d="M752.8,943l-14.4-32l9.7-19.5L737.8,860l-24.9-39.5l21.9-27.5l-37.1-46.4l-22-39.5l24-28.7l-5-24.6l-32-36.5
		l-10-44.4l35.1-39.5l5,19.7h20l10-34.5l-20-24.7l-25.1-39.5l15-24.7l-40.1-39.5l-20-49.4l20-24.7h45.1l5-34.5h25V267l-25-34.5
		l-10,24.7l-15,4.9l-40.1-19.7l-35.1-59.2l-25.1,4.9l-25.1,19.7l-55.1,29.6l-35.1,133.3l25.1,19.7l-10,39.5l-15,44.4l5,24.7h30.1
		l-5-24.7l50.1,4.9l-5-4.9l25.1-49.3l-0.8-2.1l3.5-5.8l8.8-25.9l-6.5,28.9l-10,29.6l-5,34.5l-25.1,29.6l5,19.7l30.1,39.5l15,34.5
		V642l10,79l85.2,98.7v29.6l15,34.5l20,34.5l25.1,29.6l20,54.3l15,14.8l5-24.7L752.8,943z M574.8,345.3l-4.1-20l1.8-4.1L574.8,345.3
		z M542.8,360l2.3,2.7l-1.2,16.7l-16.6-28.6L542.8,360z"/>
</g>
</svg>
