<?xml version="1.0" encoding="utf-8"?>
<!-- Generator: Adobe Illustrator 23.0.2, SVG Export Plug-In . SVG Version: 6.00 Build 0)  -->
<svg version="1.1" id="Layer_1" xmlns="http://www.w3.org/2000/svg" xmlns:xlink="http://www.w3.org/1999/xlink" x="0px" y="0px"
	 viewBox="0 0 1200 1200" style="enable-background:new 0 0 1200 1200;" xml:space="preserve">
<style type="text/css">
	.st0{fill:#292B2C;}
</style>
<title>Comilla</title>
<g>
	<g id="path3208">
		<g>
			<polygon class="st0" points="308.8,391.5 305.3,422.4 324.9,447.5 330.8,462.4 343.5,460.1 360.9,433.8 380.6,400.7 371.4,376.7 
				372.5,349.2 353.8,327.2 334.3,364.1 302.9,356.1 301.8,380.1 			"/>
			<polygon class="st0" points="308.8,391.5 305.3,422.4 324.9,447.5 330.8,462.4 343.5,460.1 360.9,433.8 380.6,400.7 371.4,376.7 
				372.5,349.2 353.8,327.2 334.3,364.1 302.9,356.1 301.8,380.1 			"/>
		</g>
	</g>
	<g id="path4179">
		<g>
			<polygon class="st0" points="357.4,466.9 386.4,414.4 396.9,398.4 382.9,375.5 387.6,336.7 424.8,352.7 441,328.7 432.8,315 
				430.5,304.7 445.6,295.5 483.9,320.7 513,312.7 509.5,288.6 526.8,284.1 565.1,285.1 586,265.8 636,269.1 627.8,267 656.8,283 
				674.3,297.9 660.3,309.3 684.8,317.3 689.3,328.7 702.1,328.7 699.8,353.8 726.5,379 732.3,390.4 731.1,420.1 739.3,439.5 
				766,467 764.8,485.3 781,491 772.8,497.8 774,511.5 807.8,537.8 825.1,593.8 842.5,649.8 845.5,669 841.3,682.9 843.6,694.3 
				867,706.9 857.6,714.9 856.5,725.2 864.5,742.3 871.5,751.5 869.3,762.9 873.8,850.9 885.5,865.7 898.3,890.9 894.8,919.4 
				869.3,934.3 836.8,917.2 808.8,918.3 767.1,912.5 746.3,898.9 725.3,897.7 701,911.4 692.8,905.7 669.6,905.7 639.5,890.9 
				624.3,864.5 623.1,866.9 604.6,865.7 591.8,847.4 614,841.7 627.8,822.3 625.5,782.3 640.5,757.2 623.1,741.2 619.8,716 
				598.8,690.9 589.5,670.3 554.8,645.2 550,622.3 525.8,606.3 516.5,561.8 470,549.2 436.3,577.8 423.6,569.8 410.8,596 396.9,596 
				365.5,578.9 365.5,557.2 364.3,557.2 349.3,541.2 327.3,519.5 345.8,509.2 344.8,487.5 			"/>
			<polygon class="st0" points="357.4,466.9 386.4,414.4 396.9,398.4 382.9,375.5 387.6,336.7 424.8,352.7 441,328.7 432.8,315 
				430.5,304.7 445.6,295.5 483.9,320.7 513,312.7 509.5,288.6 526.8,284.1 565.1,285.1 586,265.8 636,269.1 627.8,267 656.8,283 
				674.3,297.9 660.3,309.3 684.8,317.3 689.3,328.7 702.1,328.7 699.8,353.8 726.5,379 732.3,390.4 731.1,420.1 739.3,439.5 
				766,467 764.8,485.3 781,491 772.8,497.8 774,511.5 807.8,537.8 825.1,593.8 842.5,649.8 845.5,669 841.3,682.9 843.6,694.3 
				867,706.9 857.6,714.9 856.5,725.2 864.5,742.3 871.5,751.5 869.3,762.9 873.8,850.9 885.5,865.7 898.3,890.9 894.8,919.4 
				869.3,934.3 836.8,917.2 808.8,918.3 767.1,912.5 746.3,898.9 725.3,897.7 701,911.4 692.8,905.7 669.6,905.7 639.5,890.9 
				624.3,864.5 623.1,866.9 604.6,865.7 591.8,847.4 614,841.7 627.8,822.3 625.5,782.3 640.5,757.2 623.1,741.2 619.8,716 
				598.8,690.9 589.5,670.3 554.8,645.2 550,622.3 525.8,606.3 516.5,561.8 470,549.2 436.3,577.8 423.6,569.8 410.8,596 396.9,596 
				365.5,578.9 365.5,557.2 364.3,557.2 349.3,541.2 327.3,519.5 345.8,509.2 344.8,487.5 			"/>
		</g>
	</g>
</g>
</svg>
