<?xml version="1.0" encoding="utf-8"?>
<!-- Generator: Adobe Illustrator 23.0.2, SVG Export Plug-In . SVG Version: 6.00 Build 0)  -->
<svg version="1.1" id="Layer_1" xmlns="http://www.w3.org/2000/svg" xmlns:xlink="http://www.w3.org/1999/xlink" x="0px" y="0px"
	 viewBox="0 0 1200 1200" style="enable-background:new 0 0 1200 1200;" xml:space="preserve">
<style type="text/css">
	.st0{fill:#292B2C;}
</style>
<title>Dhaka</title>
<g id="path4160">
	<g>
		<polygon class="st0" points="334,780.5 356.4,754.1 356.4,710.1 432.4,701.3 459.2,683.7 557.5,705.7 535.2,626.4 579.9,586.8 
			503.9,564.8 481.5,560.4 436.8,476.8 401.1,459.2 387.7,402 338.5,371.2 374.3,344.8 298.3,336 302.7,314 302.7,287.5 
			338.5,313.9 378.7,283.1 432.4,309.5 472.6,291.9 499.4,335.9 535.2,318.3 571,309.5 584.4,331.5 606.8,265.5 647,327.1 
			611.2,357.9 642.5,366.7 709.5,375.5 714,459.2 749.8,450.4 772.1,472.4 803.4,472.4 825.7,454.8 848.1,454.8 852.6,490 
			852.6,520.8 843.6,547.2 883.8,661.6 901.7,679.2 883.8,688 807.8,723.2 839.1,776 825.7,824.5 785.5,789.2 772.1,811.2 
			758.7,868.5 727.4,859.7 745.3,806.9 705.1,784.9 682.7,758.5 615.7,745.3 588.8,784.9 584.4,806.9 579.9,868.5 557.5,894.9 
			526.2,877.3 521.8,912.5 508.4,934.5 463.7,912.5 459.2,872.9 445.8,828.9 410,806.9 		"/>
	</g>
</g>
</svg>
