<?xml version="1.0" encoding="utf-8"?>
<!-- Generator: Adobe Illustrator 23.0.2, SVG Export Plug-In . SVG Version: 6.00 Build 0)  -->
<svg version="1.1" id="Layer_1" xmlns="http://www.w3.org/2000/svg" xmlns:xlink="http://www.w3.org/1999/xlink" x="0px" y="0px"
	 viewBox="0 0 1200 1200" style="enable-background:new 0 0 1200 1200;" xml:space="preserve">
<style type="text/css">
	.st0{fill:#292B2C;}
</style>
<g id="path2174">
	<g>
		<path class="st0" d="M433.8,229.8l-16.1,15.9l-6.5,25.4l-22.6,6.4l-19.4-28.6l-6.5,22.2h-22.6l-9.7,35l16.1,9.5v9.5l-19.4-3.2
			l-29,63.6l9.7,15.9l-6.5,9.5l-25.8,3.2l-3.2-19.1l-9.7,6.4l-35.5-6.4l6.5,31.8l-16.1-6.4l-3.2,28.6l16.1,9.5l-9.7,22.2l3.2,22.2
			l32.3,25.4V554l12.9,9.5l-3.2,28.6l-12.9,6.4v25.4l19.4,12.7h29V662l22.6,15.9l9.7,22.2l38.7,3.2l22.6-6.4l6.5,15.9l29,3.2v12.7
			l45.2,6.4l12.9-12.7l16.1-9.5c0,0,38.7,15.9,29,3.2s-9.7-35-9.7-35l19.4,19.1l19.4-19.1v31.8l16.1,6.4l12.9,28.6l-12.9,31.8
			l-16.1,9.5l19.4,9.5l3.2,25.4l42,41.3l9.7-15.9l9.7,12.7V875l80.7,6.4l9.7,12.7l-3.2,22.2l35.5,19.1l32.3-6.4l16.1,25.4l45.2-6.4
			l96.8,22.2l25.8-12.7v-22.2l-25.9-28.5l-3.2-28.6l-35.5-28.6l6.5-12.7l-9.7-6.4h-16.1l-3.2-19.1h-29l-19.4-22.2l9.7-6.4
			l-32.3-19.1l-22.6-89L792,643l-48.4-9.5L721,582.7L675.8,554l-6.5-44.5l-35.5-9.5l-12.9-12.7l-19.4-3.2l9.7-35h-32.3l-3.2-76.3
			l-25.8-44.5l-29-6.4l-9.7-25.4V268l-54.9-9.5L433.8,229.8z"/>
	</g>
</g>
</svg>
