<?xml version="1.0" encoding="utf-8"?>
<!-- Generator: Adobe Illustrator 23.0.2, SVG Export Plug-In . SVG Version: 6.00 Build 0)  -->
<svg version="1.1" id="Layer_1" xmlns="http://www.w3.org/2000/svg" xmlns:xlink="http://www.w3.org/1999/xlink" x="0px" y="0px"
	 viewBox="0 0 1200 1200" style="enable-background:new 0 0 1200 1200;" xml:space="preserve">
<style type="text/css">
	.st0{fill:#292B2C;}
</style>
<title>Faridpur</title>
<g id="path5128">
	<g>
		<polygon class="st0" points="263.5,432.3 288.2,437.7 290.9,456.6 307.4,464.8 332.1,451.2 304.7,435 315.7,421.5 356.9,437.7 
			362.4,421.5 376.1,424.2 384.3,456.6 406.3,459.4 450.3,416.1 458.5,462.1 497,467.5 505.2,445.9 516.2,464.8 540.9,467.5 
			551.9,448.6 518.9,432.3 518.9,370.1 546.4,380.9 551.9,362 590.4,362 593.1,343 601.3,343 623.3,348.5 631.6,370.1 711.2,386.3 
			738.7,418.8 760.7,418.8 774.4,451.2 859.6,464.8 909.1,499.9 933.8,543.2 936.5,594.6 914.5,594.6 911.8,635.2 889.8,654.1 
			920,673 906.3,708.2 889.8,759.6 870.6,751.5 840.4,732.5 826.6,770.4 812.9,767.7 810.1,748.8 793.6,748.8 774.4,719 
			749.7,716.3 768.9,740.7 746.9,743.4 716.7,762.3 714,732.5 689.3,732.5 672.8,746.1 659,724.4 634.3,721.7 587.6,767.7 
			524.4,770.4 518.9,786.6 543.7,800.2 540.9,813.7 532.7,827.2 497,857 469.5,857 455.8,840.7 414.6,840.7 400.8,816.4 
			428.3,786.6 392.6,778.5 384.3,748.8 384.3,697.4 365.1,683.9 381.6,667.6 425.5,700.1 409.1,670.3 378.8,624.4 381.5,586.5 
			373.3,586.5 359.6,562.2 337.6,543.3 271.6,540.5 268.9,529.7 285.4,516.2 304.6,516.2 307.4,505.4 277.2,478.3 		"/>
	</g>
</g>
</svg>
