<?xml version="1.0" encoding="utf-8"?>
<!-- Generator: Adobe Illustrator 23.0.2, SVG Export Plug-In . SVG Version: 6.00 Build 0)  -->
<svg version="1.1" id="Layer_1" xmlns="http://www.w3.org/2000/svg" xmlns:xlink="http://www.w3.org/1999/xlink" x="0px" y="0px"
	 viewBox="0 0 1200 1200" style="enable-background:new 0 0 1200 1200;" xml:space="preserve">
<style type="text/css">
	.st0{fill:#292B2C;}
</style>
<title>Feni</title>
<g id="path7138">
	<g>
		<polygon class="st0" points="482.3,928.5 450.8,882.1 458.8,835.8 505.8,750.8 450.8,758.5 380.2,743 356.7,766.3 372.3,704.5 
			364.5,650.3 380.3,603.8 356.7,511.1 443,534.3 490.1,495.6 537.3,511.1 568.6,480.2 545,410.7 529.3,364.3 529.3,317.9 
			545,256.1 552.8,201.9 623.5,217.4 670.6,294.7 717.8,387.5 733.5,457.1 733.5,518.8 788.5,596.1 780.5,650.3 843.3,673.5 
			757,681.1 764.8,766.1 702,766.1 655,797 631.5,866.6 576.5,944 576.5,998 545,982.5 545,944 		"/>
	</g>
</g>
</svg>
