<?xml version="1.0" encoding="utf-8"?>
<!-- Generator: Adobe Illustrator 23.0.2, SVG Export Plug-In . SVG Version: 6.00 Build 0)  -->
<svg version="1.1" id="Layer_1" xmlns="http://www.w3.org/2000/svg" xmlns:xlink="http://www.w3.org/1999/xlink" x="0px" y="0px"
	 viewBox="0 0 1200 1200" style="enable-background:new 0 0 1200 1200;" xml:space="preserve">
<style type="text/css">
	.st0{fill:#292B2C;}
</style>
<title>Gaibandha</title>
<g id="path2177">
	<g>
		<polygon class="st0" points="306.7,693.7 375.5,717.6 407.8,701.7 415.9,673.8 383.5,630 476.6,634 440.2,598.1 468.5,594.1 
			448.3,562.3 504.9,474.5 525.2,450.6 545.4,458.6 577.8,414.9 549.4,398.9 553.4,363 517,335.1 529.2,315.3 561.5,303.3 
			593.9,311.3 598,343 630.4,327.1 610.1,299.3 658.7,271.4 691,315.1 719.3,335.1 735.5,370.9 747.6,347 771.9,347 804.3,374.9 
			804.3,390.9 824.5,410.8 784,430.8 844.8,442.6 832.6,454.6 832.6,490.5 840.7,498.5 828.6,502.5 828.6,522.5 861,526.5 
			877.1,510.4 877.1,530.5 889.3,538.5 889.3,602.2 909.5,646 913.5,673.9 885.2,713.7 865,709.7 836.6,733.6 832.6,769.5 
			804.3,809.2 780,837.1 780,857 792.1,876.9 808.3,880.9 788.1,892.9 780,916.8 771.9,900.8 727.4,896.8 691,908.8 682.9,928.7 
			662.7,928.7 654.6,912.8 593.9,900.8 577.8,880.9 565.6,876.9 553.5,892.8 533.3,880.9 521.1,876.9 513,892.9 480.6,888.9 
			468.5,849 452.3,849 440.2,837 395.7,833 379.5,852.9 355.2,833.1 355.2,821.2 322.9,777.3 310.7,777.3 294.6,757.4 286.5,737.5 
					"/>
	</g>
</g>
</svg>
