<?xml version="1.0" encoding="utf-8"?>
<!-- Generator: Adobe Illustrator 23.0.2, SVG Export Plug-In . SVG Version: 6.00 Build 0)  -->
<svg version="1.1" id="Layer_1" xmlns="http://www.w3.org/2000/svg" xmlns:xlink="http://www.w3.org/1999/xlink" x="0px" y="0px"
	 viewBox="0 0 1200 1200" style="enable-background:new 0 0 1200 1200;" xml:space="preserve">
<style type="text/css">
	.st0{fill:#292B2C;}
</style>
<title>Gazipur</title>
<g id="path2229">
	<g>
		<polygon class="st0" points="177.2,759.9 251.3,696.1 242,659.7 260.5,659.7 260.5,632.4 288.3,659.7 316.1,655.1 311.4,577.6 
			325.3,527.4 390.2,500.1 381,459 422.7,440.8 408.8,427.2 436.6,418.1 469,413.5 482.9,386.1 510.7,418.1 538.5,413.5 
			556.8,427.2 570.7,349.7 617.1,345 631,363.2 686.7,386 686.7,408.7 723.7,445.3 765.4,445.3 774.7,431.6 811.6,431.6 
			862.5,463.5 890.3,477.1 862.5,495.4 867.2,536.5 885.8,573.1 871.9,604.9 867.2,632.4 895,659.7 844.1,668.8 825.5,650.6 
			811.6,664.2 830.2,673.3 839.4,759.9 816.3,814.7 793.1,819.2 807,842 779.2,887.6 742.2,914.9 719,896.7 672.6,842 668.1,864.7 
			640.3,860.2 603.2,937.7 580.1,919.5 561.5,933.1 524.5,942.2 496.7,914.9 459.6,924 459.6,832.9 394.9,832.9 357.8,819.2 
			390.2,782.8 367.1,746.3 353.2,741.7 325.3,791.9 311.4,764.5 274.4,782.8 242,801 		"/>
	</g>
</g>
</svg>
