<?xml version="1.0" encoding="utf-8"?>
<!-- Generator: Adobe Illustrator 23.0.2, SVG Export Plug-In . SVG Version: 6.00 Build 0)  -->
<svg version="1.1" id="Layer_1" xmlns="http://www.w3.org/2000/svg" xmlns:xlink="http://www.w3.org/1999/xlink" x="0px" y="0px"
	 viewBox="0 0 1200 1200" style="enable-background:new 0 0 1200 1200;" xml:space="preserve">
<style type="text/css">
	.st0{fill:#292B2C;}
</style>
<title>Gopalganj</title>
<g id="path6099">
	<g>
		<path class="st0" d="M467.7,730.4l2.9-17.4l-41.2-23.2l-20.6-52.1l-58.9-58l41.2,2.9l23.5-57.9l5.9-31.9l-29.4-11.6l-35.3,26.1
			l-5.9-5.8l8.9-26.1V461h17.7l53-34.8l5.9-26.1L406,382.7l5.9-20.3l55.9,2.9l55.9-46.4l26.5,2.9l20.6,17.4l17.7-14.5l20.6,2.9
			l5.9,31.9l26.5-17.4l32.4-2.9l-17.7-31.9l17.7,2.9l23.5,34.8h14.7l8.8,23.2h11.8l11.8,43.5l-15,49.3l-38.3,20.3
			c0,0,11.8,26.1,0,26.1h-38.3l-17.7,63.7l35.3,20.3l14.7-26.1l20.6-11.6l38.3,23.2l14.7,14.5l32.4-29l38.3,20.3l-14.7,11.6l-2.9,29
			l38.3,11.6l-14.7,5.8v37.7H803l-11.8,26.1L756,719v26.1l-11.8,2.9v14.5l-23.5,17.4L708.8,826L697,843.4l-2.9,11.6l-29.4,5.8h-41.2
			l-5.9,31.9h-8.8l-32.4-20.3l-47.1,2.9l-41.2-23.2l-5.9-20.3l26.5-23.2l-44.1-29L467.7,730.4L467.7,730.4z"/>
	</g>
</g>
</svg>
