<?xml version="1.0" encoding="utf-8"?>
<!-- Generator: Adobe Illustrator 23.0.2, SVG Export Plug-In . SVG Version: 6.00 Build 0)  -->
<svg version="1.1" id="Layer_1" xmlns="http://www.w3.org/2000/svg" xmlns:xlink="http://www.w3.org/1999/xlink" x="0px" y="0px"
	 viewBox="0 0 1200 1200" style="enable-background:new 0 0 1200 1200;" xml:space="preserve">
<style type="text/css">
	.st0{fill:#292B2C;}
</style>
<g id="path3203">
	<g>
		<polygon class="st0" points="349,668.9 370.5,661.8 356.2,640.6 341.8,633.6 349,612.4 392,615.9 417.1,605.3 417.1,580.6 
			402.8,562.9 427.9,555.9 424.3,534.7 399.2,506.4 413.5,488.8 417.1,464 410,449.9 392,439.3 370.5,449.9 345.4,439.3 
			395.6,421.7 413.5,372.2 449.4,347.5 474.5,322.8 499.6,351 510.4,329.9 499.6,305.1 524.7,269.8 571.3,255.7 589.2,255.7 
			614.3,276.9 643,319.3 661,291 661,280.4 678.9,266.3 693.3,273.3 750.7,266.3 765,298.1 782.9,291 768.6,273.3 768.6,255.7 
			815.2,262.8 858.2,273.4 836.7,305.1 872.5,308.7 879.7,326.3 854.6,354.6 829.5,336.9 808,333.4 797.2,340.5 818.8,375.8 
			840.3,389.9 818.8,389.9 793.7,407.6 786.5,464.1 779.3,566.5 800.9,626.5 779.3,686.5 765,697.1 765,707.7 782.9,721.8 
			782.9,736 768.6,743 768.6,817.2 722,845.4 671.8,852.5 639.5,827.8 600,827.8 564.1,810.1 531.9,810.1 524.7,831.3 546.2,859.6 
			539.1,884.3 521.1,909 510.4,944.3 456.6,930.2 456.6,905.5 467.3,898.4 460.2,870.1 431.5,810.1 467.3,799.5 438.6,785.4 
			438.6,743 478.1,753.6 478.1,732.4 445.8,718.3 496,683 496,661.8 463.7,654.7 431.4,711.2 402.8,690 		"/>
	</g>
</g>
</svg>
