<?xml version="1.0" encoding="utf-8"?>
<!-- Generator: Adobe Illustrator 23.0.2, SVG Export Plug-In . SVG Version: 6.00 Build 0)  -->
<svg version="1.1" id="Layer_1" xmlns="http://www.w3.org/2000/svg" xmlns:xlink="http://www.w3.org/1999/xlink" x="0px" y="0px"
	 viewBox="0 0 1200 1200" style="enable-background:new 0 0 1200 1200;" xml:space="preserve">
<style type="text/css">
	.st0{fill:#292B2C;}
</style>
<g id="path8041">
	<g>
		<polygon class="st0" points="394.9,509.8 435.6,466.8 432.7,441 453.1,418.1 473.4,421 490.9,398.1 488,369.4 473.4,343.6 
			473.4,295 502.5,275 488,266.4 488,246.3 520,269.2 511.2,315 528.7,332.2 525.8,355.1 546.1,369.4 566.5,369.4 581,349.4 
			607.2,355.1 624.7,352.3 624.7,395.3 618.8,401 601.4,389.5 592.7,429.6 575.2,446.8 583.9,466.8 607.2,463.9 604.3,478.3 
			592.7,492.6 589.8,515.5 615.9,535.5 613,552.7 592.7,564.1 595.6,575.6 581,575.6 581,590 595.6,618.6 598.5,635.8 615.9,632.9 
			630.5,650.1 624.7,667.3 645,675.9 711.9,693.1 717.7,713.1 755.6,681.6 810.9,707.4 807.9,741.8 781.7,770.4 761.4,767.5 
			714.8,767.5 688.6,773.3 645,824.8 630.5,804.8 624.7,796.2 604.3,787.6 604.3,804.8 581,819.1 569.4,810.5 560.7,827.7 
			569.4,844.9 586.9,856.4 581,867.8 572.3,864.9 560.7,890.7 546.1,890.7 546.1,910.7 528.7,916.4 528.7,947.9 514.1,953.7 
			490.9,950.8 490.9,925.1 473.4,910.7 496.7,907.9 505.4,847.7 482.1,821.9 499.6,819.1 502.5,799.1 476.3,781.9 464.7,779 
			458.9,790.5 441.4,770.5 450.1,770.5 456,756.2 453.1,741.8 432.7,744.7 409.4,718.8 406.5,695.9 421.1,693 418.1,667.3 
			406.5,652.9 409.4,638.6 397.8,627.1 409.4,615.7 409.4,590 389.1,590 406.5,570 392,561.4 400.7,541.4 		"/>
	</g>
</g>
</svg>
