<?xml version="1.0" encoding="utf-8"?>
<!-- Generator: Adobe Illustrator 23.0.2, SVG Export Plug-In . SVG Version: 6.00 Build 0)  -->
<svg version="1.1" id="Layer_1" xmlns="http://www.w3.org/2000/svg" xmlns:xlink="http://www.w3.org/1999/xlink" x="0px" y="0px"
	 viewBox="0 0 1200 1200" style="enable-background:new 0 0 1200 1200;" xml:space="preserve">
<style type="text/css">
	.st0{fill:#292B2C;}
</style>
<title>Jhalikati</title>
<g id="path3218">
	<g>
		<path class="st0" d="M348,935.8l-29.6,23.3l-11.9-46.7l41.5-52.5l-17.8-87.6l35.6,35l41.5-23.3l23.7,23.3l71.1-46.7l5.9-35
			l-94.9-29.2l-5.9-110.9l59.3-17.5v-40.9L425,480.4l65.2-35l5.9-46.7l53.4-29.2l-5.9-17.5l29.6-11.7l5.9-29.2l-41.5-23.4l41.5-35
			l23.7-11.7l11.9,35h35.6l23.7-11.7l47.4,52.5l-17.8,23.4l-5.9,29.2l11.9,17.5h35.6L763,416l100.9,17.6l5.9,23.4l-29.7,5.8
			l-17.7,29.2l65.2,11.7l5.9,29.2l-53.4,11.7c0,0,11.9,35-11.9,35s-47.3-23.4-47.3-23.4l-17.8,23.3l-35.6-5.8l-17.8,35l-11.9,35
			l-41.5,17.5l-65.2,40.9l-41.5,29.2l-5.9,40.9l-11.8,70.1l-47.4,29.2l-23.8,52.5l-29.6,35L348,935.8L348,935.8z"/>
	</g>
</g>
</svg>
