<?xml version="1.0" encoding="utf-8"?>
<!-- Generator: Adobe Illustrator 23.0.2, SVG Export Plug-In . SVG Version: 6.00 Build 0)  -->
<svg version="1.1" id="Layer_1" xmlns="http://www.w3.org/2000/svg" xmlns:xlink="http://www.w3.org/1999/xlink" x="0px" y="0px"
	 viewBox="0 0 1200 1200" style="enable-background:new 0 0 1200 1200;" xml:space="preserve">
<style type="text/css">
	.st0{fill:#292B2C;}
</style>
<g id="path7082">
	<g>
		<polygon class="st0" points="304.9,742.3 354.4,754.5 379.2,738.2 395.7,758.5 428.7,762.6 432.8,717.9 461.7,721.9 515.3,689.4 
			511.2,669.1 478.2,648.8 494.7,640.6 503,583.7 490.6,563.4 470,551.2 494.7,539 544.3,559.3 548.3,539 531.8,518.7 527.8,506.5 
			552.5,506.5 585.5,449.6 581.3,384.6 610.3,372.4 622.6,343.9 643.3,343.9 643.3,327.7 622.6,303.3 626.8,287 651.5,299.2 
			651.5,319.6 676.3,327.7 680.5,352.1 697,352.1 713.5,327.7 742.3,339.9 763,311.4 800.3,311.4 812.5,287 862,321.7 895,327.7 
			899.1,344 957,392.7 961.1,417.1 953,429.3 940.5,429.3 932.3,445.5 944.6,457.7 948.8,474 936.3,478 936.3,502.4 952.8,510.5 
			948.8,518.7 928.1,518.7 907.5,551.2 911.6,595.9 907.5,640.6 895.1,661 878.5,677.2 858,673.2 833.1,721.9 829,750.4 
			845.5,754.5 829,766.7 829,787 808.5,807.3 792,791 783.6,803.2 796,835.7 767.1,848 697,860.1 676.3,811.4 643.3,811.4 
			626.8,774.8 651.5,758.5 610.3,742.3 593.8,730.1 581.5,742.3 606.1,774.8 564.8,774.8 531.8,791 556.7,815.4 581.5,827.6 
			548.5,831.7 494.8,815.4 482.4,819.5 507.1,835.7 494.7,864.2 482.4,884.5 478.2,904.9 408.1,904.9 366.8,884.5 366.8,913 
			325.5,908.9 317.3,888.6 284.3,884.5 263.6,872.3 263.6,852 238.9,835.7 238.9,815.4 247.1,799.2 280.1,791 276,770.7 
			304.9,742.2 		"/>
	</g>
</g>
</svg>
