<?xml version="1.0" encoding="utf-8"?>
<!-- Generator: Adobe Illustrator 23.0.2, SVG Export Plug-In . SVG Version: 6.00 Build 0)  -->
<svg version="1.1" id="Layer_1" xmlns="http://www.w3.org/2000/svg" xmlns:xlink="http://www.w3.org/1999/xlink" x="0px" y="0px"
	 viewBox="0 0 1200 1200" style="enable-background:new 0 0 1200 1200;" xml:space="preserve">
<style type="text/css">
	.st0{fill:#292B2C;}
</style>
<title>Jessore</title>
<g id="path2204">
	<g>
		<path class="st0" d="M286.6,444.2l33.3-57.5L286.6,358h25l41.6,20.5H399l-54.1-41l20.8-16.4l58.3,4.1l-29.2-32.8l12.5-20.5
			l8.3,16.4l50.1,16.4l-20.8,16.4l12.5,32.8l37.5,4.1l16.7,49.2l50-8.2l54.1-12.3L599,353.9l4.2-16.4l20.8,16.4l25-20.5l-8.3-24.6
			l16.7-8.2l54.1,36.9l20.8-4.1l4.2,20.5l25,24.6l20.8,4.1l12.5-16.4l20.8,28.7l37.5,12.3l-12.5,20.5l20.8,12.3l-12.5,12.3l4.2,49.2
			l-12.5,16.4l8.3,36.9l-37.5,4.1v12.3l20.8,8.2l4.2,16.4l-12.5,4.1l4.2,28.8l37.5-24.6h12.5l-4.2,41l25,8.2v8.2h37.5l8.3,12.3
			l-8.3,28.7l25,41c0,0,20.8,28.7,4.2,28.7h-25l-29.2-8.2l-12.5-12.3l-20.8-49.2l-12.5-12.3l-29.2,20.5l8.3,28.7l-25,36.9
			l-54.1,24.6l-4.2,20.5l16.7,20.5l-4.2,53.3l-4.2,16.5l-45.8-20.5v-20.5l-16.7-4.1l-4.2,12.3l-37.4,32.8l-25-4.1l-37.5,20.5h-25
			l-29.2-20.5l-4.2,4.1L528,899.4l-4.2-20.5l25-4.1l-29.2-36.9l25,4.1l4.2-12.3L532.1,801l-33.3-20.5l-4.2,24.6H430l-27.1-20.5
			l-20.8-12.3l0,0l16.7,39l-16.7,16.3l-62.5-8.2l-16.7-18.5l-20.8,12.3h-16.7l12.5-24.6l-50-20.5l8.4-73.8l25-8.2l-12.5-20.5v-20.5
			l-16.7-12.3l33.3-53.3l41.6-16.4l-4.2-32.8l41.6-28.7l16.7,12.3l12.5-24.6l-16.7-8.2l-4.2-20.5l-37.5,28.7L294.4,477L286.6,444.2
			L286.6,444.2z"/>
		<path class="st0" d="M286.6,444.2l33.3-57.5L286.6,358h25l41.6,20.5H399l-54.1-41l20.8-16.4l58.3,4.1l-29.2-32.8l12.5-20.5
			l8.3,16.4l50.1,16.4l-20.8,16.4l12.5,32.8l37.5,4.1l16.7,49.2l50-8.2l54.1-12.3L599,353.9l4.2-16.4l20.8,16.4l25-20.5l-8.3-24.6
			l16.7-8.2l54.1,36.9l20.8-4.1l4.2,20.5l25,24.6l20.8,4.1l12.5-16.4l20.8,28.7l37.5,12.3l-12.5,20.5l20.8,12.3l-12.5,12.3l4.2,49.2
			l-12.5,16.4l8.3,36.9l-37.5,4.1v12.3l20.8,8.2l4.2,16.4l-12.5,4.1l4.2,28.8l37.5-24.6h12.5l-4.2,41l25,8.2v8.2h37.5l8.3,12.3
			l-8.3,28.7l25,41c0,0,20.8,28.7,4.2,28.7h-25l-29.2-8.2l-12.5-12.3l-20.8-49.2l-12.5-12.3l-29.2,20.5l8.3,28.7l-25,36.9
			l-54.1,24.6l-4.2,20.5l16.7,20.5l-4.2,53.3l-4.2,16.5l-45.8-20.5v-20.5l-16.7-4.1l-4.2,12.3l-37.4,32.8l-25-4.1l-37.5,20.5h-25
			l-29.2-20.5l-4.2,4.1L528,899.4l-4.2-20.5l25-4.1l-29.2-36.9l25,4.1l4.2-12.3L532.1,801l-33.3-20.5l-4.2,24.6H430l-27.1-20.5
			l-20.8-12.3l0,0l16.7,39l-16.7,16.3l-62.5-8.2l-16.7-18.5l-20.8,12.3h-16.7l12.5-24.6l-50-20.5l8.4-73.8l25-8.2l-12.5-20.5v-20.5
			l-16.7-12.3l33.3-53.3l41.6-16.4l-4.2-32.8l41.6-28.7l16.7,12.3l12.5-24.6l-16.7-8.2l-4.2-20.5l-37.5,28.7L294.4,477L286.6,444.2
			L286.6,444.2z"/>
	</g>
</g>
</svg>
