<?xml version="1.0" encoding="utf-8"?>
<!-- Generator: Adobe Illustrator 23.0.2, SVG Export Plug-In . SVG Version: 6.00 Build 0)  -->
<svg version="1.1" id="Layer_1" xmlns="http://www.w3.org/2000/svg" xmlns:xlink="http://www.w3.org/1999/xlink" x="0px" y="0px"
	 viewBox="0 0 1200 1200" style="enable-background:new 0 0 1200 1200;" xml:space="preserve">
<style type="text/css">
	.st0{fill:#292B2C;}
</style>
<title>Jaipurhat</title>
<g id="path3152">
	<g>
		<polygon class="st0" points="457.1,898.6 451.3,795.3 462.9,783.8 468.8,657.4 433.8,623 404.6,623 392.9,646 369.6,646 
			346.4,600 346.4,571.3 363.9,565.6 369.6,479.4 334.6,473.7 352.1,462.2 328.9,416.3 357.9,387.5 352.1,347.3 363.9,266.9 
			433.9,243.9 457.1,249.7 509.6,289.9 573.8,278.4 602.9,318.6 684.6,307.1 748.8,330.1 725.3,376.1 754.6,422 783.8,445 
			824.6,502.5 818.8,519.7 871.2,554.1 871.2,577.1 836.2,605.8 812.8,617.3 836.2,651.8 801.2,663.2 812.8,686.2 777.8,669 
			748.7,749.4 725.3,749.4 725.3,795.4 742.8,812.6 737.1,835.6 707.8,829.8 707.8,812.5 643.8,812.5 637.9,772.3 597.1,755.1 
			591.3,835.5 573.8,835.5 579.6,858.5 614.6,881.5 614.6,898.7 562.1,933.1 544.6,944.6 515.4,921.6 486.2,956.1 486.2,933.1 
			457.1,933.1 457.1,956.1 445.4,938.9 404.6,938.9 404.6,904.4 		"/>
	</g>
</g>
</svg>
