<?xml version="1.0" encoding="utf-8"?>
<!-- Generator: Adobe Illustrator 23.0.2, SVG Export Plug-In . SVG Version: 6.00 Build 0)  -->
<svg version="1.1" id="Layer_1" xmlns="http://www.w3.org/2000/svg" xmlns:xlink="http://www.w3.org/1999/xlink" x="0px" y="0px"
	 viewBox="0 0 1200 1200" style="enable-background:new 0 0 1200 1200;" xml:space="preserve">
<style type="text/css">
	.st0{fill:#292B2C;}
</style>
<title>Khagrachori</title>
<g id="path4391">
	<g>
		<polygon class="st0" points="603,1049.8 646.5,994.7 646.5,951.8 665.3,890.6 752.1,829.5 727.3,713.2 789.5,682.6 777.1,627.5 
			746.1,548 758.5,498.9 714.9,456.1 777.1,382.7 702.5,217.4 665.3,223.6 621.8,150.2 603,150.2 578.3,174.6 603,278.7 615.5,346 
			596.8,370.4 596.8,407.1 559.5,395 516,431.7 472.5,505 453.8,560.1 485,615.2 490.3,692.7 482.8,712.4 460,713.2 460,731.6 
			410.5,792.7 447.6,823.4 435.3,847.8 441.5,872.3 478.8,951.8 516,1000.8 522.3,976.4 565.8,982.4 572,1019.2 		"/>
	</g>
</g>
</svg>
