<?xml version="1.0" encoding="utf-8"?>
<!-- Generator: Adobe Illustrator 23.0.2, SVG Export Plug-In . SVG Version: 6.00 Build 0)  -->
<svg version="1.1" id="Layer_1" xmlns="http://www.w3.org/2000/svg" xmlns:xlink="http://www.w3.org/1999/xlink" x="0px" y="0px"
	 viewBox="0 0 1200 1200" style="enable-background:new 0 0 1200 1200;" xml:space="preserve">
<style type="text/css">
	.st0{fill:#292B2C;}
</style>
<title>Kishorganj</title>
<g id="path5143">
	<g>
		<path class="st0" d="M369.5,707.7l-43-38.5l-11.7-42.3l-7.8-23l-3.9-30.8l27.4-15.4l3.9-50l-78.2-53.8l11.7-15.4v-19.3l31.3,3.9
			l31.3,26.9l27.4-3.8l27.4-38.5l19.5,19.2l15.6-38.5l31.3,26.9l35.2-15.4l27.4-38.5l19.5-30.8l86-15.4l-54.7,7.7l43-7.7h50.8
			l27.3,7.7l39.1-26.9l39.1,7.7l15.6,26.9l43-26.9l23.4-19.2h43l-7.8,30.8l35.2,38.5v26.9l-12,19.3l-3.9,11.5l-54.7,30.8l31.3,7.7
			l7.8-11.5l27.3,7.7l15.6,30.8l-3.9,19.2l-27.3,15.4l39.1,26.9l7.8,23.1l-27.3,3.8l-11.8,15.4l19.5,15.4v23.1l-27.4,7.6l-46.9,3.8
			l-11.7,19.2l23.5,11.6l7.8,15.4L850,688.4l-46.9,11.5l-46.9,11.5l-11.7,30.8l-50.8-3.9l-39.1,38.5v11.5l23.4,26.9l31.3,7.7
			l7.8,26.9l-7.8,19.2l-19.5,15.4c0,0,23.4,11.5-3.9,19.2s-35.1,11.9-35.1,11.9l-19.5-19.2l-11.7-26.9l-35.2,3.8L561,846.3h-31.2
			l-3.9-30.8l23.4-19.2l-46.9-11.5l-11.8-30.9l-27.4-3.8l-19.5-38.5l-23.4-23.1l-11.7,3.8l-7.8,7.7L369.5,707.7z"/>
	</g>
</g>
</svg>
