<?xml version="1.0" encoding="utf-8"?>
<!-- Generator: Adobe Illustrator 23.0.2, SVG Export Plug-In . SVG Version: 6.00 Build 0)  -->
<svg version="1.1" id="Layer_1" xmlns="http://www.w3.org/2000/svg" xmlns:xlink="http://www.w3.org/1999/xlink" x="0px" y="0px"
	 viewBox="0 0 1200 1200" style="enable-background:new 0 0 1200 1200;" xml:space="preserve">
<style type="text/css">
	.st0{fill:#292B2C;}
</style>
<title>Kurugram</title>
<g id="path3151">
	<g>
		<polygon class="st0" points="476.3,724.9 476.3,703.4 448.1,678.7 476.3,675.6 457.5,657.1 435.5,657.1 426.1,629.4 448.1,610.9 
			448.1,632.4 463.6,644.7 491.9,620.1 495.1,580 535.8,546 532.7,533.7 504.4,530.6 504.4,509 491.9,518.3 460.6,475.1 
			435.5,475.1 444.9,419.5 488.8,419.5 495.1,431.9 491.9,447.3 510.6,465.8 516.9,453.5 532.7,447.3 532.7,431.9 516.9,428.8 
			513.8,401 548.3,376.4 576.4,376.4 576.4,360.9 567.1,354.8 563.9,330.1 554.6,333.2 548.3,345.5 542.1,354.8 529.4,348.6 
			542.1,327 535.8,314.7 529.4,302.3 529.4,286.9 542.1,286.9 560.8,265.3 567.1,249.9 563.9,231.4 573.3,222.1 601.6,222.1 
			620.3,237.5 607.8,249.9 604.7,265.3 601.6,271.5 610.9,290 623.4,280.7 657.9,280.7 667.3,308.5 698.7,360.9 686.2,367.1 
			686.2,385.6 704.9,391.8 720.7,438.1 751.9,438.1 720.7,465.8 751.9,475.1 773.8,484.3 773.8,493.6 758.3,509 730.1,533.7 
			733.2,567.6 717.4,589.2 730.1,610.8 742.6,632.4 723.8,650.9 723.8,669.4 739.3,672.5 733.1,697.2 761.3,718.8 761.3,799 
			745.7,829.8 742.6,879.2 736.3,906.9 726.8,916.2 723.8,950.1 708.1,940.9 686.2,928.5 686.2,947.1 698.7,956.3 670.4,977.9 
			657.9,974.8 657.9,962.5 651.7,968.7 626.7,965.6 626.7,950.1 639.2,944 626.7,940.9 626.7,925.5 636.1,900.8 598.4,891.5 
			620.3,882.3 607.8,863.8 607.8,851.4 579.7,826.7 557.7,826.7 551.4,842.1 542.1,817.5 504.4,798.9 491.9,765 476.3,749.6 		"/>
	</g>
</g>
</svg>
