<?xml version="1.0" encoding="utf-8"?>
<!-- Generator: Adobe Illustrator 23.0.2, SVG Export Plug-In . SVG Version: 6.00 Build 0)  -->
<svg version="1.1" id="Layer_1" xmlns="http://www.w3.org/2000/svg" xmlns:xlink="http://www.w3.org/1999/xlink" x="0px" y="0px"
	 viewBox="0 0 1200 1200" style="enable-background:new 0 0 1200 1200;" xml:space="preserve">
<style type="text/css">
	.st0{fill:#292B2C;}
</style>
<title>Kushtia</title>
<g id="path3188">
	<g>
		<polygon class="st0" points="213.6,288.9 263.6,288.9 309.1,329.2 372.7,365 422.7,369.5 472.7,378.5 490.9,347.2 527.3,369.5 
			586.4,369.5 613.7,418.8 604.6,459.1 618.2,499.4 636.4,503.8 659.1,508.3 659.1,535.2 700,553.1 713.7,588.9 731.9,566.5 
			754.6,579.9 781.9,611.2 845.5,606.8 800.1,566.5 854.6,553 904.6,588.9 868.3,602.3 872.8,629.1 913.7,660.4 941,678.4 
			968.3,673.9 986.4,682.9 981.9,723.1 977.4,785.8 945.5,821.6 954.6,844 922.8,844 868.2,808.2 854.6,803.7 845.5,830.6 
			804.6,830.6 781.9,861.9 754.6,852.9 718.2,884.2 713.7,844 686.4,844 691,817.1 659.1,808.1 654.6,826 677.3,857.3 645.5,866.3 
			642.8,896.6 609.1,911.1 609.1,852.9 604.6,812.6 586.4,790.2 568.2,803.7 545.5,835 522.8,781.3 486.4,772.4 509.2,745.5 
			468.2,736.5 436.4,714.1 454.6,696.2 454.6,678.3 427.3,682.8 409.2,669.3 441,651.4 427.3,615.6 409.1,593.3 377.3,611.2 
			363.6,566.4 350,548.5 336.4,548.5 336.4,584.4 286.4,530.6 313.6,530.6 331.8,521.6 304.6,494.8 281.8,499.3 268.2,508.3 
			263.6,481.4 295.4,472.5 254.5,450.1 281.8,436.6 227.2,396.4 		"/>
	</g>
</g>
</svg>
