<?xml version="1.0" encoding="utf-8"?>
<!-- Generator: Adobe Illustrator 23.0.2, SVG Export Plug-In . SVG Version: 6.00 Build 0)  -->
<svg version="1.1" id="Layer_1" xmlns="http://www.w3.org/2000/svg" xmlns:xlink="http://www.w3.org/1999/xlink" x="0px" y="0px"
	 viewBox="0 0 1200 1200" style="enable-background:new 0 0 1200 1200;" xml:space="preserve">
<style type="text/css">
	.st0{fill:#292B2C;}
</style>
<title>Lakshmipur</title>
<g id="path6121">
	<g>
		<polygon class="st0" points="379.1,435.3 391.5,476 445.1,496.3 453.4,528.8 469.9,561.3 523.6,606 544.3,683.3 581.4,768.7 
			597.9,833.8 672.3,907 697.1,951.7 754.8,972 820.9,923.2 808.6,866.3 763.2,793.1 767.3,768.7 701.2,671.1 697.1,606 
			738.3,585.6 750.8,536.8 750.8,467.8 709.4,439.3 659.8,419 655.8,402.8 688.8,390.6 672.3,362.1 692.9,366.2 734.3,272.7 
			709.3,260.5 668.1,260.5 651.6,228 606.2,236.1 581.3,317.4 515.3,337.7 507.1,329.6 453.4,358 436.9,333.6 424.5,333.6 
			412.1,345.8 412.1,423.1 		"/>
	</g>
</g>
</svg>
