<?xml version="1.0" encoding="utf-8"?>
<!-- Generator: Adobe Illustrator 23.0.2, SVG Export Plug-In . SVG Version: 6.00 Build 0)  -->
<svg version="1.1" id="Layer_1" xmlns="http://www.w3.org/2000/svg" xmlns:xlink="http://www.w3.org/1999/xlink" x="0px" y="0px"
	 viewBox="0 0 1200 1200" style="enable-background:new 0 0 1200 1200;" xml:space="preserve">
<style type="text/css">
	.st0{fill:#292B2C;}
</style>
<g id="path2175">
	<g>
		<path class="st0" d="M381,408.8l-11.3-29.7l-30.2,22.3l-15.1-22.3l22.6-18.6l-11.3-18.6l-18.9-3.7l-11.3,11.1l-37.7-18.6
			l-7.5-33.4l37.7-55.7l34-11.1v22.3l11.3,7.4l34,11.1l22.6,22.3l49.1-3.7l11.3,26l-22.6,3.7l18.9,22.3l-18.9,22.3H483l15.1,26
			l-3.8,11.1h-22.6l-22.8-22.2v33.4l18.9,22.3l30.2,33.4l3.8,22.3l-11.3,11.1l34,66.9l60.4,11.1l30.2,29.7l3.8,22.3l-15.1,7.4
			l3.8,7.4l26.4,3.7l30.2,14.9l26.4,29.7l49.1,11.1l22.6-40.9l15.1,3.7l3.8,18.6l18.9,7.4l15.1,14.9l15.1-11.1l-7.5,70.6l30.2,3.7
			l41.5,44.6l7.5-3.7v22.3h34l3.8,11.1l-34,44.6l-18.9,3.7l3.8,44.6l-41.5,29.7l-11.3-3.7l-3.8-33.4l-11.3,3.7l-7.5,18.6L785,951
			l-22.6-7.4l-3.8,7.4l-75.5-44.6c0,0,18.9-22.3,0-26s-37.7-14.9-37.7-14.9v-26l-22.6,3.7l-34-26l-37.7-14.9l-22.6-26l-48.4-15.8
			l-23.3-36.3l-19.3-85.2l11.3-55.7v-22.3l-60.4-37.2l3.8-74.3l30.2-11.1l-18.9-26L381,408.8z"/>
	</g>
</g>
</svg>
