<?xml version="1.0" encoding="utf-8"?>
<!-- Generator: Adobe Illustrator 23.0.2, SVG Export Plug-In . SVG Version: 6.00 Build 0)  -->
<svg version="1.1" id="Layer_1" xmlns="http://www.w3.org/2000/svg" xmlns:xlink="http://www.w3.org/1999/xlink" x="0px" y="0px"
	 viewBox="0 0 1200 1200" style="enable-background:new 0 0 1200 1200;" xml:space="preserve">
<style type="text/css">
	.st0{fill:#292B2C;}
</style>
<title>Madari pur</title>
<g id="path6102">
	<g>
		<polygon class="st0" points="594.6,244.8 663.1,249.9 705.3,286.3 752.6,307 857.9,338.1 836.8,374.5 763.3,493.8 694.8,540.5 
			710.5,633.8 773.8,680.5 805.3,753 858,789.3 800.1,867.2 842.3,903.5 858,934.5 831.8,955.3 773.8,955.3 710.6,939.7 
			715.9,872.3 721.3,810 694.9,799.7 679.1,825.5 610.6,825.5 568.5,799.7 568.5,779 594.8,768.5 547.4,737.5 505.1,773.8 
			452.5,732.3 420.8,732.3 389.3,773.8 342,742.7 373.5,664.8 436.8,670 426.3,639 473.6,613 489.5,545.7 463.1,499 489.5,447 
			563.1,478.1 589.4,369.3 568.3,327.8 594.6,307 		"/>
	</g>
</g>
</svg>
