<?xml version="1.0" encoding="utf-8"?>
<!-- Generator: Adobe Illustrator 23.0.2, SVG Export Plug-In . SVG Version: 6.00 Build 0)  -->
<svg version="1.1" id="Layer_1" xmlns="http://www.w3.org/2000/svg" xmlns:xlink="http://www.w3.org/1999/xlink" x="0px" y="0px"
	 viewBox="0 0 1200 1200" style="enable-background:new 0 0 1200 1200;" xml:space="preserve">
<style type="text/css">
	.st0{fill:#292B2C;}
</style>
<g id="path8053">
	<g>
		<polygon class="st0" points="352.1,775 325.2,759.2 325.2,732.7 362.9,669 389.8,674.3 432.9,621.2 432.9,557.5 427.5,504.4 
			443.7,461.9 481.4,461.9 492.2,446 465.3,440.7 465.3,403.6 481.5,403.6 481.5,382.4 459.9,361.2 465.3,340 492.2,350.6 
			503,329.4 497.6,297.6 503,281.7 573,287 583.8,313.5 637.7,355.9 653.9,409 675.4,435.5 675.4,472.6 697,499.1 718.5,509.7 
			718.5,530.9 691.6,530.9 670.1,546.8 675.5,562.7 756.3,562.7 799.4,589.2 810.2,626.3 826.3,626.3 826.3,684.7 864,743 
			874.8,774.8 826.3,743.3 804.7,764.5 831.6,775 831.6,844 766.9,844 740.1,891.8 713.2,902.3 675.5,854.5 654,865.2 621.5,907.8 
			600,918.3 589.2,918.3 562.3,886.5 546.1,891.8 513.8,854.7 508.3,854.7 497.6,865.3 470.7,865.3 443.8,844 438.4,812.3 
			406.1,817.5 		"/>
	</g>
</g>
</svg>
