<?xml version="1.0" encoding="utf-8"?>
<!-- Generator: Adobe Illustrator 23.0.2, SVG Export Plug-In . SVG Version: 6.00 Build 0)  -->
<svg version="1.1" id="Layer_1" xmlns="http://www.w3.org/2000/svg" xmlns:xlink="http://www.w3.org/1999/xlink" x="0px" y="0px"
	 viewBox="0 0 1200 1200" style="enable-background:new 0 0 1200 1200;" xml:space="preserve">
<style type="text/css">
	.st0{fill:#292B2C;}
</style>
<title>manik ganj</title>
<g id="path3189">
	<g>
		<polygon class="st0" points="342.3,300.3 254.6,327.3 199.8,332.7 205.3,386.7 254.6,446.1 320.4,505.5 325.9,537.9 347.8,564.9 
			342.3,618.9 402.6,699.9 468.4,743.1 534.2,759.3 561.6,791.7 501.3,791.7 545.2,834.9 572.6,818.7 600,872.7 698.7,899.7 
			731.6,872.7 731.6,813.3 802.9,802.5 852.2,780.9 978.3,802.5 945.4,710.8 1000.2,651.4 890.5,629.8 852.1,581.1 824.9,521.7 
			786.5,500.1 759.1,429.9 704.3,402.9 748.2,365.1 643.9,359.7 632.9,316.5 605.6,305.7 550.8,359.7 534.4,348.9 495.9,392.1 
			479.5,365.1 457.6,413.7 424.7,402.9 397.3,381.3 380.8,402.9 358.9,370.5 		"/>
	</g>
</g>
</svg>
