<?xml version="1.0" encoding="utf-8"?>
<!-- Generator: Adobe Illustrator 23.0.2, SVG Export Plug-In . SVG Version: 6.00 Build 0)  -->
<svg version="1.1" id="Layer_1" xmlns="http://www.w3.org/2000/svg" xmlns:xlink="http://www.w3.org/1999/xlink" x="0px" y="0px"
	 viewBox="0 0 1200 1200" style="enable-background:new 0 0 1200 1200;" xml:space="preserve">
<style type="text/css">
	.st0{fill:#292B2C;}
</style>
<title>Meherpur</title>
<g id="path5134">
	<g>
		<polygon class="st0" points="622.7,256.7 700.4,339.5 706.9,275.8 745.7,314 745.7,352.2 765.1,377.7 803.9,339.5 849.2,409.6 
			790.9,447.8 829.7,479.7 868.5,467 881.4,492.5 836.3,511.6 836.3,524.3 829.8,562.5 797.4,543.5 771.5,581.6 778,639 
			719.7,645.5 721.3,766.5 667.9,822.3 617.7,830.3 583.7,855.8 557.8,849.5 473.7,919.5 460.9,938.5 367.1,943.3 376.8,874.8 
			331.5,862 318.6,836.5 351,817.5 363.9,772.8 331.5,760.1 338,690 370.4,658.1 325.1,594.5 357.5,607.1 396.3,569 396.3,556.1 
			376.9,537 383.4,467 370.4,454.2 409.2,435.1 441.6,447.9 441.6,486.1 463.9,458 503,455.8 571,384.1 613.1,379.3 627.7,341.1 
			616.3,288.6 		"/>
	</g>
</g>
</svg>
