<?xml version="1.0" encoding="utf-8"?>
<!-- Generator: Adobe Illustrator 23.0.2, SVG Export Plug-In . SVG Version: 6.00 Build 0)  -->
<svg version="1.1" id="Layer_1" xmlns="http://www.w3.org/2000/svg" xmlns:xlink="http://www.w3.org/1999/xlink" x="0px" y="0px"
	 viewBox="0 0 1200 1200" style="enable-background:new 0 0 1200 1200;" xml:space="preserve">
<style type="text/css">
	.st0{fill:#292B2C;}
</style>
<title>Munshiganj</title>
<g>
	<g id="path2235">
		<g>
			<polygon class="st0" points="237.1,607.6 260.3,524 306.6,546.8 337.5,508.8 337.5,440.3 376.1,356.8 453.3,379.5 530.5,432.8 
				507.3,508.8 553.6,516.3 576.8,432.8 669.4,493.5 746.6,508.8 762.1,546.8 793,569.5 793,622.8 785.3,668.3 746.7,729.1 
				731.2,790 677.2,729.3 576.8,729.3 499.6,706.5 437.8,706.5 368.3,691.3 			"/>
		</g>
	</g>
	<g id="path3207">
		<g>
			<polygon class="st0" points="538.2,736.8 677.2,767.3 661.8,843.3 			"/>
		</g>
	</g>
	<g id="path2237">
		<g>
			<polygon class="st0" points="775.6,506.9 787.2,531.6 806.5,564 816.2,622.8 891.5,590.5 962.9,571.5 930.1,510.8 895.3,451.8 
				825.8,455.6 			"/>
		</g>
	</g>
</g>
</svg>
