<?xml version="1.0" encoding="utf-8"?>
<!-- Generator: Adobe Illustrator 23.0.2, SVG Export Plug-In . SVG Version: 6.00 Build 0)  -->
<svg version="1.1" id="Layer_1" xmlns="http://www.w3.org/2000/svg" xmlns:xlink="http://www.w3.org/1999/xlink" x="0px" y="0px"
	 viewBox="0 0 1200 1200" style="enable-background:new 0 0 1200 1200;" xml:space="preserve">
<style type="text/css">
	.st0{fill:#292B2C;}
</style>
<title>Moulvibazar</title>
<g id="path4174">
	<g>
		<polygon class="st0" points="247.1,861.1 278.6,777 247.1,706.2 269.6,502.6 296.6,484.9 346,489.3 310,471.6 265,418.5 
			287.5,405.3 319,409.7 350.5,440.7 377.5,405.3 445,409.7 516.9,321.2 539.4,343.3 566.4,330 579.9,352.1 624.9,356.5 
			642.9,338.8 660.7,356.5 723.6,343.2 786.5,307.8 809.1,214.9 831.6,214.9 845.1,250.3 908,237 952.9,237 943.9,268 930.4,299 
			898.9,356.5 885.4,436.2 817.9,480.5 809,560.2 831.5,591.2 831.5,617.8 800,679.8 741.5,679.8 651.6,666.5 615.6,675.4 
			651.6,706.4 660.5,741.8 638,750.6 629,728.5 624.5,710.8 597.5,706.4 566,737.4 584,755.1 584,852.3 561.5,878.8 552.5,967.3 
			521,967.3 498.5,918.6 462.5,887.6 480.5,869.9 444.5,878.8 404.4,878.8 390.9,852.3 363.9,856.7 368.4,856.7 368.4,940.8 
			386.4,967.4 364,985.1 341.5,976.2 328,954.1 287.5,927.5 		"/>
	</g>
</g>
</svg>
