<?xml version="1.0" encoding="utf-8"?>
<!-- Generator: Adobe Illustrator 23.0.2, SVG Export Plug-In . SVG Version: 6.00 Build 0)  -->
<svg version="1.1" id="Layer_1" xmlns="http://www.w3.org/2000/svg" xmlns:xlink="http://www.w3.org/1999/xlink" x="0px" y="0px"
	 viewBox="0 0 1200 1200" style="enable-background:new 0 0 1200 1200;" xml:space="preserve">
<style type="text/css">
	.st0{fill:#292B2C;}
</style>
<title>Narayanganj</title>
<g id="path3206">
	<g>
		<polygon class="st0" points="415.5,814.4 361.2,731 500.3,683.4 427.7,510.7 445.9,469.1 445.9,415.4 488.2,302.3 524.5,314.2 
			530.5,284.4 603,373.8 687.8,409.5 645.3,451.2 657.5,486.9 724,445.2 748.2,475 705.8,516.7 766.3,534.5 838.8,558.3 
			832.8,582.2 814.8,635.8 772.5,671.5 760.3,725.1 718,713.2 687.8,713.2 675.7,754.9 675.7,814.4 597,850.1 566.8,879.9 
			536.5,915.6 488.2,909.6 488.2,874 445.9,903.7 409.5,874 		"/>
	</g>
</g>
</svg>
