<?xml version="1.0" encoding="utf-8"?>
<!-- Generator: Adobe Illustrator 23.0.2, SVG Export Plug-In . SVG Version: 6.00 Build 0)  -->
<svg version="1.1" id="Layer_1" xmlns="http://www.w3.org/2000/svg" xmlns:xlink="http://www.w3.org/1999/xlink" x="0px" y="0px"
	 viewBox="0 0 1200 1200" style="enable-background:new 0 0 1200 1200;" xml:space="preserve">
<style type="text/css">
	.st0{fill:#292B2C;}
</style>
<title>Nator</title>
<g id="g4167">
	<g>
		<g>
			<g id="g4150_9_">
				<path id="path3179_12_" class="st0" d="M338.5,931.9v-21.8l44.3-4.4l-8.9-21.8l-57.6-8.7l17.7-17.5l-17.7-8.7l26.6-13.1
					l-17.7-26.2l70.9-26.2l-22.2-35v-26.2l-44.3,4.4L311.9,683l57.6-39.3L360.6,504l44.3-30.6l-31-30.6h-26.6l39.9-26.2l44.3,8.8
					l17.7-34.9l-4.4-17.5h31l-4.4,21.8l26.7,21.8l35.5,4.4l31,4.4l39.9-26.2l4.4-48h-17.8v-39.3l35.5-43.7l31,52.4l17.7-43.6
					l17.7,8.7l26.6-26.2l13.3,17.5l-26.6,30.6l53.2,39.3l4.6-17.4l-17.7-21.8l22.1-21.9l39.9,8.7l26.6,21.8l26.6,21.8l13.3,30.6
					l13.3,13.1l-75.4,100.4l-44.3,52.4l26.6,13.1l8.9,26.2L826,587l4.4,83l-35.4,34.9v21.8l-22.2-4.4L733,800.8l-31,17.5h-26.6
					l-13.3,30.5l-39.9,30.6L542.4,897l-17.7-17.5l-13.3-4.4l-17.7,30.6v30.6l-53.2-4.4l-44.4-13.1l-17.7,21.8L338.5,931.9z"/>
			</g>
		</g>
	</g>
</g>
</svg>
