<?xml version="1.0" encoding="utf-8"?>
<!-- Generator: Adobe Illustrator 23.0.2, SVG Export Plug-In . SVG Version: 6.00 Build 0)  -->
<svg version="1.1" id="Layer_1" xmlns="http://www.w3.org/2000/svg" xmlns:xlink="http://www.w3.org/1999/xlink" x="0px" y="0px"
	 viewBox="0 0 1200 1200" style="enable-background:new 0 0 1200 1200;" xml:space="preserve">
<style type="text/css">
	.st0{fill:#292B2C;}
</style>
<g id="path6116">
	<g>
		<polygon class="st0" points="555.1,956.7 522.6,944.7 518.6,916.6 490.1,928.6 482,888.6 445.4,868.6 425,840.5 421,800.5 
			449.4,772.4 412.8,752.4 412.8,728.4 429.1,732.4 445.4,708.3 400.5,692.3 392.4,708.3 351.7,708.3 323.2,680.3 286.5,680.3 
			302.8,660.3 286.5,644.3 286.5,604.2 258.1,600.2 241.8,556.1 229.5,556.1 233.6,540.1 229.5,504.1 192.9,480 237.7,480 
			245.8,460 262.1,508.1 282.4,508.1 290.5,472 302.8,452 323.1,452 339.4,420 302.8,383.9 327.2,371.9 319.1,347.9 335.4,319.8 
			355.7,271.4 388.3,275.4 400.4,287.4 469.7,243.3 494.1,279.4 600,283.4 612.1,271.4 644.7,287.4 697.7,243.3 701.7,263.4 
			689.5,267.4 685.4,343.5 701.7,359.5 693.6,367.5 669.2,371.5 661,391.5 693.6,399.5 677.3,419.6 673.3,459.6 693.7,495.7 
			693.7,551.7 742.5,563.8 775,595.8 852.5,599.8 872.8,631.8 872.8,667.9 889.1,699.9 905.3,667.9 925.6,663.9 941.9,691.9 
			929.8,724 901.2,732 901.2,772 921.6,784 946.1,788 978.6,800.1 994.9,820.1 1007.1,836.1 982.6,864.2 950.1,888.2 905.3,892.2 
			836.2,936.2 823.9,916.2 775,904.2 738.5,928.2 710,924.2 653,928.2 604,928.2 555.1,956.3 		"/>
	</g>
</g>
</svg>
