<?xml version="1.0" encoding="utf-8"?>
<!-- Generator: Adobe Illustrator 23.0.2, SVG Export Plug-In . SVG Version: 6.00 Build 0)  -->
<svg version="1.1" id="Layer_1" xmlns="http://www.w3.org/2000/svg" xmlns:xlink="http://www.w3.org/1999/xlink" x="0px" y="0px"
	 viewBox="0 0 1200 1200" style="enable-background:new 0 0 1200 1200;" xml:space="preserve">
<style type="text/css">
	.st0{fill:#292B2C;}
</style>
<g id="path2215">
	<g>
		<polygon class="st0" points="437,865.6 458.9,830.6 456.3,798.3 445.3,774.1 428.9,768.7 428.9,757.9 437.1,749.8 428.9,739 
			434.4,706.7 437.1,658.2 398.8,617.8 418,593.6 379.8,558.6 404.3,531.7 409.8,499.4 390.6,483.1 409.8,469.6 418,475 
			431.8,453.4 456.3,461.5 459,448 469.9,429.1 478.1,415.6 483.6,402.1 494.5,394 508.3,375.1 522,377.9 522,367 502.8,350.9 
			500,337.4 502.8,323.9 511,334.6 538.3,318.4 541,302.3 557.5,310.4 579.3,339.9 612.1,291.5 639.5,280.6 656,288.8 658.6,312.9 
			683.3,312.9 683.3,358.8 705.1,391 705.1,404.5 691.5,423.4 688.8,439.6 708,482.8 765.5,517.8 751.8,523.2 743.5,542 
			768.1,585.2 770.8,604.1 762.6,617.6 781.8,666.1 801,674.2 814.8,679.6 820.3,687.7 798.3,698.5 798.3,722.7 782,728.1 
			768,738.9 757.1,768.5 759.8,808.9 740.6,811.6 729.8,800.8 727,814.3 718.8,814.3 721.5,833.2 691.5,862.8 669.5,876.3 
			661.3,876.3 636.8,860.2 620.3,876.4 612.1,876.4 595.8,865.6 595.8,884.5 582,897.9 576.5,876.3 565.6,870.9 541,897.8 
			524.6,903.2 511,916.7 502.8,900.5 491.8,919.4 475.5,919.4 459,905.9 453.5,914 442.6,897.8 		"/>
	</g>
</g>
</svg>
