<?xml version="1.0" encoding="utf-8"?>
<!-- Generator: Adobe Illustrator 23.0.2, SVG Export Plug-In . SVG Version: 6.00 Build 0)  -->
<svg version="1.1" id="Layer_1" xmlns="http://www.w3.org/2000/svg" xmlns:xlink="http://www.w3.org/1999/xlink" x="0px" y="0px"
	 viewBox="0 0 1200 1200" style="enable-background:new 0 0 1200 1200;" xml:space="preserve">
<style type="text/css">
	.st0{fill:#292B2C;}
</style>
<title>Noakhali</title>
<g>
	<g id="path6152">
		<g>
			<path class="st0" d="M467.5,412.5l22.1-27.2l11-43.5l-22.1-27.2l-38.6-27.2l5.5-27.2l33.1-59.8l44.2,16.3l44.2,38l44.2-16.3
				l27.6,5.4l60.7,16.3l5.5,21.8l-5.5,27.2v21.7l-16.6,48.9l49.7-5.4h27.6L738,407v27.2l11,38l-33.1-16.3l-33.1,10.9l-60.7-5.4
				L589,439.6l-16.6,21.8c0,0-16.6,16.3-38.7,5.4C511.6,455.9,473,417.9,467.5,412.5z"/>
			<path class="st0" d="M467.5,412.5l22.1-27.2l11-43.5l-22.1-27.2l-38.6-27.2l5.5-27.2l33.1-59.8l44.2,16.3l44.2,38l44.2-16.3
				l27.6,5.4l60.7,16.3l5.5,21.8l-5.5,27.2v21.7l-16.6,48.9l49.7-5.4h27.6L738,407v27.2l11,38l-33.1-16.3l-33.1,10.9l-60.7-5.4
				L589,439.6l-16.6,21.8c0,0-16.6,16.3-38.7,5.4C511.6,455.9,473,417.9,467.5,412.5z"/>
		</g>
	</g>
	<g id="path6154">
		<g>
			<polygon class="st0" points="522.7,532 583.4,532 611,564.7 633.1,602.7 616.6,635.3 577.9,651.7 550.3,646.2 544.8,597.3 
				522.7,532.1 			"/>
			<polygon class="st0" points="522.7,532 583.4,532 611,564.7 633.1,602.7 616.6,635.3 577.9,651.7 550.3,646.2 544.8,597.3 
				522.7,532.1 			"/>
		</g>
	</g>
	<g id="path6156">
		<g>
			<polygon class="st0" points="616.6,499.4 688.4,504.9 721.5,532 716,564.7 666.3,542.9 			"/>
			<polygon class="st0" points="616.6,499.4 688.4,504.9 721.5,532 716,564.7 666.3,542.9 			"/>
		</g>
	</g>
	<g id="path6158">
		<g>
			<polygon class="st0" points="715.9,662.5 660.7,646.2 660.7,575.5 704.9,597.3 721.4,624.5 			"/>
			<polygon class="st0" points="715.9,662.5 660.7,646.2 660.7,575.5 704.9,597.3 721.4,624.5 			"/>
		</g>
	</g>
	<g id="path6160">
		<g>
			<polygon class="st0" points="511.6,689.7 583.4,695.1 605.5,744.1 611,787.5 633.1,814.7 627.6,874.5 616.6,934.3 577.9,961.5 
				544.8,999.6 528.2,994.1 533.7,939.8 539.3,880 544.8,825.6 539.3,771.3 			"/>
			<polygon class="st0" points="511.6,689.7 583.4,695.1 605.5,744.1 611,787.5 633.1,814.7 627.6,874.5 616.6,934.3 577.9,961.5 
				544.8,999.6 528.2,994.1 533.7,939.8 539.3,880 544.8,825.6 539.3,771.3 			"/>
		</g>
	</g>
</g>
</svg>
