<?xml version="1.0" encoding="utf-8"?>
<!-- Generator: Adobe Illustrator 23.0.2, SVG Export Plug-In . SVG Version: 6.00 Build 0)  -->
<svg version="1.1" id="Layer_1" xmlns="http://www.w3.org/2000/svg" xmlns:xlink="http://www.w3.org/1999/xlink" x="0px" y="0px"
	 viewBox="0 0 1200 1200" style="enable-background:new 0 0 1200 1200;" xml:space="preserve">
<style type="text/css">
	.st0{fill:#292B2C;}
</style>
<title>narail</title>
<path id="path2205" class="st0" d="M357.1,430.8L327.5,390l47.4-5.8l47.4-46.7l17.8-17.5l35.6,52.5l41.5-17.5l29.6-40.8h65.2
	l17.7,46.7h47.4l5.9,11.7l-41.5,46.7l17.8,35h65.2l29.6,35v23.3l-17.8,29.2l17.8,5.8l41.5-29.2l47.4,5.8L837,565l-17.8,40.8
	l-23.7,46.7h-29.6l-47.4-11.7l77,64.2l23.7,35l23.7,58.3l65.2,40.8v29.2l-17.8,5.8L837,885.9l-136.3-52.5l-47.4,52.5l-77-40.8
	l-23.7,35h-17.8l-65.2-75.9l23.7-35l-17.8-35l-59.3-5.8l-29.6-29.2l11.9-46.7l-23.7-5.8l-53.3,52.5l11.9-46.7l-5.9-35l-35.6-11.7
	l65.2-11.7l-11.9-52.5l23.7-23.3L357.1,430.8L357.1,430.8z"/>
</svg>
