<?xml version="1.0" encoding="utf-8"?>
<!-- Generator: Adobe Illustrator 23.0.2, SVG Export Plug-In . SVG Version: 6.00 Build 0)  -->
<svg version="1.1" id="Layer_1" xmlns="http://www.w3.org/2000/svg" xmlns:xlink="http://www.w3.org/1999/xlink" x="0px" y="0px"
	 viewBox="0 0 1200 1200" style="enable-background:new 0 0 1200 1200;" xml:space="preserve">
<style type="text/css">
	.st0{fill:#292B2C;}
</style>
<title>Narshangdi</title>
<g id="path2231">
	<g>
		<polygon class="st0" points="322.1,786 376,738.3 397.6,706.5 376,669.3 408.4,669.3 430,610.8 430,552.3 419.2,499.1 
			392.2,483.3 413.8,467.4 440.8,499.2 489.4,488.6 505.6,488.6 473.2,451.4 489.4,382.3 473.2,345.1 473.2,291.9 494.8,270.6 
			527.2,275.9 564.9,243.9 613.5,323.8 651.3,339.7 678.3,382.2 732.2,403.5 737.6,419.4 705.2,435.3 732.2,467.2 694.5,477.9 
			753.8,472.6 786.2,509.8 834.8,493.9 845.6,547 878,562.8 867.2,578.8 834.8,631.8 851,679.8 824,690.3 791.6,775.5 770,791.3 
			759.2,817.8 753.8,828.5 683.6,823.3 645.8,839.1 613.5,839.1 613.5,828.5 575.7,823.1 559.5,833.8 554.1,902.8 521.8,956 
			473.2,913.5 467.8,887 457,924.1 413.8,913.6 397.6,897.8 430,881.8 413.8,844.5 376,860.5 365.2,887 349,855.1 386.8,802 
			322,786.1 		"/>
	</g>
</g>
</svg>
