<?xml version="1.0" encoding="utf-8"?>
<!-- Generator: Adobe Illustrator 23.0.2, SVG Export Plug-In . SVG Version: 6.00 Build 0)  -->
<svg version="1.1" id="Layer_1" xmlns="http://www.w3.org/2000/svg" xmlns:xlink="http://www.w3.org/1999/xlink" x="0px" y="0px"
	 viewBox="0 0 1200 1200" style="enable-background:new 0 0 1200 1200;" xml:space="preserve">
<style type="text/css">
	.st0{fill:#292B2C;}
</style>
<title>Naogaon</title>
<g id="path2179">
	<g>
		<polygon class="st0" points="804.5,617.8 804.5,592.7 841,589 833.8,524.3 848.4,520.6 844.7,445.1 822.8,409.1 815.5,409.1 
			800.9,427.1 782.5,430.8 764.3,398.4 764.3,384 779,384 790,326.5 749.8,326.5 771.7,319.3 749.8,290.5 764.4,272.5 735.2,268.9 
			720.5,268.9 673,240.1 662,265.3 636.5,283.3 629.2,283.3 611,261.8 592.7,272.5 548.9,247.4 523.3,240.1 516,254.6 446.6,250.9 
			428.3,287 410,287 410,265.4 399,254.6 388,268.9 373.4,250.9 351.6,250.9 333.3,236.6 326,250.9 300.5,261.8 300.5,261.8 
			296.9,290.5 326.1,305 326.1,315.8 300.5,326.5 300.5,377 307.8,387.8 289.5,384.1 285.9,416.5 304.2,431 289.6,449 271.3,459.8 
			271.3,481.4 253.1,485 253.1,499.4 278.7,499.4 300.6,521 304.2,560.5 315.2,560.5 315.2,546.2 318.9,531.8 333.5,531.8 
			359.1,557 359.1,571.3 333.3,614.3 315,621.5 285.8,625 282.2,635.8 249.3,628.7 238.3,650.3 263.9,664.7 278.5,657.5 
			322.3,657.5 307.7,679 326,686.3 362.5,689.8 373.5,711.5 355.2,715 336.9,707.8 322.3,707.8 318.7,718.7 344.3,725.8 
			366.2,736.7 369.8,747.5 388.1,758.3 428.3,769 428.3,794.3 446.6,801.5 468.5,772.7 486.8,797.8 483.1,837.5 497.7,851.8 
			501.3,844.7 519.5,844.7 541.5,833.8 592.5,797.8 607.2,797.8 610.9,812.3 636.5,808.7 636.5,808.7 654.8,830.3 662,823 
			687.7,823 709.5,848.3 713.3,841 735.2,837.5 746.2,851.8 746.2,887.8 764.5,902.3 782.8,905.8 823,909.5 823,931 830.3,938.3 
			844.9,938.3 848.5,927.5 848.5,941.8 870.5,941.8 877.8,963.5 892.4,945.5 903.4,949 929,927.5 929,891.3 918,884 918,858.8 
			947.2,815.7 958.2,797.7 954.5,765.3 961.8,736.5 943.5,750.8 903.3,754.5 907,722 881.4,678.8 874,678.8 844.8,707.7 833.8,704 
			800.9,732.8 797.2,653.8 782.5,646.5 		"/>
	</g>
</g>
</svg>
