<?xml version="1.0" encoding="utf-8"?>
<!-- Generator: Adobe Illustrator 23.0.2, SVG Export Plug-In . SVG Version: 6.00 Build 0)  -->
<svg version="1.1" id="Layer_1" xmlns="http://www.w3.org/2000/svg" xmlns:xlink="http://www.w3.org/1999/xlink" x="0px" y="0px"
	 viewBox="0 0 1200 1200" style="enable-background:new 0 0 1200 1200;" xml:space="preserve">
<style type="text/css">
	.st0{fill:#292B2C;}
</style>
<title>Pabna</title>
<g id="path5240">
	<g>
		<polygon class="st0" points="199.2,564.5 199.2,536.8 215.2,509.1 235.2,529 315.4,513.1 355.5,481.6 363.5,450 387.5,458 
			423.6,438.3 447.7,367.3 471.7,379 475.7,347.5 507.8,315.9 591.9,335.5 620,347.4 620,386.9 632,410.5 660.1,394.8 684.1,402.6 
			668.1,414.5 668.1,446 684.1,457.9 720.2,457.9 736.2,438.1 752.3,465.8 728.2,485.5 748.3,485.5 748.3,509.1 724.2,521 
			732.2,548.7 768.3,552.7 820.4,596 856.5,592.2 908.6,635.5 936.6,675 896.6,683 896.6,706.7 880.5,710.5 884.5,746 904.6,769.8 
			936.6,761.8 952.7,809.2 936.6,809.2 904.6,773.7 916.6,821 964.7,829 1000.8,852.5 964.7,864.3 944.7,876.3 896.6,872.3 
			848.5,852.5 792.3,868.3 756.3,884.2 660.1,825 644,785.5 595.9,734.2 575.9,734.2 591.9,773.7 571.9,797.3 527.8,789.3 
			499.8,749.8 459.7,706.5 443.6,698.5 387.5,698.5 363.5,682.8 319.4,682.8 295.3,679 263.3,706.5 263.3,686.8 231.2,675 
			215.2,643.3 223.3,592 		"/>
	</g>
</g>
</svg>
