<?xml version="1.0" encoding="utf-8"?>
<!-- Generator: Adobe Illustrator 23.0.2, SVG Export Plug-In . SVG Version: 6.00 Build 0)  -->
<svg version="1.1" id="Layer_1" xmlns="http://www.w3.org/2000/svg" xmlns:xlink="http://www.w3.org/1999/xlink" x="0px" y="0px"
	 viewBox="0 0 1200 1200" style="enable-background:new 0 0 1200 1200;" xml:space="preserve">
<style type="text/css">
	.st0{fill:#292B2C;}
</style>
<title>Panchagarh</title>
<g id="path2169">
	<g>
		<path class="st0" d="M335.6,421.1l-9.4-32.5l-9.4-23.2l23.6-32.5l18.8-41.9l18.9-55.8l37.8-55.8l9.4,60.4l4.7,32.5l37.8,37.2
			l37.8-9.3l9.4,32.5l37.8,9.3l4.7,27.9l37.8,13.9l4.7,18.6l37.8,9.3l23.6-27.9l14.2,37.2l18.9,23.2l28.3,18.6l9.5,18.6l23.6-9.3
			l14.2,13.9l-14.2,32.5l14.2,13.9l18.9,14v9.3l37.8-4.6v18.6l9.4,18.6h-61.4l4.7,41.8l-42.5,9.3l-4.7,18.5l37.8-4.6l33-14l33-27.9
			l23.6,18.6l-4.7,41.8l18.9,32.5l23.6,32.5l-9.4,32.5V858l-14.2,37.2l9.5,46.5l-23.6,32.5l-33,46.5l-37.8-9.3l-51.9-4.7l-18.9-37.2
			L694.4,951l28.3-51.1l-18.9-37.2l-23.6-27.9l-37.8-14l-18.9-18.6l-14.2-27.9l-23.6,9.3c0,0-5.9-4.7-18.9-9.3s-33-9.3-33-9.3
			l-23.6-9.3l-23.6,18.6l-37.8-9.3l-33-13.9l-28.3,18.6l-4.8,23.3c-11.3-2-22.4-5.1-33-9.3c-17.7-7-37.8-18.6-37.8-18.6l-9.4-13.9
			l33-18.6l18.9-23.2l-14.1-27.9v-65.1l51.9-4.7l18.9-18.6l18.9-27.9l42.5-13.9l9.4-32.5l23.6,37.2l23.7-14l18.9-32.5l-18.9-23.3
			l-18.9-27.9v-32.5l-33.1-27.9l-42.5,9.3L411.1,370l-23.6,18.6l-28.3-4.7L335.6,421.1z"/>
	</g>
</g>
</svg>
