<?xml version="1.0" encoding="utf-8"?>
<!-- Generator: Adobe Illustrator 23.0.2, SVG Export Plug-In . SVG Version: 6.00 Build 0)  -->
<svg version="1.1" id="Layer_1" xmlns="http://www.w3.org/2000/svg" xmlns:xlink="http://www.w3.org/1999/xlink" x="0px" y="0px"
	 viewBox="0 0 1200 1200" style="enable-background:new 0 0 1200 1200;" xml:space="preserve">
<style type="text/css">
	.st0{fill:#292B2C;}
</style>
<title>Patuakhali</title>
<g>
	<g id="path3216">
		<g>
			<polygon class="st0" points="536.7,727.6 547.6,673.4 509.1,651.6 569.7,586.5 586.2,570.2 575.3,526.7 492.6,532.2 465,516 
				387.9,559.4 376.8,532.2 382.3,478 454,461.6 465,429.2 443,380.2 487.1,331.4 520.1,326 536.7,282.6 586.2,288 602.8,239.2 
				680,217.4 685.4,179.4 724,217.4 757.1,260.8 751.5,315.1 795.7,331.4 823.2,418.3 784.7,439.9 784.7,488.8 751.5,553.9 
				729.6,613.6 718.5,646.2 729.6,722.2 630.4,754.7 			"/>
		</g>
	</g>
	<g id="path4187">
		<g>
			<polygon class="st0" points="553.2,754.7 608.3,781.8 635.8,809 641.4,852.5 624.9,901.3 597.2,939.3 536.7,912.1 520.1,950.1 
				503.6,1004.3 465,1020.6 476.1,960.9 498,917.5 498,868.7 520.1,825.3 			"/>
		</g>
	</g>
	<g id="path4190">
		<g>
			<polygon class="st0" points="663.5,781.8 713,749.3 729.6,781.8 724,819.9 691,857.8 663.5,885 			"/>
		</g>
	</g>
	<g id="path4192">
		<g>
			<polygon class="st0" points="724,874.1 674.4,922.9 657.9,971.8 702,993.4 735,955.5 724,917.5 			"/>
		</g>
	</g>
</g>
</svg>
