<?xml version="1.0" encoding="utf-8"?>
<!-- Generator: Adobe Illustrator 23.0.2, SVG Export Plug-In . SVG Version: 6.00 Build 0)  -->
<svg version="1.1" id="Layer_1" xmlns="http://www.w3.org/2000/svg" xmlns:xlink="http://www.w3.org/1999/xlink" x="0px" y="0px"
	 viewBox="0 0 1200 1200" style="enable-background:new 0 0 1200 1200;" xml:space="preserve">
<style type="text/css">
	.st0{fill:#292B2C;}
</style>
<title>pirojpur</title>
<g id="path2242">
	<g>
		<polygon class="st0" points="468,982.5 460.5,926.8 437.8,897.1 441.6,841.4 471.7,789.4 464.2,756 464.2,704 490.6,674.2 
			505.7,674.2 486.9,655.7 441.6,585.2 494.4,614.9 528.3,644.6 524.6,611.1 509.5,570.3 528.3,544.3 509.5,492.3 509.5,436.6 
			494.4,421.7 441.6,414.3 437.8,373.5 498.1,351.2 498.1,288.1 494.4,273.2 501.9,262.1 505.7,236.1 562.3,243.5 581.1,217.5 
			584.9,217.5 611.3,250.9 607.5,288 626.4,288 649,321.5 671.7,321.5 679.2,343.7 735.8,354.9 762.2,362.3 758.4,380.9 
			743.3,384.6 743.3,403.2 716.9,421.8 709.4,451.5 667.9,477.5 690.5,499.7 690.5,529.4 652.8,536.9 652.8,611.1 713.1,622.3 
			720.7,629.7 713.1,648.3 675.4,685.4 652.8,666.8 634,678 611.3,666.8 615.1,711.4 592.5,744.8 596.2,774.5 618.9,763.4 
			626.4,808 615.1,830.2 603.8,882.2 577.4,930.5 551,934.2 505.7,982.5 		"/>
	</g>
</g>
</svg>
