<?xml version="1.0" encoding="utf-8"?>
<!-- Generator: Adobe Illustrator 23.0.2, SVG Export Plug-In . SVG Version: 6.00 Build 0)  -->
<svg version="1.1" id="Layer_1" xmlns="http://www.w3.org/2000/svg" xmlns:xlink="http://www.w3.org/1999/xlink" x="0px" y="0px"
	 viewBox="0 0 1200 1200" style="enable-background:new 0 0 1200 1200;" xml:space="preserve">
<style type="text/css">
	.st0{fill:#292B2C;}
</style>
<title>Rajbari</title>
<g id="g7076">
	<g>
		<g>
			<path id="path4163_12_" class="st0" d="M269.4,468.8v-68.3l-26.7-21l32-15.7l74.6,5.2l42.7,5.2l26.7,31.5v36.8l10.7,36.8l80,47.2
				l-21.3-57.7l42.7-5.2l10.7,26.2l26.7,15.8l74.6-47.3l26.7,15.8l-5.4,26.3l26.7,31.5v-42l117.3-5.2l58.7,10.5l37.3,47.3l5.3,57.7
				l-48-36.7l-37.3-47.3H696l-5.3,21h106.6l53.3,36.8l69.3,52.5l26.7,21l21.4,10.5l-26.7,10.5l-5.5,26h-53.3l-5.3,26.3l-37.3-10.5
				v73.5l42.7,26.2l-10.7,26.3h-37.4L823.8,810l-10.7,26.3l-53.3-5.3l-10.7-63l-64,57.7h-26.6l-10.6-47.2h-21.3l-10.7,21l-53.3-26.2
				l-10.7,21l32,21l-32,15.7l-21.3-5.2v-26.3l-42.7-5.2l-21.3-57.7l-53.3-36.8l-5.3-31.5l-74.6-5.2l-10.7,15.7l-64-57.7L248,589.5
				L232,558l37.3-36.7v-52.6H269.4z"/>
		</g>
	</g>
</g>
</svg>
