<?xml version="1.0" encoding="utf-8"?>
<!-- Generator: Adobe Illustrator 23.0.2, SVG Export Plug-In . SVG Version: 6.00 Build 0)  -->
<svg version="1.1" id="Layer_1" xmlns="http://www.w3.org/2000/svg" xmlns:xlink="http://www.w3.org/1999/xlink" x="0px" y="0px"
	 viewBox="0 0 1200 1200" style="enable-background:new 0 0 1200 1200;" xml:space="preserve">
<style type="text/css">
	.st0{fill:#292B2C;}
</style>
<title>Rajshahi</title>
<g id="path3168">
	<g>
		<polygon class="st0" points="282.8,570.8 295.5,541.8 265.8,504.3 270,450.1 244.7,420.9 248.9,387.5 333.5,362.5 384.3,337.5 
			380,304.3 460.5,308.5 473,296 460.5,275.1 439.3,287.6 409.7,271 464.7,241.8 528,262.6 532.3,296 557.8,304.3 583,275.1 
			604.3,291.8 600,337.5 638,354.3 731.1,304.3 727,296 773.5,312.5 798.8,333.5 832.6,329.3 862.3,358.4 896.1,346 896.1,387.5 
			900.3,408.4 934.3,425 955.3,425 955.3,450 947,470.9 900.3,475 875,495.9 892,495.9 917.3,520.8 879.3,550 883.5,570.8 
			883.5,570.8 887.6,683.3 845.3,712.5 837,725 837,725 858,766.7 892,758.3 896.1,783.3 904.5,804.2 917.3,816.7 862.3,837.5 
			845.3,854.2 866.5,870.8 841.1,883.3 858,895.8 841.1,908.3 887.6,916.5 896.1,933.3 862.3,941.5 858,958.3 815.8,958.3 
			756.5,933.3 718.5,900 701.5,891.7 672,883.3 672,866.7 705.8,858.3 710,770.8 680.5,708.3 646.5,704.2 629.6,729.2 566.1,725 
			528,704.2 498.5,729.2 460.5,708.3 422.3,670.8 405.5,675 401.2,654.2 363.2,645.8 320.8,625 		"/>
	</g>
</g>
</svg>
