<?xml version="1.0" encoding="utf-8"?>
<!-- Generator: Adobe Illustrator 23.0.2, SVG Export Plug-In . SVG Version: 6.00 Build 0)  -->
<svg version="1.1" id="Layer_1" xmlns="http://www.w3.org/2000/svg" xmlns:xlink="http://www.w3.org/1999/xlink" x="0px" y="0px"
	 viewBox="0 0 1200 1200" style="enable-background:new 0 0 1200 1200;" xml:space="preserve">
<style type="text/css">
	.st0{fill:#292B2C;}
</style>
<title>Rangamati</title>
<g id="path8281">
	<g>
		<polygon class="st0" points="449.8,679.9 443,645.9 460.3,625.5 474,601.7 477.5,560.9 529.3,523.6 525.8,503.2 519,465.8 
			550,442 543,414.8 532.8,370.6 532.8,346.8 508.5,312.8 539.7,272 525.8,238.1 501.7,176.9 508.5,166.7 536.2,139.5 553.5,139.5 
			563.8,156.5 570.6,183.7 577.5,159.9 584.5,146.3 601.8,153.1 591.3,176.9 598.3,200.8 605.1,217.7 612,278.9 629.3,302.7 
			639.8,323.1 632.8,336.7 643.1,346.9 646.6,360.4 622.5,377.4 625.8,404.6 629.3,428.4 632.8,445.4 646.6,462.4 636.3,516.8 
			650,543.9 677.6,557.5 670.8,574.5 681.1,615.3 701.8,635.7 705.3,662.9 712.1,696.9 701.8,703.7 712.1,737.6 719,778.4 
			726,812.4 726,832.8 732.8,860 739.8,887.2 739.8,917.8 722.5,911 732.8,948.3 746.6,1002.7 757,1036.7 743.3,1060.5 
			736.3,1043.5 726,1012.9 715.6,978.9 698.3,944.9 701.8,934.8 695,907.6 681.1,860 667.3,846.4 632.8,822.6 588,812.4 556.8,826 
			536.2,809 522.3,788.6 532.8,761.4 529.3,734.2 512,700.2 491.3,669.7 481,673.1 467.2,693.5 477.5,720.7 470.7,734.2 
			456.8,717.3 		"/>
	</g>
</g>
</svg>
