<?xml version="1.0" encoding="utf-8"?>
<!-- Generator: Adobe Illustrator 23.0.2, SVG Export Plug-In . SVG Version: 6.00 Build 0)  -->
<svg version="1.1" id="Layer_1" xmlns="http://www.w3.org/2000/svg" xmlns:xlink="http://www.w3.org/1999/xlink" x="0px" y="0px"
	 viewBox="0 0 1200 1200" style="enable-background:new 0 0 1200 1200;" xml:space="preserve">
<style type="text/css">
	.st0{fill:#292B2C;}
</style>
<g id="path2176">
	<g>
		<polygon class="st0" points="649.3,987.6 649.3,952.4 591.1,912.8 604.5,890.8 568.7,882 568.7,864.4 524,860 488.2,829.2 
			510.6,824.8 452.4,794 416.6,631 345,613.4 313.7,542.9 260,512.1 242.2,441.4 286.9,397.4 273.5,353.4 322.7,340.2 398.8,353.4 
			412.2,318.2 456.9,353.4 452.4,300.5 497.1,256.5 515,291.7 568.7,212.4 635.8,256.4 667.1,256.4 667.1,287.2 716.3,304.8 
			734.2,344.4 805.8,388.4 814.7,370.8 868.4,397.2 881.8,410.4 877.3,423.6 917.6,432.4 931,450 890.7,467.6 926.5,480.8 
			939.9,498.4 939.9,529.2 926.5,538 926.5,560 953.3,573.2 957.8,586.4 939.9,599.6 904.3,626.4 917.7,648.4 895.3,661.6 
			881.9,639.6 855.1,630.8 850.6,644 814.8,639.6 796.9,661.6 841.6,701.2 837.1,732 863.9,749.6 832.7,789.4 801.4,793.8 
			770.1,829 725.4,912.7 725.4,921.5 738.8,943.5 716.4,952.3 765.6,987.5 		"/>
	</g>
</g>
</svg>
