<?xml version="1.0" encoding="utf-8"?>
<!-- Generator: Adobe Illustrator 23.0.2, SVG Export Plug-In . SVG Version: 6.00 Build 0)  -->
<svg version="1.1" id="Layer_1" xmlns="http://www.w3.org/2000/svg" xmlns:xlink="http://www.w3.org/1999/xlink" x="0px" y="0px"
	 viewBox="0 0 1200 1200" style="enable-background:new 0 0 1200 1200;" xml:space="preserve">
<style type="text/css">
	.st0{fill:#292B2C;}
</style>
<title>satkhira</title>
<g>
	<g id="path2206">
		<g>
			<polygon class="st0" points="512,121.3 530.1,144.2 517.3,159.5 501.8,149.3 481,151.9 470.8,141.7 447.5,154.4 452.6,174.8 
				468.1,192.6 475.8,179.9 486.3,185 483.6,197.7 493.9,202.8 491.3,218.1 475.8,233.3 486.3,243.5 475.8,246.1 473.3,269 
				457.8,261.4 463,284.4 483.6,312.4 460.3,355.6 486.1,373.5 481,388.6 475.8,409 499.1,426.9 493.9,449.8 509.5,475.3 512,503.3 
				522.4,510.9 499.1,518.5 501.8,533.8 512,541.5 501.8,584.8 527.5,587.3 532.8,607.7 512,602.5 512,615.3 527.5,633 543.1,635.7 
				543.1,658.5 561.1,673.8 563.8,707 587,701.8 568.9,727.3 545.6,727.3 543.1,747.7 550.8,773 574.1,813.8 566.3,819 563.8,880 
				581.8,903 584.4,936 587,953.8 618,969.2 641.3,959 656.8,989.5 651.6,1002.3 667.3,1017.5 656.8,1040.4 633.6,1065.8 
				664.6,1078.7 695.6,1070.9 690.4,1058.3 708.5,1058.3 711.1,1042.9 698.3,1035.3 708.5,1020 708.5,969.2 698.3,964 720.3,946.3 
				737,897.8 752.5,882.5 744.8,859.7 724.1,821.5 703.3,780.8 695.6,763 713.8,745.2 669.8,745.2 695.6,709.5 708.5,681.5 
				718.9,617.8 693,577 693,564.3 708.5,551.7 682.8,533.8 685.3,485.5 708.6,472.8 685.3,429.5 687.9,370.9 703.4,353 716.3,376 
				731.8,355.6 726.6,342.9 711.1,340.4 700.8,330.1 711.1,309.8 716.3,320 729.3,325 734.4,307.3 747.3,299.6 744.8,286.9 
				721.4,248.6 695.6,235.9 682.8,213 677.5,205.3 656.8,220.6 638.8,223.2 623.3,207.9 615.5,213 605.1,190.1 620.6,185 
				597.3,162.1 618,167.2 607.8,136.6 592.3,126.5 589.6,144.3 548.3,144.3 512,121.4 			"/>
		</g>
	</g>
	<g id="path2208">
		<g>
			<polygon class="st0" points="556,867.3 532.8,877.5 537.9,897.8 553.4,920.8 540.5,964 543.1,979.3 563.8,984.3 587,1017.5 
				607.8,1020 615.5,1004.8 612.9,989.5 602.5,976.8 584.4,974.3 566.3,959 568.9,915.7 			"/>
		</g>
	</g>
</g>
</svg>
