<?xml version="1.0" encoding="utf-8"?>
<!-- Generator: Adobe Illustrator 23.0.2, SVG Export Plug-In . SVG Version: 6.00 Build 0)  -->
<svg version="1.1" id="Layer_1" xmlns="http://www.w3.org/2000/svg" xmlns:xlink="http://www.w3.org/1999/xlink" x="0px" y="0px"
	 viewBox="0 0 1200 1200" style="enable-background:new 0 0 1200 1200;" xml:space="preserve">
<style type="text/css">
	.st0{fill:#292B2C;}
</style>
<title>Shariatpur</title>
<g>
	<g id="path5131">
		<g>
			<polygon class="st0" points="694,873.3 604.5,899.7 550.8,935 532.8,979.1 471.8,933.5 425.4,873.3 452.3,820.4 488.1,767.5 
				434.3,714.6 389.6,635.3 326.9,591.2 300,476.6 380.6,414.9 443.3,300.3 497,220.9 586.6,229.7 667.1,291.4 703,353.2 
				837.3,353.2 864.1,414.9 873.1,476.6 900,573.6 864.1,652.9 811.5,692.9 845.8,746.2 729.8,776.3 			"/>
		</g>
	</g>
	<g id="path7073">
		<g>
			<polygon class="st0" points="800.3,765.8 749.6,773.2 718,831.7 743.3,882.9 813,875.6 863.5,934.2 889,897.6 876.3,831.7 
				851,787.8 800.3,765.9 			"/>
		</g>
	</g>
</g>
</svg>
