<?xml version="1.0" encoding="utf-8"?>
<!-- Generator: Adobe Illustrator 23.0.2, SVG Export Plug-In . SVG Version: 6.00 Build 0)  -->
<svg version="1.1" id="Layer_1" xmlns="http://www.w3.org/2000/svg" xmlns:xlink="http://www.w3.org/1999/xlink" x="0px" y="0px"
	 viewBox="0 0 1200 1200" style="enable-background:new 0 0 1200 1200;" xml:space="preserve">
<style type="text/css">
	.st0{fill:#292B2C;}
</style>
<title>Sirajganj</title>
<g id="g5219">
	<g>
		<g>
			<path id="path4248_12_" class="st0" d="M372,665.8v-53.4L353.9,598v-14.3l-25.3-21.4l97.7-117.6l-7.2-14.3h65.1l25.3,21.4h25.3
				l32.6-17.8l28.9,14.3l7.2-25l14.5,28.5l25.3,7.1v-17.7h18.1l18.1-14.3l-28.9-17.8l14.5-14.3l-25.3-21.4l-21.7,3.6l-7.2-3.6
				l18.1-17.8L610.8,345l10.9-39.2v-24.9l18.1,17.8l21.7-7.1l21.7,21.4l47.1-49.9l-7.2-21.4l7.2-35.6l43.4,3.6l14.5,17.8l10.9,10.7
				l7.2-14.3h10.8l18.1,17.8l10.9,3.6l3.6,21.4l-21.7,3.5l-3.6,10.8l21.7,17.8v53.4l-7.2,28.5h-21.8l18.1,21.4l3.6,24.9l-18.1,10.7
				l-3.6,21.4l-14.5-3.6l-18.1,21.4l18.1,24.9v28.5l-25.4,18L766.3,566l50.7,53.5L795.3,641l3.6,14.3l25.3,17.8l18.1,28.5
				l-7.2,103.3l10.9,14.3l-10.9,10.7v14.3l10.9,3.6l14.5,14.3v10.7l10.9,10.7l-3.6,42.8l-25.3,49.9l-47,17.8h-25.3l-29-35.8
				L697.8,926h-32.7l-47.1-39.3l-36.2-7.1l-3.6-17.8l18.1-7.1l3.6-24.9l-14.5-7.1l10.9-7.1v-14.3l-14.5-17.8l-10.9,7.1l-32.6,7.1
				l-10.9-7.1v-24.9l14.5-7.1c0,0,0-21.4-14.5-21.4h-18.1l-10.9,17.8h-7.2l-7.2-21.4v-28.5l-32.6-21.4l-28.9-7.1L372,665.8z"/>
		</g>
	</g>
</g>
</svg>
