<?xml version="1.0" encoding="utf-8"?>
<!-- Generator: Adobe Illustrator 23.0.2, SVG Export Plug-In . SVG Version: 6.00 Build 0)  -->
<svg version="1.1" id="Layer_1" xmlns="http://www.w3.org/2000/svg" xmlns:xlink="http://www.w3.org/1999/xlink" x="0px" y="0px"
	 viewBox="0 0 1200 1200" style="enable-background:new 0 0 1200 1200;" xml:space="preserve">
<style type="text/css">
	.st0{fill:#292B2C;}
</style>
<title>Sunamganj</title>
<g id="path2228">
	<g>
		<polygon class="st0" points="490,852.3 490,827.5 534,790.4 515.2,759.4 474.3,747 452.3,734.7 458.6,706.8 477.5,697.5 
			486.9,675.8 474.3,654.2 464.9,648 442.9,679 430.3,657.3 433.4,632.5 414.6,604.7 361.2,598.5 339.2,570.7 295.2,564.5 
			295.2,524.3 282.6,496.4 282.6,462.4 298.3,446.9 266.9,437.6 273.2,425.3 304.6,422.2 288.9,403.6 295.2,344.8 301.5,329.3 
			351.8,320 386.3,320 430.3,329.3 515.2,313.8 593.7,354.1 606.3,338.6 644,351 684.8,375.7 713.1,375.7 725.7,363.4 747.7,369.5 
			794.8,344.8 794.8,369.5 810.5,372.6 820,391.2 867.1,378.8 886,381.9 879.7,400.5 904.8,422.2 908,450 892.3,468.6 892.3,477.8 
			926.9,511.8 923.7,524.2 914.3,527.3 914.3,536.5 933.1,545.9 933.1,570.5 914.2,607.8 914.2,617 933.1,641.8 901.7,648 
			886,666.5 904.9,706.8 886,713 904.9,740.9 876.6,796.5 829.4,790.4 826.3,805.8 835.7,815 823.2,824.4 810.6,808.9 785.4,808.9 
			744.6,799.7 732,812 744.6,824.4 722.6,843 678.6,809 675.4,790.4 650.3,787.3 622,812 593.7,827.5 596.9,852.3 590.6,867.7 
			571.7,855.3 543.4,880 518.3,886.3 		"/>
	</g>
</g>
</svg>
