<?xml version="1.0" encoding="utf-8"?>
<!-- Generator: Adobe Illustrator 23.0.2, SVG Export Plug-In . SVG Version: 6.00 Build 0)  -->
<svg version="1.1" id="Layer_1" xmlns="http://www.w3.org/2000/svg" xmlns:xlink="http://www.w3.org/1999/xlink" x="0px" y="0px"
	 viewBox="0 0 1200 1200" style="enable-background:new 0 0 1200 1200;" xml:space="preserve">
<style type="text/css">
	.st0{fill:#292B2C;}
</style>
<title>Sylhet</title>
<g id="path2230">
	<g>
		<polygon class="st0" points="243.9,822.9 281.9,758.3 257.7,727.6 278.5,724.2 261.2,676.5 285.4,656.1 313.1,656.1 285.4,622.1 
			309.6,581.2 313.1,547.2 285.4,530.2 302.7,513.1 268.1,472.3 268.1,458.7 281.9,445.1 281.9,411 254.3,387.2 257.8,370.2 
			237,353.2 247.4,336.2 257.7,336.2 288.9,346.4 309.6,322.5 413.3,325.9 475.5,315.7 499.8,336.2 520.5,309 575.8,309 
			613.8,322.6 645,360 658.8,356.6 672.6,366.8 686.5,360 710.7,373.6 710.7,390.6 727.9,394 769.4,414.4 797.1,421.2 807.5,411 
			821.3,411 821.3,438.2 859.3,448.4 893.9,468.9 887,489.3 900.8,519.9 931.9,530.2 918.1,547.2 949.2,550.6 963,571 959.6,622.1 
			945.8,622.1 931.9,615.3 911.2,635.8 869.7,632.4 810.9,622.2 776.3,632.4 748.7,649.3 772.9,676.5 769.4,700.4 738.3,758.2 
			714.1,758.2 662.3,765 648.4,737.8 631.1,737.8 627.7,761.7 613.8,805.9 579.3,833.1 562,840 520.5,850.2 503.2,836.6 
			482.5,850.2 458.3,846.8 447.9,829.7 423.7,843.4 406.4,826.3 385.6,850.2 358,887.6 302.7,891 292.3,867.2 257.7,863.8 
			271.6,843.3 		"/>
	</g>
</g>
</svg>
