<?xml version="1.0" encoding="utf-8"?>
<!-- Generator: Adobe Illustrator 23.0.2, SVG Export Plug-In . SVG Version: 6.00 Build 0)  -->
<svg version="1.1" id="Layer_1" xmlns="http://www.w3.org/2000/svg" xmlns:xlink="http://www.w3.org/1999/xlink" x="0px" y="0px"
	 viewBox="0 0 1200 1200" style="enable-background:new 0 0 1200 1200;" xml:space="preserve">
<style type="text/css">
	.st0{fill:#292B2C;}
</style>
<title>Tangail</title>
<g id="path2215">
	<g>
		<polygon class="st0" points="390.5,941.5 418.7,896.5 415.2,854.8 401,823.6 380,816.7 380,802.8 390.5,792.4 380,778.6 
			387,736.9 390.5,674.5 341.3,622.5 365.8,591.3 316.5,546.3 348.3,511.6 355.3,470 330.7,449.2 355.3,431.9 365.8,438.8 
			383.5,411.1 415.2,421.5 418.7,404.1 432.8,379.9 443.3,362.5 450.3,345.2 464.5,334.8 482,310.4 499.7,313.9 499.7,300.1 
			475,279.3 471.5,261.9 475,244.6 485.5,258.5 520.8,237.7 524.3,216.9 545.5,227.3 573.7,265.4 615.9,203 651,189.1 672.3,199.5 
			675.8,230.7 707.4,230.7 707.4,289.7 735.5,331.3 735.5,348.6 718,372.9 714.5,393.7 739,449.2 813,494.2 795.5,501.1 
			784.9,525.4 816.5,580.9 820.2,605.2 809.5,622.5 834.2,684.9 858.9,695.3 876.5,702.3 883.5,712.7 855.4,726.6 855.4,757.8 
			834.2,764.7 816.5,778.6 802.5,816.7 806,868.7 781.4,872.2 767.2,858.3 763.7,875.7 753.3,875.7 756.8,899.9 718,938 
			689.9,955.3 679.3,955.3 647.5,934.6 626.5,955.4 615.9,955.4 594.8,941.5 594.8,965.8 577.2,983.1 570,955.4 556,948.4 
			524.4,983.1 503.2,990.1 485.5,1007.4 475,986.6 460.8,1010.9 439.8,1010.9 418.7,993.5 411.7,1003.9 397.5,983.1 		"/>
	</g>
</g>
</svg>
