<?xml version="1.0" encoding="utf-8"?>
<!-- Generator: Adobe Illustrator 23.0.2, SVG Export Plug-In . SVG Version: 6.00 Build 0)  -->
<svg version="1.1" id="Layer_1" xmlns="http://www.w3.org/2000/svg" xmlns:xlink="http://www.w3.org/1999/xlink" x="0px" y="0px"
	 viewBox="0 0 1200 1200" style="enable-background:new 0 0 1200 1200;" xml:space="preserve">
<style type="text/css">
	.st0{fill:#292B2C;}
</style>
<g id="path2192">
	<g>
		<polygon class="st0" points="300.9,823.8 276,779.5 246.1,740.3 266,696 216.1,686.3 231.1,607.8 266,583.3 261,553.8 
			280.9,514.5 340.8,475.2 360.6,421.2 315.8,396.7 340.6,352.5 350.6,308.3 405.4,288.7 405.4,239.6 480.3,249.4 535.1,234.7 
			609.8,283.8 624.8,244.4 675.8,233.9 719.6,249.4 759.4,244.4 859.2,269 899.1,313.2 933.9,327.9 983.8,386.8 948.9,435.9 
			958.9,470.3 934.1,494.8 924.1,534 889.2,534 864.3,494.8 849.3,524.3 819.3,524.3 804.3,578.3 824.3,597.8 799.3,602.8 
			769.4,651.8 759.4,681.3 744.4,710.8 764.3,735.3 734.4,740.3 714.6,740.3 714.6,715.8 649.8,720.6 649.8,760 624.8,760 
			619.8,809 649.8,823.8 629.8,843.3 629.8,887.5 654.8,902.3 684.7,926.8 679.7,961.1 644.8,966 614.8,936.5 590.2,922 
			590.2,902.3 555.3,868 525.3,868 515.3,833.5 460.5,804 465.5,779.5 460.5,764.8 415.6,779.5 385.8,804 360.9,774.5 		"/>
	</g>
</g>
</svg>
