<?xml version="1.0" encoding="utf-8"?>
<!-- Generator: Adobe Illustrator 23.0.2, SVG Export Plug-In . SVG Version: 6.00 Build 0)  -->
<svg version="1.1" id="Layer_1" xmlns="http://www.w3.org/2000/svg" xmlns:xlink="http://www.w3.org/1999/xlink" x="0px" y="0px"
	 viewBox="0 0 1200 1200" style="enable-background:new 0 0 1200 1200;" xml:space="preserve">
<style type="text/css">
	.st0{fill:#292B2C;}
</style>
<title>Bhola</title>
<g>
	<g id="path5169">
		<g>
			<path class="st0" d="M428,792.5l42.4-46.4l37.7-55.7l4.7-83.5l-4.7-60.3l-18.8-51l-18.8-51v-51l-33-27.8l-33-37.1l4.7-41.7
				l28.3-46.4l42.5-23.2l18.8-23.2l65.9-4.6l14.1,51l28.3,102l47.1,55.6l33,41.7l18.8,27.8l-4.7,51l-14.1,13.9v60.3l-18.8,41.7
				l-9.4,32.5l-9.4,41.7V783l-33,23.2l-19,37.3L541.1,862l-4.7,27.8l-28.3,13.9l-37.7,23.2c0,0-14.1-4.6-14.1-23.2
				S442.2,862,442.2,862l23.5-32.5L428,792.5L428,792.5z"/>
			<path class="st0" d="M428,792.5l42.4-46.4l37.7-55.7l4.7-83.5l-4.7-60.3l-18.8-51l-18.8-51v-51l-33-27.8l-33-37.1l4.7-41.7
				l28.3-46.4l42.5-23.2l18.8-23.2l65.9-4.6l14.1,51l28.3,102l47.1,55.6l33,41.7l18.8,27.8l-4.7,51l-14.1,13.9v60.3l-18.8,41.7
				l-9.4,32.5l-9.4,41.7V783l-33,23.2l-19,37.3L541.1,862l-4.7,27.8l-28.3,13.9l-37.7,23.2c0,0-14.1-4.6-14.1-23.2
				S442.2,862,442.2,862l23.5-32.5L428,792.5L428,792.5z"/>
		</g>
	</g>
	<g id="path5171">
		<g>
			<polygon class="st0" points="456.4,987.2 479.9,954.8 508.1,991.9 489.4,1010.4 			"/>
			<polygon class="st0" points="456.4,987.2 479.9,954.8 508.1,991.9 489.4,1010.4 			"/>
		</g>
	</g>
	<g id="path5173">
		<g>
			<polygon class="st0" points="762.4,574.5 743.7,634.8 720.2,704.4 720.2,769.3 767.3,820.3 767.3,699.7 790.8,639.4 795.4,606.9 
							"/>
			<polygon class="st0" points="762.4,574.5 743.7,634.8 720.2,704.4 720.2,769.3 767.3,820.3 767.3,699.7 790.8,639.4 795.4,606.9 
							"/>
		</g>
	</g>
	<g id="path5175">
		<g>
			<polygon class="st0" points="526.9,917.7 512.8,954.8 559.9,954.8 			"/>
			<polygon class="st0" points="526.9,917.7 512.8,954.8 559.9,954.8 			"/>
		</g>
	</g>
</g>
</svg>
