<svg id="BD_XXX_District_locator_map" data-name="BD XXX District locator map" xmlns="http://www.w3.org/2000/svg" viewBox="0 0 400 400"><defs><style>.cls-1{fill:#292b2c;stroke:#fff;stroke-width:2px;}</style></defs><title>Bangladesh_divisions_bn</title><g id="Barisal"><path id="path2242" class="cls-1" d="M90.35,260.1l-1.59-11.74L84,242.11l.8-11.74,6.35-11-1.59-7V201.43l5.56-6.26h3.18l-4-3.91L84.79,176.4l11.12,6.25,7.15,6.26-.8-7-3.18-8.6,4-5.48-4-10.95V145.1L95.91,142l-11.12-1.57L84,131.8l12.71-4.69v-13.3l-.79-3.13,1.59-2.34.79-5.48,11.92,1.57,4-5.48h.8l5.56,7-.8,7.82h4l4.77,7h4.77l1.59,4.69,11.91,2.35,5.56,1.56-.79,3.91-3.18.79v3.91L142.78,142l-1.59,6.26-8.74,5.47,4.77,4.7v6.26l-7.95,1.56v15.65L142,184.22l1.59,1.57L142,189.7,134,197.52l-4.77-3.91-4,2.35-4.76-2.35.79,9.39-4.77,7,.8,6.26,4.76-2.35,1.59,9.39-2.38,4.7L119,239l-5.56,10.17-5.57.78-9.53,10.17H90.35Z"/><path id="path3218" class="cls-1" d="M122.12,214l-4,3.13-1.59-6.26,5.56-7L119.74,192l4.77,4.7,5.56-3.13,3.18,3.13,9.53-6.26.79-4.7-12.71-3.91L130.07,167l7.94-2.35v-5.47l-5.56-6.26,8.74-4.7L142,142l7.15-3.92-.79-2.35,4-1.56.79-3.91-5.56-3.13,5.56-4.69,3.18-1.57,1.59,4.7h4.77l3.17-1.57,6.36,7-2.38,3.13-.8,3.91,1.59,2.35h4.77l2.38,3.91,13.51,2.35.79,3.13-4,.78-2.39,3.91,8.74,1.57.8,3.91-7.15,1.56s1.59,4.7-1.59,4.7-6.36-3.13-6.36-3.13l-2.38,3.13-4.77-.78-2.38,4.69L169,174.83l-5.56,2.35-8.74,5.48-5.56,3.91-.79,5.48-1.59,9.39-6.36,3.91-3.18,7-4,4.69L122.12,214Z"/><path id="path4189" class="cls-1" d="M149.13,185l10.33-5.47,10.33-4.7,3.18-8.6h4.76l1.59-2.35,9.53,2.35,1.59-5.48H196l-.79-4.69-9.53-1.57,2.38-4.69,4,.78-.79-3.91-12.71-1.57-3.18-3.91-6.36-.78.8-4.7,3.17-2.34-7.15-8.61h-5.56l-3.17-3.91-10.33,6.26L134,124.76l-.79-3.13h-3.18l-4.77-7.82h-5.56l.79-7.83-4.76-6.25V90.34l7.15-7.83.79-3.91,7.15-3.91,1.59-3.91L139.6,70V60.61l9.53.78,3.18-4.7,4,1.57L155.49,77l11.12,4.7L173,80.16l4-2.35,4.77,3.13,2.38-5.47,9.53-4.7,11.12,2.35,11.13,6.26,7.94,7,9.53,3.91,9.54,3.91L250,100.5l4.76,11L250,116.93l-7.95,3.91-13.5,9.39-7.15,7-.8,5.48-9.53,1.57,5.56,8.6-2.38,6.26.79,7,3.18,4.7-9.54.78L200,176.39v5.48l-1.59,5.48-5.56-1.57-4.77-.78-10.33-4.7-5.56,3.13-.79,3.92-9.53,3.91-.8-7-11.92.79Z"/><path id="path2245" class="cls-1" d="M150.86,184l11.24,1.11L161,190.65l11.24-3.32v-2.21l6.74-4.43,7.86,3.32-2.25,8.85L176.7,194,168.84,205l3.37,8.85L170,220.52l-11.24,2.21-4.49,7.74-1.12,8.85,3.37,4.43,10.11-10,5.62-2.22,4.49,2.22,19.1,1.1,1.12,7.75L185.69,253.7l-3.38,6.64,7.87,4.42v6.64l-7.87,13.27-6.74,7.75V309l-11.23,13.27,1.12,12.17-10.11,3.32-9,5.54-10.11-2.22-7.86-6.63-14.61-3.32,3.37-5.54-4.49-5.53s-4.49-12.17,1.12-12.17,13.48-4.42,13.48-4.42l-7.86-3.32-7.86-1.11L112.66,288l5.62-6.64-3.38-5.53-3.37,7.74-5.61,1.11-1.13,7.75,3.37,3.32-5.61,6.63-9-14.38-2.25-11.06V261.45h0l11.24-5.54,5.61-6.63,4.5,2.21,7.86-16.59,3.37-8.85-2.24-10,11.23,1.11,7.86-10,6.75-4.43,1.12-8.84,2.25-10Z"/><path id="path3216" class="cls-1" d="M186.81,275.83l2.25-11.06-7.87-4.43,12.36-13.27,3.37-3.32-2.24-8.85L177.82,236l-5.61-3.32-15.73,8.84L154.23,236l1.12-11.06L170,221.62l2.25-6.63-4.5-10,9-10,6.73-1.11,3.38-8.85,10.11,1.11,3.37-10L216,171.84l1.12-7.75,7.86,7.75,6.74,8.85-1.12,11.06,9,3.32,5.62,17.7-7.87,4.42v10l-6.74,13.27-4.49,12.17-2.25,6.64,2.25,15.48-20.23,6.64Z"/><path id="path4187" class="cls-1" d="M190.18,281.36l11.23,5.53,5.62,5.53,1.12,8.85-3.37,10L199.17,319l-12.36-5.53-3.37,7.75-3.37,11.06-7.87,3.32,2.25-12.17,4.49-8.85v-10l4.49-8.85,6.75-14.38Z"/><path id="path4190" class="cls-1" d="M212.65,286.89l10.11-6.63,3.37,6.63L225,294.64l-6.74,7.74-5.62,5.53v-21Z"/><path id="path4192" class="cls-1" d="M225,305.69l-10.11,10-3.37,10,9,4.42,6.74-7.74L225,314.54v-8.85Z"/><path id="path5169" class="cls-1" d="M228.38,267l10.11-11.06,9-13.28,1.12-19.91-1.12-14.38L243,196.18,238.49,184V171.84l-7.86-6.63-7.87-8.85,1.12-10,6.75-11.06,10.11-5.53,4.49-5.54,15.73-1.1,3.37,12.17,6.74,24.34L282.3,173l7.87,10,4.49,6.63-1.12,12.17L290.17,205v14.38l-4.5,10-2.25,7.75-2.24,9.95v17.71l-7.87,5.53-4.49,8.85-13.48,4.42-1.13,6.64-6.74,3.32-9,5.53s-3.38-1.11-3.38-5.53-3.37-10-3.37-10l5.62-7.74-9-8.86Z"/><path id="path5171" class="cls-1" d="M235.12,313.44l5.61-7.74,6.74,8.84L243,319Z"/><path id="path5173" class="cls-1" d="M308.14,215l-4.49,14.38L298,246v15.49l11.24,12.16V244.85l5.62-14.38,1.12-7.74L308.14,215Z"/><path id="path5175" class="cls-1" d="M252,296.85l-3.37,8.84h11.23Z"/></g></svg>