<svg id="BD_XXX_District_locator_map" data-name="BD XXX District locator map" xmlns="http://www.w3.org/2000/svg" viewBox="0 0 400 400"><defs><style>.cls-1{fill:#292b2c;stroke:#fff;stroke-width:2px;}</style></defs><title>Bangladesh_divisions_bn</title><g id="Chittagong"><path id="path4177" class="cls-1" d="M127.69,83.39l-4-1.66v-1l-3.37-2.65,1-2.66,3-3.65.34-4.65L127,65.79l1,1.33h3l1-1,5.73.67V64.46l2-.66,1.35-5.64,2.69-.67-1.68-3,3-4.32,3.71-1.66-.34-1.33,2-2-.68-3.32-2-.33-2-3.65,2.69-3.32,4.72.66L155,32.6l5.73-2,5.73,1.66,3,2L173.2,29l2.7.66v2l-4.39,3,2.7,1.66v1.66l-3.37-1-.34,4,2,1.33-2.36.66,1.68,5.31,1.69,2.32v1l-1.35.66v3.66l-3.71,1.66,1.35,3.31-2.7.67-2,4,2,2.33.34,1.66-1.69,1.32-.67,2.66,1.35,2.66-2,2.65-1.35-1h-2.36L159,79.07l.34,4,1.68.66,1-1.33,1,.67v4.31h-1.35l-2.36-2-.67,1L156,83.72V81.07h-1.35l-.34-1.33-2.69-.66,1.68-1.33-3.71-3-5.39-.33-2.36,2h-4l-1.69.33.67,2.66-3,.66-3.71-2.65-2,1.32.34,1,1,1-1.69,2.66Z"/><path id="path3208" class="cls-1" d="M115.69,87.45l-.36,3.16,2,2.58.6,1.53,1.31-.24,1.79-2.7,2-3.4-.95-2.46.12-2.82-1.93-2.27-2,3.8-3.21-.83L115,86.27Z"/><path id="path4179" class="cls-1" d="M120.69,95.19l3-5.4,1.07-1.64-1.43-2.35.48-4,3.81,1.64L129.27,81l-.83-1.41-.24-1,1.55-.94,3.93,2.58,3-.82-.36-2.47,1.79-.47,3.93.12,2.15-2,5.12.35-.83-.23,3,1.64,1.78,1.53L151.79,79l2.51.82.47,1.18h1.31l-.24,2.58,2.75,2.58.59,1.17-.12,3.06.84,2,2.74,2.82-.12,1.87,1.67.59-.84.7.12,1.41,3.46,2.7,1.79,5.75L170.5,114l.3,2-.42,1.43.24,1.17,2.38,1.29-.95.82-.12,1.06.84,1.76.71.94-.24,1.17.48,9,1.19,1.52,1.31,2.58-.36,2.94-2.62,1.52-3.33-1.76-2.86.12-4.3-.59-2.14-1.41-2.15-.11-2.5,1.41-.83-.59h-2.39l-3.1-1.53-1.55-2.7-.11.24-1.91-.12-1.31-1.88,2.26-.58,1.43-2-.23-4.1,1.55-2.58L148,123.35l-.36-2.58-2.15-2.58-.95-2.11-3.58-2.58-.47-2.35L138,109.51l-1-4.58-4.77-1.29-3.45,2.93-1.31-.82-1.31,2.7h-1.43l-3.22-1.76v-2.23h-.12l-1.55-1.64-2.26-2.23,1.9-1.06-.12-2.22,1.32-2.12Z"/><path id="path5150" class="cls-1" d="M111.85,147.12l-3.37-5.65-1.35-3.32,1.69-4.64,2.36-4,3-3.32,1-3.32-1.35-2.65V117.9l-2.36-1.32-2.36-.67v-2.32l-2-1,1.69-3.32.67-3.32.34-2.66,3.37-1,2.36-1,2-.33,3.71,3.32.33,2.32,3.71,1.67L127,106l1.35,1.33,3.37-4.32,5.73,1.66.67,4.32,3,2,.33,3,3.37,3,3,4-.34,2.32,2.7,2.33-2,2,.33,4.32-1,2.32h-2.36l-1.35.66-2-1.32-3.71.33-1.68-2.66h-1.69l-2,1-1,3.32-.68,2.32-4.72,1.66h-1.68l-3.37,2h-.68l-1-2h-1l-1,1.33-.34,3.32v1.66l-2,2.32-3.37-1Z"/><path id="path6121" class="cls-1" d="M114.55,147.78l1,3.32,4.38,1.66.67,2.65,1.35,2.66,4.38,3.65L128,168l3,7,1.35,5.31,6.07,6,2,3.65,4.72,1.66,5.4-4-1-4.65-3.7-6,.33-2-5.39-8-.34-5.31,3.37-1.66,1-4v-5.64l-3.37-2.33-4-1.66-.34-1.33,2.7-1-1.35-2.33,1.69.34,3.37-7.64-2-1h-3.37l-1.35-2.66-3.7.66-2,6.64-5.39,1.66-.67-.66-4.39,2.32-1.34-2h-1l-1,1v6.3l-2.69,1Z"/><path id="path6152" class="cls-1" d="M141.18,161.06l2.69-3.32,1.35-5.31-2.69-3.32-4.72-3.32.67-3.32,4.05-7.3,5.39,2,5.39,4.64,5.4-2,3.37.67,7.41,2,.68,2.66-.68,3.31v2.66l-2,6,6.07-.66h3.37l-2.7,4v3.32l1.35,4.65-4-2-4.05,1.33-7.42-.67-4-2.65L154,167a4.21,4.21,0,0,1-4.72.67c-2.7-1.33-7.42-6-8.09-6.64Z"/><path id="path6154" class="cls-1" d="M147.92,175.66h7.41l3.38,4,2.69,4.65-2,4-4.72,2-3.37-.67-.67-6-2.7-8Z"/><path id="path6156" class="cls-1" d="M159.38,171.68l8.76.66,4.05,3.32-.67,4L165.45,177l-6.07-5.31Z"/><path id="path6158" class="cls-1" d="M171.52,191.59l-6.75-2V181l5.4,2.66,2,3.32Z"/><path id="path6160" class="cls-1" d="M146.57,194.91l8.76.67,2.7,6,.68,5.31,2.69,3.32-.67,7.3-1.35,7.3-4.72,3.32-4,4.65-2-.66.68-6.64.67-7.3.68-6.64-.68-6.64Z"/><path id="path7138" class="cls-1" d="M175.75,167.13l-1.9-2.82.47-2.82,2.86-5.16-3.33.47-4.29-.94-1.44,1.41,1-3.75-.48-3.29,1-2.82-1.44-5.63,5.25,1.41,2.86-2.35,2.86.94L181,139.9l-1.43-4.22-1-2.82v-2.81l1-3.76L180,123l4.29.93,2.86,4.7,2.86,5.63,1,4.22v3.76l3.33,4.69-.47,3.29,3.81,1.41-5.24.47.47,5.16H189.1l-2.86,1.88-1.43,4.23-3.34,4.69v3.29l-1.9-.94v-2.35l-3.82-.94Z"/><path id="path2436" class="cls-1" d="M172.42,170.41l4.29,1.41.95,3.29-1.43.47-3.81-5.17Z"/><path id="path2438" class="cls-1" d="M175.28,179.8l2.86,5.17,1.9,2.81v1.88l-.95.47-1,4.69,1.43,5.17,4.29,4.69,2.86,1.41v2.81l.47.94H191l2.38-2.81,1-2.82v-2.82l-1-2.81-7.63-12.67-.47-2.82Z"/><path id="path2440" class="cls-1" d="M216.27,221.58l-2.85-1.88-1-5.63-.48-5.16V207l-3.33-5.17-2.39-6.57L202.45,192l-2.86-4.23L197.68,184v-1.41l-1.9-2.35-2.39-1.88-7.15-5.16,1.43-2.35-3.33-3.29.47-2.81,1.43-5.63,4.77-1.88h1.91l.47-4.7h3.82l3.34.94,1.9-2.34,5.72-1.41,2.86,1.41,1,2.81-1.91,3.29,2.38,3.28,2.38,4.7,2.39,4.22,1.9,3.29V169H223l1.91,1.4v4.23l3.33.47,1,4.69.47,5.17,1.43,3.75-.47,3.29,3.33,2.35,1-2.35.47-2.35-1.43-1.88.48-4.22,3.81-1.41,3.82,4.22,3.34,8,.95,5.64-3.34,6.1,5.25,3.75-1,3.76-.47,2.35,1.43,5.63.47,2.35v2.34l1.44,2.35-1,2.82,1,4.69,2.86,5.63-1.44,2.82-1.43,1.88,1.43,3.28-3.33.94-2.86-.94.95-2.81H242l-2.86,2.81-5.24.94-2.86,2.82-4.77,2.81-.95-3.75,2.38-3.29L223.9,246v-4.23L221,238l-.95-6.57-2.38-2.35-1.44-7.51Z"/><path id="path4391" class="cls-1" d="M228.82,177.65l4.72-6V167l2-6.64,9.44-6.63-2.69-12.62,6.74-3.32-1.35-6-3.37-8.63,1.35-5.31L241,113.26l6.74-8-8.09-17.93-4.05.67-4.72-8h-2l-2.7,2.66L228.82,94l1.35,7.3-2,2.66v4l-4.05-1.33-4.72,4-4.72,8-2,6,3.37,6,.59,8.4-.83,2.14-2.46.08v2l-5.39,6.63,4.05,3.32-1.35,2.66.67,2.65,4.05,8.63,4,5.32.68-2.66,4.71.66.68,4,3.37,3.31Z"/><path id="path7308" class="cls-1" d="M252.42,256.65l-2.7,3.32L245,258l-1.35-2.66-4-6,2-2.66H245l1.35,2.66,4.72.66v-2.65l2-5.31-2-3.33-1.35-6.63-.67-3.32-1.35-6.64-1.35-4.65,1.35-6.63,4,1.32,4-2h6.74l4.05,2.66,6.06,3.32,3.37,7.3,3.38,9.29L278,235.41l4,8.63,4.05,11.28.67,3.32-.67,7.3v4.65l-.68,5.31.68,6.64,2,7.3.67,7.3.68,6,3.37,6-3.37,1.33-3.37,4-2-1.32-.68-3.32-2-4.65.67-2.66-2-.66-2,1.33-3.37.66-4.05-1.33L270,299.8l-2.7-6.64-2-1.33-2.7,3.32-1.35,2.66-2.69-.67-3.37,6-2,.66-2,2.66.67,5.31-2,4.64-.67-6.63-2-5.31-.67-2.66,4.05-4.65,2.69,2.66,2-4-2.7-5.31-2.7-4.65,1.35-2.66-3.37-3.32-1.35-4-2-5.31,3.37-3.32h5.39v-4h3.37v-2l-4-4.64Z"/><path id="path8281" class="cls-1" d="M229.5,184.29l-1.35-6.64,3.37-4,2.7-4.65.67-8,10.11-7.3-.67-4-1.35-7.3,6.07-4.65-1.35-5.31-2-8.63v-4.65L241,112.6l6.06-8L244.33,98,239.61,86l1.35-2,5.39-5.31h3.37l2,3.32,1.35,5.31,1.35-4.65,1.35-2.65,3.37,1.32-2,4.65,1.35,4.65L259.83,94,261.18,106l3.37,4.65,2,4-1.35,2.66,2,2,.67,2.65-4.71,3.32.67,5.31.67,4.65.68,3.32,2.69,3.32-2,10.62,2.7,5.31L274,160.4l-1.35,3.32,2,8,4,4,.68,5.31,1.34,6.64-2,1.32,2,6.64,1.35,8,1.35,6.64v4l1.35,5.31,1.35,5.31v6l-3.37-1.32,2,7.3,2.7,10.62,2,6.64-2.7,4.64-1.35-3.32-2-6-2-6.64L278,236.07l.67-2-1.35-5.31-2.69-9.29-2.7-2.66-6.74-4.64-8.77-2-6.06,2.66-4.05-3.32-2.7-4,2-5.31-.68-5.31-3.37-6.64-4-6-2,.67-2.69,4,2,5.31-1.35,2.66-2.7-3.32-1.34-7.31Z"/><g id="Cox"><path id="path5362" class="cls-1" d="M216,250.67l6.74-1.32L224.1,256l-2,6L218,268.6l.68-4.65.67-9.29Z"/><path id="path5364" class="cls-1" d="M225.45,256.65l7.42-4,3.37-2.65,3.37-.66,4.72,8,5.39,2.66,2-.67,1.35-3.32,3.37,4.65v2h-3.37l-.67,4.65h-6.07l-2.7,3.32,2.7,6.64,5.39,5.31-2,3.32,3.37,5.31,2.7,3.32-1.35,4.65h-2.7l-.67-2.66-4.72,5.31,1.35,6,4.3,4.92.68,3.31-3.22,3.85,2.95,5.31,5,6.24-2.95,3.72,3.36,5.31,1.38,4.22-1.29,2.63,1.94,4.31,2.69,6.63-.67,3.32-2-2-2.7-7.3-3.37-4-2.7-4.65-2-4.65v-4L237.59,321.7l-1.35-10.62v-4.65l-2-4.64-4.05-5.31-.67-2.66,3.37-4,.67-4.65,1.35-4,1.35-6-.68-7.3-2.69,6-3.37-2,2.69,4.65,2,5.31-3.37,6.64.67.66-6.74-.66.67,3.32h-4l-.68-3.32,2-6,1.35-5.32-3.37-2.65,4.72-17.92Z"/><path id="path3682" class="cls-1" d="M228.52,269.53l6.74-1.33,1.35,6.64-2,6-4.05,6.64.67-4.65.68-9.29Z"/><path id="path1881" class="cls-1" d="M258.15,371.05c-.35-1.39.17-1.95-1.06-3.18-1.66-1.66.28-1.86,1.59-1.86C259.17,366,258.19,371,258.15,371.05Z"/></g></g></svg>