<svg id="BD_XXX_District_locator_map" data-name="BD XXX District locator map" xmlns="http://www.w3.org/2000/svg" viewBox="0 0 400 400"><defs><style>.cls-1{fill:#292b2c;stroke:#fff;stroke-width:2px;}</style></defs><title>Bangladesh_divisions_bn</title><g id="Dhaka"><path id="path4163" class="cls-1" d="M63.32,199.55v-7l-2.73-2.16,3.28-1.61,7.65.54,4.38.53,2.73,3.23v3.77l1.09,3.77,8.2,4.85-2.18-5.93,4.37-.53,1.1,2.69,2.73,1.61,7.65-4.84,2.74,1.61-.55,2.7,2.73,3.23v-4.31l12-.54,6,1.08,3.83,4.84.55,5.92L124,209.25l-3.83-4.85H107.06l-.55,2.15h10.94l5.46,3.77,7.11,5.39,2.73,2.15,2.19,1.08L132.21,220l-.55,2.69h-5.47l-.54,2.7-3.83-1.08v7.54l4.37,2.69-1.09,2.69h-3.83l-1.09-2.69-1.09,2.69-5.47-.54-1.09-6.46L106,236.16h-2.74l-1.09-4.84H100l-1.09,2.15-5.47-2.69-1.09,2.15,3.28,2.16L92.3,236.7l-2.19-.54v-2.69l-4.37-.53L83.55,227l-5.47-3.77L77.54,220l-7.66-.53-1.09,1.61-6.56-5.92-1.09-3.23-1.64-3.23,3.82-3.77v-5.39Z"/><path id="path5128" class="cls-1" d="M85.91,232.72l3.48.76.39,2.66,2.32,1.14,3.48-1.9-3.87-2.29,1.55-1.9,5.8,2.29.77-2.29,1.94.38,1.16,4.57,3.09.38,6.18-6.09,1.16,6.47,5.41.76,1.16-3,1.55,2.66,3.48.38,1.55-2.66-4.64-2.28V224l3.86,1.52.78-2.66h5.41l.39-2.66h1.15l3.1.76,1.15,3,11.22,2.29,3.86,4.56h3.09l1.94,4.57,12,1.9,7,4.95,3.48,6.09.38,7.24h-3.09l-.38,5.71-3.1,2.66,4.26,2.66-1.94,5-2.32,7.23-2.7-1.14L167.1,275l-1.94,5.33-1.93-.38-.39-2.67h-2.32l-2.7-4.18-3.48-.38,2.7,3.42-3.09.38-4.25,2.67-.39-4.19h-3.48l-2.32,1.91-1.93-3.05-3.48-.38-6.57,6.47-8.89.38-.78,2.29,3.48,1.9-.38,1.9-1.16,1.91-5,4.18h-3.86L113,290.2h-5.79l-1.94-3.43,3.87-4.18-5-1.14-1.16-4.19V270l-2.7-1.91,2.32-2.28,6.18,4.56-2.32-4.18-4.25-6.47.38-5.33h-1.15L99.44,251l-3.09-2.66L87.07,248l-.38-1.53,2.32-1.9h2.7L92.1,243l-4.25-3.81-1.94-6.47Z"/><path id="path6099" class="cls-1" d="M130,328.26l.39-2.29-5.41-3-2.71-6.85-7.73-7.62,5.41.39,3.1-7.62.77-4.18-3.86-1.52L115.3,299l-.78-.76,1.16-3.43v-1.9H118l7-4.57.77-3.42-3.86-2.29.77-2.66,7.35.38,7.34-6.09,3.48.38,2.71,2.29,2.32-1.91,2.7.38.78,4.19,3.48-2.28,4.25-.39-2.32-4.18,2.32.38,3.09,4.57h1.93l1.16,3h1.55l1.55,5.71-1.94,6.47-5,2.67s1.54,3.42,0,3.42h-5L152,307.33l4.64,2.66,1.93-3.43L161.3,305l5,3,1.94,1.9,4.25-3.81,5,2.67-1.93,1.52-.38,3.81,5,1.52-1.93.76v5h-4.25l-1.55,3.42-4.64,1.91v3.42l-1.54.38v1.91l-3.1,2.28-1.54,6.09-1.55,2.29-.39,1.52-3.86.76h-5.41l-.78,4.19h-1.15l-4.26-2.67-6.18.39-5.41-3.05-.78-2.66,3.48-3-5.8-3.81.38-6.47Z"/><path id="path3189" class="cls-1" d="M127.83,167.79l-8.74,2.69-5.47.54.55,5.39,4.92,5.92,6.56,5.92.54,3.23,2.19,2.7-.55,5.38,6,8.08,6.56,4.3,6.56,1.62,2.73,3.23h-6l4.37,4.31,2.74-1.62,2.73,5.39,9.84,2.69,3.28-2.69v-5.93l7.11-1.07,4.92-2.16,12.57,2.16L188,208.72l5.47-5.93-10.93-2.15-3.83-4.85-2.74-5.92-3.82-2.15-2.74-7L163.92,178l4.37-3.77-10.39-.54-1.09-4.31-2.73-1.08-5.47,5.39L147,172.64,143.14,177l-1.64-2.69-2.18,4.84L136,178l-2.74-2.15L131.66,178l-2.19-3.23-1.64-7Z"/><path id="path4160" class="cls-1" d="M163.37,227.55l2.73-3.23v-5.39l9.3-1.08,3.28-2.15,12,2.69L188,208.71l5.47-4.85-9.29-2.69-2.74-.54L176,190.4l-4.38-2.15-1.64-7-6-3.77,4.37-3.23L159,173.17l.54-2.69v-3.23l4.38,3.23,4.92-3.77,6.56,3.23,4.92-2.15,3.28,5.38L188,171l4.38-1.08,1.64,2.69,2.73-8.07,4.92,7.54-4.37,3.77,3.83,1.07,8.2,1.08.54,10.22,4.38-1.07,2.73,2.69h3.83l2.73-2.15h2.73l.55,4.3v3.77L225.7,199l4.92,14,2.18,2.15-2.18,1.08-9.3,4.31,3.83,6.46-1.64,5.92-4.92-4.31-1.64,2.7-1.64,7-3.83-1.08,2.19-6.46-4.92-2.69L206,224.86l-8.2-1.62-3.28,4.85-.54,2.69-.55,7.53-2.73,3.24-3.83-2.16-.55,4.31-1.64,2.69-5.46-2.69-.55-4.85L177,233.47l-4.37-2.69-9.3-3.23Z"/><path id="path5131" class="cls-1" d="M222,320.27l-7.73,2.28-4.64,3-1.55,3.81-5.27-3.93-4-5.2,2.32-4.57,3.09-4.57-4.64-4.56-3.86-6.86-5.42-3.8L188,286l7-5.33,5.41-9.9,4.64-6.85,7.74.76,6.95,5.33,3.1,5.33h11.59l2.32,5.33.78,5.33,2.32,8.38-3.09,6.85-4.55,3.45,3,4.61-10,2.6-3.1,8.37Z"/><path id="path6102" class="cls-1" d="M177.59,255l7.1.54,4.38,3.77,4.92,2.15,10.93,3.23-2.19,3.77-7.65,12.38L188,285.69l1.64,9.69,6.56,4.84,3.28,7.54,5.47,3.77-6,8.07,4.37,3.77,1.64,3.23-2.73,2.16h-6l-6.56-1.62.55-7,.55-6.46L188,312.6l-1.64,2.69h-7.1l-4.38-2.69v-2.15l2.74-1.08-4.92-3.23-4.38,3.77-5.46-4.31h-3.28l-3.29,4.31-4.92-3.23,3.28-8.07,6.57.53-1.1-3.23,4.92-2.69,1.64-7-2.73-4.84,2.73-5.39,7.66,3.23,2.73-11.3-2.19-4.31,2.74-2.15V255Z"/><path id="path2229" class="cls-1" d="M176.49,168.87l8.75-7.54-1.09-4.3h2.18v-3.24l3.28,3.24,3.28-.54-.54-9.15,1.64-5.93,7.65-3.23-1.09-4.84,4.92-2.16-1.64-1.61,3.28-1.08,3.82-.54,1.65-3.23,3.28,3.77,3.28-.54,2.18,1.62,1.64-9.15,5.47-.54,1.64,2.15,6.56,2.7v2.69l4.38,4.31h4.92l1.09-1.62h4.37l6,3.77,3.28,1.61-3.28,2.16.54,4.84,2.19,4.31-1.64,3.77L258,153.8l3.28,3.23-6,1.08L253,156l-1.64,1.61,2.19,1.08,1.09,10.22-2.73,6.47-2.73.53,1.64,2.7L247.57,184l-4.38,3.23L240.46,185,235,178.57l-.54,2.69-3.28-.54-4.38,9.15-2.73-2.15-2.19,1.61-4.37,1.08-3.28-3.23-4.38,1.08V177.49h-7.65l-4.37-1.62,3.82-4.3-2.73-4.31-1.64-.54L194,172.64l-1.64-3.23L188,171.57l-3.82,2.15-7.66-4.85Z"/><path id="path2231" class="cls-1" d="M243.19,187.71l5.47-4.85,2.19-3.23-2.19-3.77h3.28l2.19-5.92V164l-1.1-5.39L250.3,157l2.19-1.62,2.73,3.23,4.92-1.07h1.64l-3.28-3.77,1.64-7L258.5,143v-5.38l2.19-2.16L264,136l3.82-3.23,4.92,8.07,3.83,1.62,2.73,4.31,5.47,2.15.55,1.62L282,152.17l2.73,3.23-3.83,1.08,6-.54,3.28,3.77,4.92-1.62,1.09,5.39,3.28,1.61-1.09,1.62-3.28,5.38,1.64,4.85L294,178l-3.28,8.61-2.18,1.61-1.1,2.7-.54,1.07-7.11-.53L276,193.09h-3.28V192l-3.82-.53-1.64,1.07-.55,7-3.28,5.39-4.92-4.31-.55-2.69-1.09,3.76-4.38-1.07L250.84,199l3.28-1.61-1.64-3.77-3.82,1.61-1.1,2.7-1.64-3.23,3.83-5.39-6.56-1.61Z"/><path id="path3206" class="cls-1" d="M224.6,227l-4.92-7.54,12.58-4.31-6.56-15.61,1.64-3.77v-4.84l3.82-10.23,3.28,1.08.55-2.69,6.56,8.07,7.65,3.23-3.82,3.77,1.09,3.23,6-3.77,2.19,2.69-3.82,3.77,5.46,1.62,6.56,2.15-.54,2.16-1.64,4.84-3.83,3.23-1.09,4.85-3.83-1.08h-2.73l-1.1,3.77V227L241,230.25l-2.73,2.69-2.73,3.23-4.38-.54V232.4l-3.82,2.69-3.28-2.69.54-5.39Z"/><path id="path2235" class="cls-1" d="M184.11,247.94l2.32-8.37,4.64,2.28,3.09-3.81v-6.85l3.86-8.37,7.74,2.28,7.73,5.33L211.17,238l4.64.77,2.32-8.38,9.27,6.09,7.74,1.52,1.54,3.81,3.09,2.28v5.34L239,254l-3.86,6.09-1.55,6.09-5.41-6.09H218.13l-7.74-2.28h-6.18l-7-1.53-13.14-8.37Z"/><path id="path3207" class="cls-1" d="M214.26,260.88l13.92,3.05-1.55,7.61Z"/><path id="path2237" class="cls-1" d="M238,237.85l1.15,2.48,1.94,3.23,1,5.91,7.54-3.24,7.15-1.91-3.29-6.08L250,232.33l-6.95.39-5,5.13Z"/><path id="path7073" class="cls-1" d="M231.16,311l-4.37.63-2.73,5.05,2.18,4.43,6-.63,4.37,5,2.19-3.16-1.1-5.69-2.18-3.79L231.16,311Z"/><path id="path5143" class="cls-1" d="M260.14,136l-6-5.38-1.64-5.92-1.1-3.24-.54-4.3,3.82-2.16.55-7-10.94-7.53,1.64-2.16V95.65l4.38.54,4.37,3.77,3.83-.54L262.33,94l2.73,2.69,2.19-5.39,4.37,3.77L276.54,93l3.83-5.38,2.73-4.31,12-2.15-7.66,1.07,6-1.07h7.1l3.83,1.07,5.47-3.77,5.47,1.08,2.18,3.77,6-3.77,3.28-2.69h6l-1.09,4.31,4.92,5.38v3.77L335,93l-.55,1.62-7.65,4.3,4.37,1.08,1.09-1.62,3.83,1.08,2.19,4.31-.55,2.69-3.83,2.15,5.47,3.77,1.09,3.23-3.82.54L335,118.27l2.73,2.15v3.23l-3.83,1.08-6.56.54L325.74,128l3.28,1.61,1.1,2.16-2.74,1.61L320.82,135l-6.56,1.61-1.64,4.31-7.11-.54-5.46,5.39v1.61l3.28,3.77,4.37,1.08,1.09,3.77-1.09,2.69L305,160.8s3.28,1.62-.55,2.69a34.83,34.83,0,0,0-4.92,1.62l-2.73-2.69-1.64-3.77-4.92.54-3.28-3.77h-4.38l-.54-4.31,3.28-2.69-6.56-1.62-1.65-4.3-3.82-.54-2.74-5.39-3.28-3.23-1.64.54L264.51,135,260.14,136Z"/><path id="path2215" class="cls-1" d="M128.38,167.25l4.38-7-.55-6.47L130,149l-3.28-1.08v-2.15l1.64-1.62L126.74,142l1.09-6.46.55-9.69-7.65-8.08,3.82-4.84-7.65-7,4.92-5.39L122.91,94l-3.82-3.23,3.82-2.69,1.64,1.08,2.74-4.31,4.92,1.61.54-2.69L134.94,80l1.64-2.69,1.09-2.69L139.86,73l2.73-3.77,2.74.54V67.65l-3.83-3.23L141,61.73,141.5,59l1.64,2.15L148.61,58l.55-3.23,3.28,1.61,4.37,5.93,6.56-9.69,5.47-2.16L172.12,52l.54,4.85h4.92V66L182,72.51V75.2L179.22,79l-.54,3.23,3.83,8.61,11.48,7-2.74,1.08-1.64,3.77,4.92,8.61.55,3.77-1.64,2.69,3.83,9.69,3.82,1.61,2.74,1.08,1.09,1.62-4.37,2.15v4.84l-3.28,1.08L194.53,142l-2.18,5.92.54,8.07-3.83.54-2.18-2.15-.55,2.69h-1.64l.55,3.77-6,5.92-4.37,2.69h-1.64l-4.92-3.23L165,169.41h-1.64l-3.28-2.15V171l-2.74,2.69-1.09-4.31-2.19-1.07-4.92,5.38-3.28,1.08-2.73,2.69-1.64-3.23L139.31,178H136l-3.28-2.69L131.66,177l-2.19-3.23-1.09-6.47Z"/></g></svg>