<svg id="BD_XXX_District_locator_map" data-name="BD XXX District locator map" xmlns="http://www.w3.org/2000/svg" viewBox="0 0 400 400"><defs><style>.cls-1{fill:#292b2c;stroke:#fff;stroke-width:2px;}</style></defs><title>Bangladesh_divisions_bn</title><g id="Khulna"><path id="path7082" class="cls-1" d="M140.49,139.52l5.45,1.34,2.73-1.79,1.82,2.24,3.64.45.45-4.93,3.18.45,5.91-3.58-.45-2.24-3.64-2.24,1.82-.9.91-6.26L161,119.82l-2.28-1.35,2.73-1.34,5.46,2.24.45-2.24-1.82-2.24-.45-1.34h2.73l3.63-6.27-.45-7.16,3.18-1.35,1.37-3.13h2.27V93.85l-2.27-2.69.45-1.79,2.73,1.34V93l2.73.9.45,2.68h1.82l1.82-2.68,3.18,1.34L191,92.06h4.09l1.36-2.69,5.46,3.82,3.64.66.45,1.79,6.37,5.37.45,2.69-.91,1.34h-1.36l-.91,1.79,1.36,1.35.46,1.79-1.37.44v2.69l1.82.9-.45.89h-2.28l-2.27,3.59.45,4.92-.45,4.93-1.36,2.24-1.82,1.79-2.28-.45-2.72,5.37-.46,3.14,1.82.44-1.82,1.35v2.24L196,146.69l-1.82-1.79-.91,1.34,1.36,3.58-3.18,1.34-7.73,1.35-2.27-5.38h-3.64l-1.82-4,2.73-1.79-4.55-1.79-1.82-1.34L171,139.52l2.73,3.58h-4.55l-3.64,1.8,2.73,2.68,2.73,1.35-3.64.44-5.91-1.79L160,148l2.73,1.79L161.4,153,160,155.19l-.46,2.24h-7.73l-4.54-2.24v3.14l-4.55-.45-.91-2.24-3.64-.45-2.27-1.34v-2.24l-2.73-1.79v-2.24l.91-1.79,3.64-.89-.46-2.24,3.19-3.14Z"/><path id="path8053" class="cls-1" d="M200.5,141.31,198.23,140v-2.23l3.18-5.38,2.28.45,3.64-4.48V123l-.46-4.48,1.36-3.58h3.19l.91-1.34-2.28-.45V110h1.37v-1.79l-1.82-1.79.45-1.79,2.28.89.91-1.79-.46-2.68.46-1.35,5.91.45.91,2.24,4.54,3.58,1.37,4.48,1.82,2.24v3.13L229.6,118l1.82.9v1.79h-2.27l-1.82,1.34.46,1.35h6.82l3.63,2.24.91,3.13h1.37v4.93l3.18,4.92.91,2.69-4.09-2.69-1.82,1.79,2.27.9v5.82h-5.45l-2.28,4-2.27.89-3.18-4-1.82.9-2.73,3.58-1.82.9h-.91l-2.27-2.69-1.37.45L214.15,148h-.46l-.91.9h-2.27l-2.28-1.79-.45-2.69-2.73.45-4.55-3.58Z"/><path id="path2204" class="cls-1" d="M159.13,156.53l3.64-6.27-3.64-3.13h2.73l4.54,2.24h5l-5.91-4.48,2.28-1.79,6.36.45L171,140l1.36-2.24.91,1.8,5.46,1.79-2.27,1.79,1.36,3.58,4.09.45,1.82,5.37,5.46-.89,5.91-1.35-1.82-3.58.45-1.79,2.28,1.79,2.73-2.24-.91-2.69,1.81-.89,5.92,4,2.27-.45.45,2.24,2.73,2.69,2.28.44L214.6,148l2.27,3.14L221,152.5l-1.36,2.24,2.27,1.34-1.36,1.35.45,5.37-1.36,1.79.91,4-4.09.45v1.34l2.27.9.46,1.79-1.37.45.46,3.13,4.09-2.69h1.36l-.45,4.48,2.73.9v.89h4.09l.91,1.35-.91,3.13,2.73,4.48s2.27,3.13.45,3.13h-2.73l-3.18-.89L226,190.12l-2.28-5.38-1.36-1.34-3.18,2.24.9,3.13-2.72,4-5.91,2.69-.46,2.24,1.82,2.24-.46,5.82-.45,1.79-5-2.24V203.1l-1.82-.45L204.6,204l-4.1,3.58-2.72-.45-4.1,2.24H191l-3.19-2.24-.45.45-1.82-1.35L185,204l2.73-.45-3.18-4,2.73.45.45-1.35L186,195.49l-3.63-2.24-.46,2.69h-7.05l-2.95-2.24-2.27-1.35h0l1.81,4.26-1.81,1.79-6.82-.9-1.82-2-2.28,1.34h-1.82l1.37-2.69-5.46-2.23.91-8.06,2.73-.9L155,180.71v-2.24l-1.82-1.34,3.63-5.82,4.55-1.79-.45-3.58,4.54-3.14,1.82,1.35,1.37-2.69-1.82-.9-.46-2.24-4.09,3.14L160,160.12l-.91-3.59Z"/><path id="path2205" class="cls-1" d="M221,156.53l-2.28-3.13,3.64-.45,3.64-3.58,1.36-1.35,2.73,4,3.18-1.34,2.28-3.13h5l1.36,3.58h3.64l.45.89-3.18,3.59,1.37,2.68h5l2.27,2.69v1.79L250.07,165l1.36.45,3.18-2.24,3.64.45-.45,3.13L256.43,170l-1.82,3.59h-2.27l-3.64-.9,5.91,4.93,1.82,2.68,1.82,4.48,5,3.14v2.24l-1.36.44-4.09.9-10.46-4-3.64,4-5.91-3.14L236,191h-1.36l-5-5.82,1.81-2.69-1.36-2.68-4.55-.45-2.27-2.24.91-3.58-1.82-.45-4.09,4,.91-3.58-.46-2.69L216,170l5-.89-.91-4,1.82-1.79-.91-6.72Z"/><path id="path2206" class="cls-1" d="M168.68,191.9l3.18,4-2.27,2.69-2.73-1.79-3.64.44-1.82-1.79-4.09,2.24.91,3.58,2.73,3.14,1.36-2.24,1.82.89-.45,2.24,1.81.9-.45,2.69-2.73,2.68,1.82,1.79-1.82.45-.45,4-2.73-1.34.91,4,3.64,4.92-4.1,7.61,4.55,3.14-.91,2.69-.91,3.58,4.09,3.13-.91,4,2.73,4.48.46,4.93,1.82,1.34-4.1,1.34.46,2.69,1.82,1.34-1.82,7.61,4.54.45.91,3.58-3.63-.89v2.24l2.72,3.13,2.73.45v4l3.19,2.69.45,5.82,4.09-.9-3.18,4.48h-4.09l-.46,3.58,1.37,4.48,4.09,7.16-1.36.9-.46,10.74,3.18,4,.46,5.82.45,3.14,5.46,2.68,4.09-1.79,2.73,5.38-.91,2.23,2.73,2.69-1.82,4L190.05,358l5.45,2.24,5.46-1.35-.91-2.23h3.18l.46-2.69-2.28-1.34,1.82-2.69V341l-1.82-.9,3.87-3.13,3-8.51,2.72-2.69-1.36-4L206,315l-3.63-7.17L201,304.74l3.18-3.13h-7.73l4.55-6.27,2.27-4.93,1.82-11.19-4.54-7.16v-2.24l2.72-2.24-4.54-3.14.45-8.5,4.09-2.24-4.09-7.61.46-10.3,2.72-3.13,2.28,4,2.73-3.58-.91-2.24-2.73-.45-1.82-1.79,1.82-3.59.91,1.79,2.27.9.91-3.13,2.27-1.35L209.6,221l-4.09-6.71L201,212.06l-2.27-4-.91-1.35-3.64,2.69-3.18.45-2.73-2.69-1.36.9-1.82-4,2.73-.9-4.1-4,3.64.9-1.82-5.38-2.73-1.79-.45,3.14H175l-6.36-4Z"/><path id="path3186" class="cls-1" d="M209.37,223.91l-1.59.67-.68,3.36-2.27-1.12-.91-2.46-2.5,4,1.82,2,2.95.23,1.14,2.68-2.73,3.59-2.27-3.81-3,2.69-.22,9.62,4.31,8.51-4.31,2.23-.46,8.29,4.32,3.36-2.5,1.56-.23,2.47,4.78,7.61L203,290.17l-6.37,11.42,7.51-.23-3,3.14,8,16.79,1.82,4.47,2.95.9.23,2.91-4.78.9-3.63,6,2,1.79,1.37,4h2l.69,3.58,1.36,4.48,5.69.45,3.4-5.15,1.82-1.12,1.82-3.36-.91-2-1.13-2.69-4.32-2.69L223,332l6.13-6.27.46-4.92.23-5.6h1.82l3.18-11.64.23-9.18-2-8.5,6.14-6.05,1.36-2.91,2-.45L245.3,272v-5.6l-4.1-11.86-2.27-1.12v-5.38l-3.18-6.71-.91-7.61,1.82-4.26,3.63-3.58,2.28-7.83,1.82-1.57,1.59,1.12,3.41-3.36,1.59-3.13-.68-3.59-1.37-1.34v-2.91l4.78-.22,3-2.47,1.82-9.4L248,187.64l-4.54,4-5.23-3.13L236,191.45l-2.27,1.34-5.23-.67-2-1.35-3.64-6.93-3.41,1.34,1.14,3.58-3.41,4-5.69,2.69-.68,1.79,1.82,2-.45,8.73-5.23-2.46.45-2.24-2-.89-.23,1.56L201,207.57l-3-.45,3.19,5.37,4.54,2,3.41,5.82.22,3.58Z"/><path id="path3188" class="cls-1" d="M131.39,37.89h5l4.55,4,6.37,3.58,5,.45,5,.9,1.82-3.14L162.77,46h5.91l2.72,4.92-.91,4,1.37,4,1.82.45,2.27.45v2.69L180,64.31l1.37,3.58,1.82-2.24L185.5,67l2.73,3.14,6.36-.45-4.54-4,5.45-1.34,5,3.58-3.63,1.34.45,2.69,4.09,3.13,2.73,1.79,2.73-.44,1.82.89-.46,4-.45,6.27-3.19,3.58.91,2.24h-3.18l-5.45-3.58-1.37-.45-.91,2.69H190.5l-2.27,3.13-2.73-.9-3.64,3.14-.45-4h-2.73l.45-2.69L176,89.83l-.45,1.79,2.27,3.13-3.18.9-.27,3L171,100.13V94.3l-.46-4L168.68,88l-1.82,1.35-2.28,3.13-2.27-5.37-3.64-.9L161,83.56l-4.1-.9-3.18-2.24,1.82-1.79V76.84l-2.73.45L150.94,76l3.19-1.8-1.37-3.58-1.82-2.24-3.18,1.79-1.36-4.47L145,63.86h-1.36v3.58l-5-5.37-1.82-2.24-.46-2.69,3.19-.9L135.48,54l2.73-1.35-5.45-4Z"/><path id="path5134" class="cls-1" d="M138.21,62.51l5.46,5.82.45-4.47,2.73,2.68v2.69L148.22,71l2.72-2.69,3.19,4.93L150,76l2.72,2.23,2.73-.89.91,1.79-3.18,1.34v.9L152.76,84l-2.27-1.34-1.82,2.69.46,4-4.1.45.12,8.5-3.75,3.92-3.53.56-2.38,1.79-1.82-.45-5.91,4.93-.91,1.34-6.6.33.69-4.81-3.19-.89-.91-1.79,2.28-1.35.91-3.13-2.28-.9.46-4.92,2.27-2.24-3.18-4.48,2.27.9,2.73-2.69v-.9l-1.36-1.34.45-4.92-.91-.9,2.73-1.34,2.27.89v2.69l1.57-2,2.75-.15,4.78-5,2.95-.34,1-2.69-.79-3.69Z"/><path id="path6105" class="cls-1" d="M125.94,110.42l7.73-5.82,2.27.45,1.82-2.24,3.8-.82,3.15-3.71.32-8.46,3.61-.5-.88-4,2.73-2.24,2.27,1.79.94-4.06L156,83.11l5.24.44-3,2.69,3.64,1.35,1,2.08L165.49,93l.91-2.24,2.28-2.24,1.82,2.24.51,10.16-.06,6-1.36,4.92-1.18,1.56-2.92.68v1.34l1.82,1.35-.45,2.24-5-.9-2.73.9,2.13.51,1.51,3.07-.46,6.27-2.27.89,2.65,1.5,1,2.08-4.9,3.77-4.2.16-.45,4.13h-3.19l-2.59-2-2.86,1.13H141.4L140,139.07V133.7l1.37-4,2.72.9-.35-3,1.07-2.66-1.17-1.18-2.27-.35,2,1.92L140,127.88l-1.82-1.79.46-1.79-1.58-1.45-3.45-1.7-5.88-4.46,1.36-3.14Z"/><path id="path7070" class="cls-1" d="M258.08,191.73l5.14-1.9-.64,5.7,5.14,1.9-3.21,3.17.64,3.16,4.5,3.17,5.79-1.9,3.86,4.43.64,8.86-4.5,1.9-2.57,1.27-.65,4.43h6.44l1.28,1.27v7l2.57,6.33-1.93,3.16,2.58,8.23L278,249.35l-3.86-1.9-1.28,1.27,7.07,5.06v1.9H278l-3.21,3.8v8.23L270.94,274l-1.29,3.8-.64,7.6,3.86,5.7,1.28,7-5.14,7,1.93,4.43-.64,8.23,2.57,7v3.8H270.3v3.79l-9,5.7-3.21-2.53-7.72-.63-4.5,1.26,8.36,6.33-1.93,3.8h-7.07L240.07,345l3.22,6.33-4.5,1.26-5.15-1.9,1.93-4.43-3.86-5.7v-5.06l-.64-5.07,1.29-10.13-1.29-5.7,3.21-8.86.65-10.76-2.57-9.5,7.71-6.33,4.5-3.17,1.29-10.13-5.14-10.13-1.93-1.9v-4.43L235.57,243l-1.28-8.23,5.78-9.5,2.58-7.6h3.85l4.5-5.06v-4.44l-2.57-1.89v-3.8l7.08.63,1.93-5.06.64-6.34Z"/><path id="path4157" class="cls-1" d="M205.05,341.88l-.91,8.06,5,3.13,1.37-4.92-5.46-6.27Z"/><path id="path1921" class="cls-1" d="M182,362.11c0-.88-2.81-.92-2.15-3.58C180,358,183.56,358.31,182,362.11Z"/></g></svg>