<svg id="BD_XXX_District_locator_map" data-name="BD XXX District locator map" xmlns="http://www.w3.org/2000/svg" viewBox="0 0 400 400"><defs><style>.cls-1{fill:#292b2c;stroke:#fff;stroke-width:3px;}</style></defs><title>Bangladesh_divisions_bn</title><g id="Mymensingh"><path id="path8041" class="cls-1" d="M46.54,149,57,137.89l-.74-6.64,5.24-5.91,5.24.74,4.5-5.9-.75-7.38-3.74-6.64V93.62l7.49-5.17-3.75-2.21V81.07L78.75,87,76.5,98.78l4.5,4.43-.75,5.9,5.25,3.69h5.24l3.75-5.17,6.74,1.48,4.49-.74v11.07l-1.49,1.47-4.5-3-2.25,10.33L93,132.72l2.24,5.16,6-.74-.75,3.69-3,3.69-.75,5.91,6.75,5.16-.75,4.43L97.48,163l.75,2.95H94.49v3.69L98.23,177l.75,4.43,4.5-.74,3.74,4.43-1.5,4.42,5.25,2.22,17.23,4.42,1.5,5.17,9.74-8.12,14.23,6.64-.75,8.86-6.74,7.38-5.24-.74H129l-6.74,1.47L111,230.11,107.22,225l-1.5-2.22-5.24-2.21V225l-6,3.69-3-2.22-2.25,4.43,2.25,4.43L96,238.23l-1.5,3-2.24-.74-3,6.64H85.49v5.17L81,253.72v8.12l-3.75,1.47-6-.73v-6.65l-4.5-3.68,6-.74L75,236l-6-6.64,4.5-.74.75-5.17-6.75-4.42-3-.74L63,221.26l-4.5-5.17h2.25l1.5-3.69-.75-3.69-5.25.74-6-6.64-.75-5.9,3.75-.74-.75-6.64-3-3.69.75-3.69-3-3,3-2.95v-6.64H45l4.5-5.17-3.75-2.21L48,157.06,46.54,149Z"/><path id="path3201" class="cls-1" d="M129,201.33l-.75-5.16-12-2.95-10.49-3.69,1.5-4.43-3.74-4.42-3.75.73L99,177l-3.74-5.16L93,165.92l5.24.73V163l4.5-3,.75-3.69-5.25-4.42-1.5-5.17,3.75-4.43.75-5.9-6,.74L93,132.71l6-4.43,1.5-10.33,3,3.69,3-3V107.63l5.25,4.43,7.49,4.43L123,118.7l9.74,3.69,8.24,2.21,11.23,1.48,8.25,3.69h5.24l2.25,3.69v6.64l.75,8.12-1.5,5.16,9,4.43-3,5.16-7.49-1.47-5.24,7.38,4.49,3.69-3,4.42,2.24,5.91,5.25,2.95-3,1.47-4.49-1.47.74,3.69,3.75,3-3.75,7.38-9.73-.74-6-2.95-8.24-3.69L129,201.33Z"/><path id="path4172" class="cls-1" d="M173.91,323.06l-6.75-2.95-6-12.54,3-2.95v-7.38l-7.5-11.07,1.5-5.16,5.25-1.48-11.24-5.9-4.5-4.43-6-10.33.75-4.42,4.49-5.17v-3.69L140.19,236l.75-12.54-6.74-.74-2.25-5.9,7.49-1.48,6.75,1.48,6.74-8.12v-7.37l3.74-2.22,5.25,1.48,5.24-6.64-5.24-3.69v-4.43l4.49,1.47,4.5-.73-6-2.95-3-6.64,3-4.43-3.75-3.69,5.24-7.38,7.5,3,3-5.9-6-2.21-3-3.69V134.18l-.75-3,3.75-.74,3.75,3h6.74l2.25,4.42,15.73,2.95,7.49-2.95,9-3.69,9.74,1.48,3.75-2.22,6,3,5.25-4.43,3.74,2.21-1.5,3.69-3.74,10.33-.75,5.91-3.75,2.95,6,6.64-.75,4.42-5.25.74-3,4.43-1.5,5.9-3,.74-3-8.12-2.24,3-4.5-1.48-2.25,1.48,6,4.42,1.5,5.91-1.5,4.42h1.5l3.74,7.38h5.25l-.75,8.12,3.74,2.95-2.25,2.95h5.25l5.24,4.43,7.5,1.47,3-2.21,6.75,2.21-1.5,4.43-3.75-.74,1.5,5.17,3,1.47,1.5,1.48-3.75,4.43-.75,7.38,6,5.16,5.25,3,1.5,9.6,4.49-3,.75,3,6,3.68,1.49,3-4.49,7.38-5.25,5.16-5.24-2.21-3-5.17-4.49,8.86-3-5.91L251.83,281l-6,.74-5.24-4.44h-6.75l-2.24,5.9,6.74,5.17,7.49,4.43-.75,9.59-3.74,2.95-.75,6.64,3.74,8.12,2.25,4.43-5.24-1.48L234.59,326H227.1l-6-4.43.75-4.42-10.49-3.69-.75-3-7.5-.74-3,11.8-3-1.47-3.74,1.47-4.5-5.16-2.25,4.42-12.73,2.21Z"/><path id="path6116" class="cls-1" d="M281.05,262.57l-6-2.22-.75-5.16-5.24,2.21-1.5-7.38-6.74-3.69-3.75-5.16-.75-7.38,5.25-5.17-6.75-3.69v-4.42l3,.73,3-4.42-8.24-2.95-1.5,2.95h-7.49l-5.25-5.17H231.6l3-3.69-3-3v-7.37l-5.25-.74-3-8.11h-2.25l.75-2.95-.75-6.65-6.75-4.42h8.25l1.49-3.69,3,8.85h3.75l1.5-6.64,2.24-3.69h3.75l3-5.9-6.75-6.64,4.5-2.22-1.5-4.42,3-5.17,3.74-8.85,6,.73,2.24,2.22,12.74-8.12,4.5,6.64,19.48.74,2.25-2.21,6,2.95,9.74-8.12.75,3.69-2.25.74-.75,14,3,3-1.5,1.47-4.5.74-1.49,3.69,6,1.47-3,3.69-.75,7.38,3.75,6.64V188l9,2.22,6,5.9,14.23.74,3.75,5.9v6.64l3,5.91,3-5.91,3.75-.73,3,5.16-2.24,5.9-5.25,1.48v7.38l3.75,2.21,4.49.74,6,2.22,3,3.68,2.25,3-4.49,5.16-6,4.43-8.24.74-12.73,8.11-2.25-3.69-9-2.21-6.75,4.43-5.24-.74-10.49.74h-9l-9,5.16Z"/></g></svg>