<svg id="BD_XXX_District_locator_map" data-name="BD XXX District locator map" xmlns="http://www.w3.org/2000/svg" viewBox="0 0 400 400"><defs><style>.cls-1{fill:#292b2c;stroke:#fff;stroke-width:2px;}</style></defs><title>Bangladesh_divisions_bn</title><g id="Rajshahi"><path id="path5240" class="cls-1" d="M210.85,289.87v-4.56l2.64-4.55,3.3,3.25,13.22-2.6,6.6-5.21,1.32-5.2,4,1.3,5.94-3.25,4-11.71,4,2,.66-5.21,5.29-5.2,13.87,3.25,4.63,2v6.51l2,3.9,4.63-2.6,4,1.3-2.64,1.95v5.21l2.64,1.95h5.95l2.64-3.25L302,273.6l-4,3.26h3.3v3.9l-4,1.95,1.32,4.56,5.95.65,8.59,7.16,5.94-.65,8.59,7.15,4.63,6.51-6.61,1.3v3.91l-2.64.65.66,5.85,3.3,3.91,5.29-1.3,2.64,7.81h-2.64l-5.29-5.86,2,7.81,7.93,1.3,5.95,3.9-5.95,2-3.3,1.95-7.93-.65-7.93-3.26L308.63,340l-5.95,2.6-15.85-9.76-2.65-6.51-7.92-8.46H273l2.64,6.51-3.3,3.91L265,327l-4.62-6.5-6.61-7.16-2.64-1.3H241.9l-4-2.6h-7.26l-4-.66-5.28,4.56v-3.25l-5.29-2-2.64-5.2,1.32-8.46-4-4.56Z"/><path id="path2180" class="cls-1" d="M126.27,175.37l-4-3.26-4.63-1.3.66-2.6,9.25,1.95-2-3.9h-6l-5.94-2.61,3.3-3.9-5.94-1.3-2.65,2.6-5.28-2.6,1.32-4.55,5.28,1.95,1.33-2.61,7.26.66,2-2.61,5.28-8.46-6.61-6.5-2,5.85-4,.65,1.32-6.5-4-4.56-4-.65-2,4.56L96.54,135l-1.32,5.2h-2l-.66,2.6H97.2v3.26L94.56,150l-1.32-3.9h0l-3.31,3.25-1.32-3.25-4-2.61-2,3.91,2-6.51L78,136.33l.66-3.91-4.62-.65-.67,2H68.13L62.84,137l-.66,3.25,3.3,3.25,1.33,9.11-11.9,7.81,1.32,5.21-4-.66-2,2-.66,5.2L49,176.67l-.66,3.25L45,179.27l-3.3,1.95,2,1.95,3.3,2.61-.66,2.6,7.27,4.55-.66,3.91,4,3.9-2,5.86,2.65,5.2,3.3,3.91h4.62l4,3.9,2.64,3.25,4.63-.65,16.51,5.21h6.61v-3.26h-.66l-3.3-5.2v-9.11L92.57,206v-5.86l7.93-3.9,5.29-.65h0l7.27-4.56-.66-5.2h13.87l1.32-1.31L125,182.52l-2.64,1.3-4.63-2.6Z"/><path id="path2184" class="cls-1" d="M204.9,172.11l-.66-13.66-2.64-1.95,5.28-4.55h4l2,4.55.66-4.55h2v3.9L220.1,150l3.3,3.26,7.93-6.51-6.61-6.51,3.3,1.3.67-9.75,4,1.95.66,3.9,7.27.65v2.61h5.28L245.2,137,241.9,135v-3.91l3.3.66,4-10.41,4.62,2.6-2-3.9h4.63l-3.31-4.56,6.61-3.9.66-4.56-2.64-.65,2.64-2.6,7.27,1.3,4.62,2.6,1.32,5.86,5.95,1.3,1.32-3.25,5.95,3.25,2-3.91,5.29,5.21,7.93,1.3,3.3,3.26H308l2-4.56,11.24-1.3,2,3.25,2,.65-2,5.21h2.64l1.32,4.55-2.64,3.91,2.64,1.95-1.32,3.25,2.64,3.91.67,4.55-3.31.65v5.86l5.29,5.85h4.62l2,3.26-1.32,1.95h-9.25l-1.32,2v3.91h-1.32v4.55l-6.61,9.11-4.62-4.56-3.31,2L307.31,178v3.26l-2.64,2.6L304,189l2.64,1.3-1.32,3.25.66,1.3,4-.65,4,3.25-2.64,3.26,4.62,2.6-2.64,3.25h-4l-.66,2.61-4-1.31L302,204l-.67,3.25h-4l-2-2.6-5.29,2.6-4.62.65-5.29-3.25L267,205.3v-3.25l-3.31-4.56h-2l-4-3.9-5.29-.65-2.64,1.95,1.32,5.21-.66,2-7.27-5.86v-2.6l2.64-2-1.32-3.26-4,3.26-2-1.95-3.3,7.15-4.62-9.11,3.3-3.9-.66-9.76-3.3,3.25-6.61-.65.66-3.25-5.95-9.76-4.62,5.2-2-2.6Z"/><path id="path3179" class="cls-1" d="M187.72,288.57v-3.26l6.61-.65L193,281.41l-8.58-1.3,2.64-2.6-2.64-1.3,4-2-2.64-3.9,10.57-3.9L193,261.24v-3.9l-6.6.65-2.65-6.51,8.59-5.86L191,224.81l6.61-4.56L193,215.7h-4l6-3.91,6.6,1.3,2.65-5.2-.66-2.6h4.62l-.66,3.25,4,3.25,5.29.65,4.63.65,5.94-3.9L228,202h-2.64v-5.85l5.29-6.51,4.62,7.81,2.64-6.51,2.65,1.3,4-3.9,2,2.6-4,4.56,7.93,5.85.66-2.6-2.64-3.25,3.3-3.26,5.95,1.3,4,3.26,4,3.25,2,4.56,2,2-11.23,15-6.61,7.81,4,1.95,1.32,3.9,3.31,2,.66,12.36-5.29,5.2V258l-3.3-.65L246.52,269l-4.62,2.61h-4l-2,4.55L230,280.76l-11.89,2.6-2.64-2.6-2-.65-2.65,4.55v4.56l-7.92-.65-6.61-2-2.64,3.26Z"/><path id="path3168" class="cls-1" d="M97.86,228.06l2-4.55-4.62-5.86.66-8.46-4-4.55.66-5.2,13.22-3.91,7.93-3.9-.66-5.21,12.55.65,2-1.95-2-3.25-3.3,1.95-4.63-2.6,8.59-4.56,9.91,3.26.66,5.2,4,1.3,4-4.55,3.3,2.6-.66,7.16,6,2.6,14.54-7.81-.66-1.3,7.26,2.6,4,3.26,5.28-.65,4.63,4.55,5.28-1.95v6.51l.66,3.25,5.29,2.6h3.3v3.9l-1.32,3.26-7.27.65-4,3.25H193l4,3.91L191,224.81l.66,3.25h0l.66,17.57-6.6,4.55-1.33,2h0l3.31,6.5,5.28-1.3.66,3.91L195,264.5l2,1.95-8.59,3.25-2.64,2.61,3.3,2.6-4,1.95,2.65,1.95-2.65,2,7.27,1.3,1.32,2.6-5.28,1.3-.66,2.6h-6.61l-9.25-3.9-6-5.21-2.64-1.3-4.62-1.3v-2.61l5.28-1.3.66-13.66L160,249.53l-5.29-.65L152,252.79l-9.91-.65-5.95-3.26-4.62,3.91-6-3.26-6-5.85-2.64.65-.66-3.26-5.94-1.3-6.61-3.25Z"/><path id="path4248" class="cls-1" d="M260.4,247.58v-9.76l-3.3-2.6v-2.6l-4.63-3.91,17.84-21.47-1.32-2.6h11.89l4.63,3.91h4.62l5.95-3.26,5.28,2.6,1.32-4.55,2.65,5.21,4.62,1.3v-3.26h3.31l3.3-2.6-5.29-3.25,2.65-2.6-4.63-3.91-4,.65-1.32-.65,3.3-3.25L304,189l2-7.16v-4.56l3.3,3.26,4-1.3,4,3.9,8.59-9.11-1.32-3.9,1.32-6.51,7.93.65,2.64,3.26,2,1.95,1.33-2.61h2l3.3,3.26,2,.65.66,3.9-4,.65-.66,2,4,3.25v9.76l-1.32,5.2h-4l3.3,3.91.66,4.55-3.3,1.95-.66,3.91L339,209.2l-3.31,3.9,3.31,4.56v5.2l-4.63,3.25-2,3.26,9.25,9.76-4,3.9.66,2.6,4.63,3.26,3.3,5.2L345,273l2,2.6-2,1.95v2.61l2,.65,2.65,2.6v1.95l2,2-.66,7.8-4.63,9.11-8.59,3.26h-4.62l-5.29-6.51-7.93-5.86h-5.94l-8.59-7.15-6.61-1.31-.66-3.25,3.3-1.3.67-4.56-2.65-1.3,2-1.3v-2.6l-2.64-3.25-2,1.3-5.95,1.3-2-1.3V265.8l2.64-1.3s0-3.9-2.64-3.9h-3.3l-2,3.25H282.2l-1.32-3.9v-5.21l-5.95-3.9-5.28-1.3Z"/><path id="path2179" class="cls-1" d="M205.56,152.6V148l6.61-.65-1.33-11.71,2.65-.65-.66-13.66-4-6.51h-1.32l-2.64,3.26-3.31.65-3.3-5.86v-2.6h2.64l2-10.41h-7.27l4-1.3-4-5.21,2.64-3.25L193,89.49h-2.64l-8.59-5.21-2,4.56-4.62,3.25h-1.33l-3.3-3.9-3.3,2-7.93-4.56-4.63-1.3-1.32,2.6-12.55-.65-3.3,6.51H134.2v-3.9l-2-2-2,2.61-2.65-3.26h-4l-3.3-2.6L119,86.23l-4.63,2h0l-.66,5.2L119,96v2l-4.63,2V109L115.7,111l-3.3-.65-.66,5.85,3.3,2.61L112.4,122l-3.3,2v3.91l-3.31.65v2.6h4.63l4,3.9.66,7.16h2v-2.6l.66-2.6h2.65l4.62,4.55v2.6L120.33,152l-3.31,1.3-5.28.65-.66,1.95-6-1.3-2,3.91,4.62,2.6,2.65-1.3h7.92l-2.64,3.9L119,165l6.6.65,2,3.91-3.31.65-3.3-1.3h-2.64l-.66,1.95,4.62,1.3,4,1.95.67,2,3.3,1.95,7.27,2v4.55l3.3,1.31,4-5.21,3.31,4.56-.66,7.15,2.64,2.6.66-1.3H154l4-2,9.25-6.5h2.64l.66,2.6,4.63-.65h0l3.3,3.9,1.32-1.3h4.63l4,4.55.66-1.3,4-.65,2,2.6v6.51l3.3,2.6,3.3.65,7.27.66v3.9l1.32,1.3h2.65l.66-1.95v2.6h4l1.32,3.9,2.65-3.25,2,.65,4.62-3.9v-6.51l-2-1.3V196.2l5.29-7.81,2-3.26-.66-5.85,1.32-5.21-3.3,2.61-7.27.65.66-5.86-4.63-7.81h-1.32l-5.28,5.21-2-.65-5.94,5.2-.66-14.31-2.65-1.3Z"/><path id="path3152" class="cls-1" d="M212.17,147.39l-.67-11.71,1.33-1.3.66-14.31-4-3.9h-3.3l-1.32,2.6h-2.64l-2.65-5.21v-3.25l2-.65.66-9.76-4-.65,2-1.3-2.64-5.21,3.3-3.25-.66-4.56,1.33-9.1,7.92-2.61,2.65.65,5.94,4.56,7.27-1.3,3.31,4.55,9.25-1.3L245.2,83l-2.64,5.21,3.3,5.2L249.17,96l4.62,6.5-.66,2,5.95,3.91V111l-4,3.25-2.64,1.3,2.64,3.91-4,1.3,1.32,2.6-4-1.95-3.31,9.11h-2.64v5.21l2,1.95-.66,2.6-3.3-.65v-2h-7.27l-.66-4.56-4.62-2-.67,9.11h-2l.66,2.6,4,2.6v2l-5.95,3.9-2,1.3-3.31-2.6-3.3,3.9v-2.6h-3.3v2.6l-1.32-2h-4.63v-3.9Z"/></g></svg>