<svg id="BD_XXX_District_locator_map" data-name="BD XXX District locator map" xmlns="http://www.w3.org/2000/svg" viewBox="0 0 400 400"><defs><style>.cls-1,.cls-2{fill:#292b2c;stroke:#fff;stroke-width:2px;}.cls-2{stroke-linecap:round;stroke-linejoin:round;}</style></defs><title>Bangladesh_divisions_bn</title><g id="Rongpur"><path id="path4167" class="cls-1" d="M158.39,94.35l3.54-3.48,3.53.69L169,94.35,166.17,102l4.25,1.39,3.53,4.18,4.25-.69-.71-4.88L174,99.92,178.2,95l7.78.7,3.54,4.88,2.83,3.48,2.12,3.48,1.41-2.09h6.37l1.42,1.4,4.24-2.09v4.87l.71,8.36,4.95,3.49,5,2.78,1.42,3.49-.71,4.18-1.41,10.45,2.12,7,1.41,7.66,5.66,4.88,6.37,4.18,5,4.18-2.12,5.57-2.12,4.88L232,183.52l-4.24-4.88-7.07,6.27.7,7.66L215.69,187l-3.53,7-11.32-2.79-7.79,2.09,2.83,7-3.53,4.18-2.13,3.48-6.36-.7-5.66-4.87h-3.54v-7.67L169,193.27V176.55l-2.83-3.48-2.83-4.88-7.78-2.09.71-3.48-2.13-1.39v-5.58l-.71-2.09,2.83-3.48-2.12,3.48,4.25-6.27,4.24-2.09V133.36l2.12-4.18V126.4l-.7-9.76,2.12-4.18-7.78-8.36V94.35Z"/><path id="path2169" class="cls-2" d="M81.27,64.39l-1.41-4.87L78.44,56,82,51.16l2.83-6.27,2.83-8.36,5.66-8.36,1.41,9.06.71,4.87,5.66,5.57,5.66-1.39,1.42,4.88,5.66,1.39.7,4.18,5.66,2.09.71,2.79L126.55,63l3.54-4.18,2.12,5.57L135,67.88l4.24,2.78,1.42,2.79,3.54-1.39,2.12,2.09L144.24,79l2.12,2.09,2.83,2.09v1.4l5.66-.7v2.79l1.41,2.78V93l3.54,2.79-.71,6.27,2.83,4.88,3.54,4.87L164,116.64v13.24l-2.12,5.57,1.42,7-3.54,4.87-5,7-5.66-1.39-7.78-.7-2.83-5.57L135,143.81l4.24-7.66-2.83-5.58-3.53-4.18-5.66-2.09-2.83-2.78-2.13-4.18-3.53,1.39a10.79,10.79,0,0,0-2.83-1.39c-2-.7-5-1.4-5-1.4l-3.54-1.39-3.54,2.79-5.66-1.4-5-2.09-4.25,2.79-.7,3.48a25.06,25.06,0,0,1-5-1.39A50.08,50.08,0,0,1,77.73,116l-1.41-2.09,5-2.79,2.83-3.48L82,103.41V93.65L89.76,93l2.83-2.79L95.42,86l6.37-2.09L103.2,79l3.54,5.58,3.54-2.09,2.83-4.88-2.83-3.48L107.45,70V65.09l-5-4.18-6.37,1.4-3.54-5.58-3.54,2.79-4.24-.7Z"/><path id="path2192" class="cls-1" d="M43.77,197.45l-3.53-6.27L36,185.61l2.83-6.27-7.07-1.4,2.12-11.14,5-3.49-.71-4.17,2.83-5.58L49.43,148l2.83-7.66-6.36-3.49,3.53-6.27,1.42-6.27,7.78-2.78v-7l10.61,1.39L77,113.85l10.61,7,2.12-5.57,7.22-1.5,6.22,2.19,5.66-.69L123,118.73l5.66,6.27,5,2.09,7.08,8.36-4.95,7,1.41,4.87-3.54,3.49-1.41,5.57h-5l-3.54-5.57L121.6,155h-4.25l-2.12,7.66,2.83,2.79-3.54.69-4.24,7-1.42,4.18-2.12,4.18,2.83,3.48-4.24.7H102.5v-3.49l-9.2.7v5.57H89.76l-.71,7,4.25,2.09-2.83,2.79v6.27L94,208.6l4.24,3.48L97.54,217l-5,.7-4.24-4.19-3.54-2.08V208.6l-5-4.88H75.61l-1.41-4.88-7.79-4.18.71-3.48-.71-2.09-6.36,2.09-4.25,3.48-3.53-4.18Z"/><path id="path2175" class="cls-1" d="M206.5,96.44l-2.13-5.57L198.71,95l-2.83-4.17,4.25-3.49L198,83.9l-3.54-.7-2.12,2.09-7.08-3.48-1.41-6.27,7.07-10.45L197.3,63v4.18l2.12,1.39,6.37,2.09L210,74.84l9.2-.69L221.35,79l-4.24.7,3.54,4.18-3.54,4.18h8.49L228.43,93,227.72,95h-4.24l-4.25-4.18v6.27l3.54,4.18,5.66,6.27.71,4.18L227,113.85l6.37,12.54,11.32,2.09,5.66,5.57.71,4.18-2.83,1.4.7,1.39,5,.7,5.66,2.78,4.95,5.58,9.2,2.09L278,144.5l2.83.7.71,3.48,3.54,1.4,2.83,2.78,2.83-2.09L289.27,164l5.66.7,7.78,8.36,1.42-.7v4.18h6.36l.71,2.09L304.84,187l-3.54.7.71,8.36-7.78,5.57-2.13-.7-.7-6.27-2.13.7-1.41,3.48-5.66-.69-4.25-1.4-.7,1.4-14.15-8.36s3.53-4.18,0-4.88a26.35,26.35,0,0,1-7.08-2.79v-4.87l-4.24.69-6.37-4.87-7.08-2.79-4.24-4.88-9.07-3-4.37-6.8-3.54-16,2.12-10.45V125l-11.32-7,.71-13.93,5.66-2.09-3.54-4.87Z"/><path id="path2174" class="cls-1" d="M137.16,145.9l-3.53,3.48L132.21,155l-5,1.4L123,150.08,121.6,155h-4.95l-2.13,7.67,3.54,2.09v2.09l-4.24-.7L107.45,180l2.12,3.49-1.41,2.09-5.66.69-.71-4.18-2.12,1.4-7.79-1.4,1.42,7-3.54-1.39L89.05,194l3.54,2.09-2.12,4.87.71,4.88,7.07,5.57V217l2.83,2.09-.71,6.27-2.83,1.39v5.57l4.25,2.79h6.37v5.57l5,3.49,2.12,4.87,8.49.7,4.95-1.39,1.42,3.48,6.37.7v2.78l9.9,1.4,2.83-2.79,3.54-2.09s8.49,3.48,6.36.7-2.12-7.67-2.12-7.67l4.25,4.18,4.24-4.18v7l3.54,1.39,2.83,6.27-2.83,7-3.54,2.09,4.25,2.09.7,5.58,9.2,9.05,2.12-3.48,2.13,2.79v2.78l17.68,1.4,2.13,2.78-.71,4.88,7.78,4.18,7.08-1.39,3.53,5.57,9.91-1.39,21.22,4.87,5.66-2.78v-4.88l-5.66-6.27-.71-6.27L244,281.75l1.42-2.79-2.12-1.39h-3.54l-.71-4.18h-6.37l-4.24-4.88,2.12-1.39-7.07-4.18-5-19.51-2.83-7-10.61-2.09-5-11.15-9.9-6.27-1.42-9.75L181,205.12l-2.83-2.79-4.25-.7,2.13-7.66H169l-.71-16.72-5.66-9.75-6.36-1.39-2.13-5.58v-6.27l-12-2.09Z"/><path id="path2176" class="cls-1" d="M252.48,293.58V288l-9.19-6.27,2.12-3.48-5.66-1.4v-2.78l-7.07-.7L227,268.5l3.53-.69-9.19-4.88-5.66-25.78-11.32-2.78-5-11.15-8.49-4.88L188.1,207.2l7.08-7-2.12-7,7.78-2.09,12,2.09,2.12-5.57,7.07,5.57-.7-8.36,7.07-7,2.83,5.57L239.75,171l10.61,7h4.95v4.87l7.79,2.79,2.83,6.27,11.32,7,1.41-2.79,8.49,4.18,2.12,2.09-.7,2.09,6.36,1.4,2.13,2.78-6.37,2.79,5.66,2.09,2.12,2.79v4.87l-2.12,1.4V226l4.24,2.09.71,2.09-2.83,2.09-5.66,4.18,2.12,3.48L291.4,242l-2.13-3.48L285,237.16l-.71,2.09-5.66-.7L275.83,242l7.08,6.27-.71,4.88,4.24,2.79-4.95,6.27-4.95.7-5,5.57-7.08,13.23v1.4l2.12,3.48L263.1,288l7.78,5.58h-18.4Z"/><path id="path3151" class="cls-1" d="M297.76,220.44v-4.88L291.4,210l6.36-.7-4.24-4.18h-5l-2.12-6.27,4.95-4.18v4.88l3.54,2.78,6.37-5.57.71-9.06L311.2,180l-.7-2.78-6.37-.7v-4.88l-2.83,2.09L294.22,164h-5.65l2.12-12.54h9.9l1.42,2.79-.71,3.48,4.24,4.18,1.42-2.79,3.54-1.39v-3.48l-3.54-.7-.71-6.27,7.78-5.57h6.37v-3.49l-2.12-1.39-.71-5.57-2.12.69L314,134.75l-1.41,2.09-2.83-1.39,2.83-4.88-1.42-2.79L309.79,125v-3.49h2.83l4.24-4.87,1.42-3.48-.71-4.18,2.12-2.09h6.37l4.25,3.48-2.83,2.79-.71,3.48-.71,1.39,2.12,4.18,2.83-2.09h7.79l2.12,6.27L348,138.23l-2.83,1.4v4.18l4.25,1.39L353,155.65H360L353,161.92,360,164l5,2.09v2.09l-3.53,3.48-6.37,5.58.71,7.66-3.54,4.88,2.83,4.87,2.83,4.88-4.25,4.18v4.18l3.54.69-1.41,5.58,6.36,4.88v18.11l-3.53,7-.71,11.15-1.42,6.27-2.12,2.09-.71,7.66-3.53-2.09-5-2.78v4.18l2.83,2.09-6.36,4.87-2.83-.69v-2.79l-1.42,1.39-5.66-.69v-3.49l2.83-1.39-2.83-.7v-3.48l2.12-5.57-8.49-2.09,5-2.09-2.83-4.18V249l-6.37-5.57h-4.95l-1.42,3.48-2.12-5.57-8.49-4.18-2.83-7.67L297.76,226v-5.57Z"/><path id="path2177" class="cls-1" d="M239.75,304.73l12,4.18,5.66-2.79,1.41-4.87-5.66-7.67,16.27.7L263.1,288l4.95-.7-3.54-5.57,9.91-15.33,3.53-4.18,3.54,1.4,5.66-7.67-4.95-2.78.71-6.27L276.54,242l2.12-3.48,5.66-2.09,5.66,1.39.71,5.57,5.66-2.78-3.54-4.88,8.49-4.88,5.66,7.67,5,3.48,2.83,6.27,2.13-4.18h4.24l5.66,4.88v2.78l3.54,3.49-7.08,3.48,10.62,2.09-2.13,2.09v6.27l1.42,1.39-2.13.7v3.48l5.66.7,2.83-2.79v3.49l2.13,1.39v11.15l3.53,7.66.71,4.88-4.95,7-3.54-.69-4.95,4.18-.71,6.27-5,7-4.24,4.87v3.48l2.12,3.49,2.83.69-3.54,2.1-1.41,4.18L321.11,341l-7.78-.7L307,342.35l-1.41,3.49H302l-1.42-2.79L290,341l-2.83-3.48-2.12-.7-2.12,2.79-3.54-2.09-2.12-.7-1.42,2.79-5.66-.7-2.12-7h-2.83l-2.12-2.09-7.79-.7-2.83,3.49-4.24-3.49V327l-5.66-7.66h-2.12l-2.83-3.48-1.42-3.49Z"/></g></svg>