<svg id="BD_XXX_District_locator_map" data-name="BD XXX District locator map" xmlns="http://www.w3.org/2000/svg" viewBox="0 0 400 400"><defs><style>.cls-1{fill:#292b2c;stroke:#fff;stroke-width:3px;}</style></defs><title>Bangladesh_divisions_bn</title><g id="Sylhet"><path id="path2228" class="cls-1" d="M101.55,199.17V192.9l11.14-9.41-4.77-7.84-10.35-3.13L92,169.38l1.59-7L98.36,160l2.39-5.48L97.57,149l-2.39-1.57-5.57,7.84-3.19-5.49.8-6.27-4.78-7-13.53-1.57-5.57-7L52.2,126.27V116.08L49,109v-8.61l4-3.92-8-2.35L46.63,91l8-.78-4-4.7L52.2,70.63l1.59-3.92,12.74-2.35h8.75l11.15,2.35,21.49-3.92L127.81,73,131,69.06l9.55,3.13,10.35,6.28h7.16l3.18-3.14,5.58,1.57,11.93-6.27V76.9l4,.78,2.39,4.71,11.94-3.14,4.78.78-1.59,4.71,6.36,5.49.8,7-4,4.7v2.36l8.75,8.62-.79,3.13-2.39.79v2.35l4.78,2.35v6.27L209,137.26v2.35l4.78,6.27-8,1.57-4,4.7,4.77,10.19-4.77,1.57,4.77,7.06-7.16,14.1-11.94-1.57-.8,3.92,2.39,2.36-3.18,2.35-3.19-3.92h-6.36L166,185.86,162.83,189l3.19,3.14-5.57,4.7-11.15-8.62-.79-4.71-6.37-.78L135,189l-7.17,3.92.8,6.27L127,203.1,122.24,200l-7.16,6.28-6.37,1.56-7.16-8.63Z"/><path id="path2230" class="cls-1" d="M198.65,185.06l8.76-14.89-5.57-7,4.77-.79-4-11,5.58-4.7h6.36l-6.36-7.84,5.57-9.41.79-7.84-6.36-3.92,4-3.92-8-9.4v-3.14l3.18-3.14V90.22L201,84.73l.8-3.92-4.78-3.92L199.45,73h2.39L209,75.33l4.78-5.49,23.88.78L252,68.27l5.57,4.7,4.78-6.27h12.74l8.75,3.14L291,78.46l3.19-.78L297.35,80l3.19-1.57,5.57,3.14v3.92l4,.78,9.55,4.7L326,92.57l2.38-2.35h3.19v6.27l8.75,2.35,8,4.71-1.59,4.7,3.19,7,7.16,2.36-3.18,3.92,7.16.78,3.18,4.7-.79,11.76h-3.19l-3.18-1.57-4.78,4.7-9.55-.78-13.53-2.35-8,2.35-6.37,3.92,5.58,6.27-.8,5.49-7.16,13.32H306.9L295,171.74l-3.18-6.27h-4L287,171l-3.19,10.19-8,6.27-4,1.56-9.55,2.36-4-3.14-4.77,3.14-5.58-.79-2.38-3.92L240,189.77l-4-3.92-4.78,5.49L224.92,200l-12.73.78-2.39-5.48-8-.79,3.18-4.7-6.37-4.71Z"/><path id="path3203" class="cls-1" d="M93.59,275.19l4.77-1.57-3.18-4.7L92,267.35l1.59-4.7,9.55.78,5.57-2.35v-5.49l-3.18-3.91,5.57-1.57-.8-4.71-5.57-6.27,3.18-3.92.8-5.48-1.59-3.14-4-2.35-4.78,2.35-5.57-2.35,11.14-3.92,4-11,8-5.49,5.58-5.49,5.57,6.27,2.39-4.7L127,194.45l5.57-7.84,10.35-3.13h4l5.57,4.7,6.36,9.41,4-6.27V189l4-3.14L170,187.4l12.73-1.57,3.19,7,4-1.56-3.19-3.92v-3.92l10.35,1.57,9.55,2.35-4.78,7,8,.79,1.6,3.92-5.58,6.27-5.57-3.92-4.77-.79-2.39,1.57,4.77,7.84,4.78,3.14h-4.78l-5.57,3.92-1.59,12.53-1.59,22.73,4.78,13.33L189.1,279.1l-3.18,2.35v2.35l4,3.14v3.13l-3.19,1.57V308.1l-10.35,6.27-11.14,1.57-7.16-5.49H149.3l-8-3.92h-7.16l-1.59,4.7,4.77,6.27L135.77,323l-4,5.49-2.39,7.84-11.94-3.14v-5.49l2.39-1.56-1.59-6.27-6.37-13.33,8-2.35-6.36-3.13v-9.41l8.75,2.35v-4.7l-7.16-3.14,11.14-7.84v-4.7L119.06,272l-7.17,12.54-6.36-4.7-11.94-4.69Z"/><path id="path4174" class="cls-1" d="M188.31,280.68l5.57-14.89-5.57-12.54,4-36.05,4.77-3.14,8.76.79-6.37-3.14-8-9.4,4-2.36,5.57.79,5.57,5.48,4.78-6.27,11.94.79,12.73-15.68,4,3.92,4.78-2.35,2.39,3.92,8,.79,3.18-3.14,3.18,3.14L272.68,189l11.14-6.27,4-16.45h4l2.39,6.27,11.14-2.36h8l-1.59,5.49-2.39,5.49-5.57,10.19-2.39,14.1-11.94,7.84-1.59,14.11,4,5.49v4.7l-5.57,11H275.86l-15.92-2.35-6.37,1.57,6.37,5.49,1.59,6.27-4,1.57L256,257.18l-.79-3.14-4.78-.78-5.57,5.49,3.18,3.13v17.24l-4,4.7-1.59,15.68h-5.57l-4-8.63-6.37-5.48,3.19-3.14-6.37,1.57h-7.16l-2.39-4.7-4.78.78h.8v14.89l3.18,4.7-4,3.14-4-1.57-2.39-3.92-7.16-4.7-7.16-11.76Z"/></g></svg>