<svg xmlns="http://www.w3.org/2000/svg" viewBox="0 0 410 309"><title>All Articles 02</title><g id="All_Articles_02" data-name="All Articles 02"><path d="M375.91,30H80.62A16.62,16.62,0,0,0,64,46.62V52H37.79A15.79,15.79,0,0,0,22,67.79V243.06A34,34,0,0,0,55.94,277H363.29A26.71,26.71,0,0,0,390,250.29V44.09A14.09,14.09,0,0,0,375.91,30ZM63,242a5,5,0,0,1-10,0V83H63Zm154-14.44a9.44,9.44,0,0,1-9.44,9.44H113.44a9.44,9.44,0,0,1-9.44-9.44v-2.12a9.44,9.44,0,0,1,9.44-9.44h94.12a9.44,9.44,0,0,1,9.44,9.44Zm0-62a9.44,9.44,0,0,1-9.44,9.44H113.44a9.44,9.44,0,0,1-9.44-9.44v-2.12a9.44,9.44,0,0,1,9.44-9.44h94.12a9.44,9.44,0,0,1,9.44,9.44Zm133,62a9.44,9.44,0,0,1-9.44,9.44H246.44a9.44,9.44,0,0,1-9.44-9.44v-2.12a9.44,9.44,0,0,1,9.44-9.44h94.12a9.44,9.44,0,0,1,9.44,9.44Zm0-62a9.44,9.44,0,0,1-9.44,9.44H246.44a9.44,9.44,0,0,1-9.44-9.44v-2.12a9.44,9.44,0,0,1,9.44-9.44h94.12a9.44,9.44,0,0,1,9.44,9.44Zm1-60.65a9.09,9.09,0,0,1-9.09,9.09H113.09a9.09,9.09,0,0,1-9.09-9.09V81.09A9.09,9.09,0,0,1,113.09,72H341.91A9.09,9.09,0,0,1,351,81.09Z"/></g></svg>