<svg xmlns="http://www.w3.org/2000/svg" viewBox="0 0 358 362"><title>Services 02</title><g id="Services_02" data-name="Services 02"><path d="M257.71,22H89.24A29.24,29.24,0,0,0,60,51.24V287.35A30.65,30.65,0,0,0,90.65,318h93.71c-.86-2.29-1.36-4-1.36-4-1.34-4.57-1.27-6.47-3-10a27.29,27.29,0,0,0-5-7,27.84,27.84,0,0,0-2.11-2H106a22,22,0,0,1-22-22V66.15A21.15,21.15,0,0,1,105.15,45h137A21.85,21.85,0,0,1,264,66.85V219a19.11,19.11,0,0,0,8,5c2.8.93,5.21,1,9,1,3.46,0,5.06-.33,7-.25V52.29A30.29,30.29,0,0,0,257.71,22ZM202.83,36.83A4,4,0,0,1,200,38H147a4,4,0,1,1,0-8h53a4,4,0,0,1,2.83,6.83Zm85,281.17H288v-.18Z"/><rect x="106" y="75" width="136" height="14" rx="7"/><rect x="105" y="106" width="67" height="14" rx="7"/><rect x="106" y="136" width="67" height="14" rx="7"/><path d="M279,239.22v64.1a34.18,34.18,0,0,1-34.19,34.18H233.06a30.64,30.64,0,0,1-17.5-5.45l-8.06-8.13h0l-2.39-4.23v0l-30.06-53a8.45,8.45,0,0,1,2.92-11.45,9.09,9.09,0,0,1,12,2.32l12.25,16.4v-77.7a9.22,9.22,0,0,1,18.43,0v50.38h.62v-7.37a9.22,9.22,0,0,1,18.43,0v7.37h1.22v-7.37a9.22,9.22,0,1,1,18.43,0v7.37h1.23v-7.37a9.22,9.22,0,1,1,18.43,0Z"/></g></svg>