<svg xmlns="http://www.w3.org/2000/svg" viewBox="0 0 357 319"><title>Travel Deals 01</title><g id="Travel_Deals_01" data-name="Travel Deals 01"><path d="M329,97a5.5,5.5,0,0,1-5,3c-2,0-8-1-10-1s-3-2-3-4,4-4,4-4,13,0,14,2S330,95,329,97Z"/><path d="M298,87c-5,2-7,5-5,6s11,3,12,3,7-5,6-6S298,87,298,87Z"/><path d="M329,97a5.5,5.5,0,0,1-5,3c-2,0-8-1-10-1s-3-2-3-4,4-4,4-4,13,0,14,2S330,95,329,97Z"/><polygon points="97.19 121.83 100.93 123.83 104.94 123.83 105.62 122.56 105.2 121.82 106.36 121.17 107.71 118.64 100.85 114.98 97.19 121.83"/><polygon points="114.52 120.62 119.36 120.62 119.36 113.93 111.83 113.93 111.83 118.08 112.79 117.54 114.52 120.62"/><polygon points="112.9 120.62 112.25 119.47 111.83 119.7 111.83 120.62 112.9 120.62"/><polygon points="107.41 122.19 107.23 122.54 107.96 123.83 114.71 123.83 113.69 122.03 110.41 122.03 110.41 120.5 107.41 122.19"/><path d="M315.25,77.25,183.13,89.5V69.09a23.63,23.63,0,1,0-23.63-.51l.88,20L65.88,62.38,42.25,109.63l26.25,56,86.63,9.62H33.5L9,215.5V219l24.5,41.13h126V303h23.63L184,176.13l134.75-8.75L345,120.13V117.5ZM114.71,91.05s-2.66,3-5.83,2.56l-12.7-5.82Zm-7.06,3a10.59,10.59,0,0,1-6,2.19l-6.36-7.67ZM93,86.71c.36-.17.73-.12.84.1l.44,1c.11.23-.09.54-.44.71s-.73.11-.84-.11l-.45-1C92.46,87.19,92.66,86.87,93,86.71ZM82.06,105l9.7-15.44s-3.17,10.5-4.85,13.08A5.65,5.65,0,0,1,82.06,105Zm6.7-2.73L93.09,89.2l1.67,10C93.09,102.64,88.76,102.27,88.76,102.27Zm27.7,51.11H98.23l-6.45-46.09h11.14l-4.08-9a4.35,4.35,0,0,1-3.19.52L94.32,89.2l6.36,7.24a5.92,5.92,0,0,1-1.25,1.45l4.26,9.4h20.18Zm5.4,63c-1.18-.83-1.67-2.53-2.67-3.11-.7,0,.39,1.29.17,1.93-2.52-.6-4.48-.52-6-2.37a1.36,1.36,0,0,0-1.09.47,2.4,2.4,0,0,0-.58.92c7.83,3.72,8.56,11.79,3.74,20.09-.79-1.92-.24-4.42-1-6.35a16.84,16.84,0,0,0,1-5,16.78,16.78,0,0,0-1.38,2.06c-1.23-2.17-2.28-4.42-1.72-7.38-.49.16-.13,1.08-.73,1.38-.51.13-.53-1.09-1.13-1.37-.51,0-1.33,0-2.08-.07-.16,5.84-1.21,24.33-8.1,29.78,10.37,5.15-25,1.43-13.53-1.5-1.83-4.51-7-8.14-10.19-10A10.78,10.78,0,0,1,74.49,237c-.34.39,0,1.29-.38,1.36s-.56-.81-1-.78a8.09,8.09,0,0,1,1.06,5.9,11.65,11.65,0,0,0-1.64-1.06,13.53,13.53,0,0,0,2.32,3.29c.05,1.65,1.24,3.29,1.26,4.93C70,246.08,68,240,72.56,234.83a1.75,1.75,0,0,0-.71-.48,1,1,0,0,0-.94,0c-.49,1.81-1.93,2.36-3.58,3.58-.36-.39,0-1.7-.48-1.45-.55.74-.37,2.12-1,3.09-.75,1.23-2.06,2.11-2.61,3.2-1.44-4.45,3.17-11.77,8.61-10.17-4.42-3.64-4.15-8.12.29-12.09-.06,2.26-.06,4.52-1.16,6.78a3.83,3.83,0,0,1,1.16-1,12,12,0,0,1,1,4.33c.33.63.41-.07.41-.07C72,225,80.21,220.36,83.78,222.45a14,14,0,0,0-3.39,2.61,6.9,6.9,0,0,0-3.19,1.06,2.3,2.3,0,0,1,1.74.39c-1.28,1.59-1.94,3.39-3.72,3.82a6.76,6.76,0,0,0-.08.83,1.7,1.7,0,0,0,.14.61,3.53,3.53,0,0,0,2.31-.23c5.18-1.81,11.74,3.84,12.19,9.48a31.42,31.42,0,0,0-4.16-3.19c-.53-.93-1-2.39-2.22-3a2.2,2.2,0,0,1,.29,1.84c-1.71-1-3.66-1-4.84-3.29-.45.48.64,1,.29,1.45a3.48,3.48,0,0,0-1.94-.39,2.18,2.18,0,0,0-.1.29C80.4,236.66,86,240.52,88,245.5l-.53.21a18.76,18.76,0,0,1,4.1-.4l-1.15-.06C91.65,220.11,73,207.78,68.07,205c-.56.47-1.1.78-1.5.69a4.77,4.77,0,0,0-1.51-.12,5.29,5.29,0,0,0-.44,3.13c-.92.28-1.08-1.62-2-1.2,2.82,3,1.72,5.92,2.41,9.06a3.48,3.48,0,0,1-2.62-1.41c.3,2.12,2.23,3.64,3.36,5,.41,2.5,1.66,5.29,2.63,8-8.3-3.67-13.38-16.59-7.9-23.47A5.72,5.72,0,0,0,62,201.23a2.7,2.7,0,0,0-.86-.54s-.83-.24-1.3-.31c-1.59,2.47-4.66,2.52-7.75,3.62a3.72,3.72,0,0,1,.34-2.85c-1.28.71-2.58,2.83-3.3,4.28a21.74,21.74,0,0,0-5.75,3.74c-1.27-6.52,10.12-16.51,17.73-11.23,0,0,1.1.27.33-.57a19.29,19.29,0,0,1-6-3.73,6.53,6.53,0,0,1,2.07-1.25c-4,.48-7.41-.72-10.86-1.82,8.36-4.63,15.28-2.67,18.46,6,.44-9.08,14-12.2,19.94-7.66-2,.26-4,1.77-6.22,2.27-1.8.39-3.8-.62-5.2-.18-.64.63,1.55.75,1.94,1.5-2.72,1.84-4.31,3.74-7.31,3.53a1.59,1.59,0,0,0-.5,1.41,3,3,0,0,0,.36,1.33c10.2-4.11,18.36,2.13,22,13.77-2.48-.91-4.34-3.58-6.8-4.52a21.7,21.7,0,0,0-3.76-5.25,19.62,19.62,0,0,0,.75,3.05c-3.1-.72-6.11-1.67-8.38-4.74-.27.61.89,1.06.66,1.88-.32.58-1.48-.45-2.25-.13l-.52.54c6,3.57,24.18,16.54,22.89,42a20.26,20.26,0,0,1,6.51,1.45c6.94-4.48,8-23.91,8.15-29.48a.86.86,0,0,1-.43-.31,4,4,0,0,0-.74-1,4.26,4.26,0,0,0-2,1.42c-.66-.38.37-1.49-.39-1.83-.24,3.24-2.52,4.16-4,6.24a2.76,2.76,0,0,1-.58-2.28c-1.07,1.31-.93,3.24-1.08,4.6A38.56,38.56,0,0,0,94.86,230c-2.3-6.77,2.48-16.62,9.4-17.11a4.48,4.48,0,0,0,2.8-.89,2.35,2.35,0,0,0-.15-.79,9.26,9.26,0,0,0-.51-.91c-2.28.39-4-1.37-6.23-2.57a2.9,2.9,0,0,1,1.82-1.32,8.75,8.75,0,0,0-4.23.36,17.48,17.48,0,0,0-5.24-1.33c3.1-4.22,15-2.94,16,4.29,0,0,.43.78.51-.11a15.1,15.1,0,0,1-1.07-5.51,5,5,0,0,1,1.83.55c-2.41-2.07-3.53-4.69-4.74-7.28,7.14,2.38,9.7,7.44,6.39,13.89,5.51-4.59,14.53,1.58,15.08,7.47C125.31,217.77,123.36,217.41,121.86,216.36ZM285.5,149l-39.37-6.12V129.75L285.5,135ZM310,118.38l-23.62,26.25v-10.5l-36.75-5.25,26.25-26.25L310,107.88Zm5.25-.88-4.37,1.75V107l-35-5.25-1.75.88v-7H275l40.25,5.25Z"/><path d="M291.63,114.88c1.75,0,7,.87,8.75.87a4.79,4.79,0,0,0,4.37-2.62c.88-1.75.88-1.75,0-3.5s-12.25-1.75-12.25-1.75-3.5,1.75-3.5,3.5S289.88,114.88,291.63,114.88Z"/><polygon points="108.21 117.31 109.62 118.06 108.65 119.88 110.41 118.88 110.41 112.52 120.77 112.52 120.77 122.03 115.32 122.03 116.33 123.83 120.05 123.83 115.69 151.95 99.58 151.95 95.6 123.83 97.93 123.83 95.28 122.42 100.27 113.07 107.22 116.78 103.24 108 92.59 108 98.85 152.67 115.86 152.67 123.04 108 104.01 108 108.23 117.31 108.21 117.31"/></g></svg>